<?xml version="1.0" encoding="utf-8"?>
<!-- Generator: Adobe Illustrator 24.3.0, SVG Export Plug-In . SVG Version: 6.00 Build 0)  -->
<svg version="1.1" id="Layer_1" xmlns="http://www.w3.org/2000/svg" xmlns:xlink="http://www.w3.org/1999/xlink" x="0px" y="0px"
	 viewBox="0 0 1920 1080" style="enable-background:new 0 0 1920 1080;" xml:space="preserve">
<style type="text/css">
	.st0{fill:#48ACF0;}
	.st1{opacity:0.1;}
	.st2{fill:#FFFFFF;}
	.st3{opacity:0.4;}
</style>
<g>
	<g>
		<rect class="st0" width="1920" height="1080"/>
	</g>
</g>
<g>
	<g class="st1">
		<rect x="1281.3" class="st2" width="638.7" height="1080"/>
	</g>
	<g class="st1">
		<rect class="st2" width="638.7" height="1080"/>
	</g>
</g>
<g>
	<g>
		<g>
			<g>
				<path class="st2" d="M1057.9,487.7c-0.2-4.3-0.7-8.6-1.4-12.8c-0.7-3.9-1.7-7.7-2.8-11.4c-5.7-18.2-16.8-34.1-31.3-45.8
					c-16.4-13.2-37.2-21-59.8-21c-12.1,0-23.7,2.2-34.3,6.4c-29.4,11.3-51.8,36.8-58.8,68.1c-0.5,2.4-1,4.8-1.3,7.3
					c-0.7,4.5-1,9.1-1,13.8c0,30.6,14.4,57.9,36.8,75.4c16.2,12.6,36.5,20.1,58.7,20.1c21.4,0,41.1-7,57-18.9c2-1.5,3.8-3,5.7-4.6
					c13.8-12,24.1-27.8,29.2-45.9v0c0.8-2.9,1.5-5.8,2.1-8.8c0.4-2.2,0.8-4.5,1-6.7c0.2-1.5,0.3-3,0.4-4.5c0.1-2,0.2-4,0.2-6.1
					C1058,490.7,1058,489.2,1057.9,487.7z M1047.9,497.7c-0.1,1.4-0.2,2.7-0.3,4c-0.2,2-0.5,4-0.9,6c-0.5,2.7-1.1,5.3-1.8,7.9v0
					c-4.6,16.2-13.8,30.4-26.2,41.1c-1.7,1.4-3.3,2.8-5.1,4.1c-14.3,10.6-32,16.9-51.1,16.9c-19.8,0-38.1-6.7-52.6-18
					c-20.1-15.7-33-40.1-33-67.5c0-4.2,0.3-8.4,0.9-12.4c0.3-2.2,0.7-4.4,1.2-6.5c6.3-28,26.4-50.8,52.7-61
					c9.5-3.7,19.9-5.7,30.8-5.7c20.3,0,38.9,7,53.6,18.9c13,10.5,22.9,24.7,28.1,41c1,3.3,1.9,6.7,2.5,10.2
					c0.7,3.7,1.1,7.5,1.3,11.4c0.1,1.3,0.1,2.7,0.1,4C1048.1,494,1048,495.9,1047.9,497.7z"/>
			</g>
			<g>
				<g>
					<path class="st2" d="M877.3,420.2c-1.4,50.5,16.5,85.4,46.3,108.7c-0.8-7.6,1.4-13.4,3.1-18.3c10.4,46.8,46.3,42.4,62,45.5
						c-0.3-5.7-6-7.8-4-21.7c6.5,9.5,11.9,14.6,19,22.3c8.9,0.8,19.2,4.9,28.7,4.6c11.7-0.4,27.2-1.5,40-2.5
						c-1.1-5.8,0.2-8.4,1.8-12.4c2.2,4.2,4.9,8,8.1,11.4c12.9-3.3,25-1,31.7,1.8c-11.4-26.9-36.1-52.2-57.2-67.6
						c-11.1-1.4-18,5.1-31.4,13.6c1.6-8.7,6.4-16.3,17.6-22.1c-16.3-9.5-33.7-17.4-50.9-24.6c-6.7-2.8-26-7-35-11.5
						c-7.9,1.2-15.1,2.7-21.7,4.5c4-3.9,7.6-8.3,12.1-11.9c-24.3-19.7-41.8-26.7-67.5-29.5C852,380.2,834,334,839,330l-11.7,9.4
						C827.3,339.4,847.5,390.8,877.3,420.2L877.3,420.2L877.3,420.2z"/>
				</g>
			</g>
			<g>
				<path class="st2" d="M1114.3,561.1c-1.1,8.9-0.9,18-1.6,26.9c-1.2,15,2.2,28.8,9.8,41.6c6.5,10.9,5.2,21.4-0.7,31.7
					c-5.3,9.3-15.2,10.1-22.5,2.2c-8.4-9.1-7.1-19.4-1.9-28.8c10.4-18.9,13-39,12-59.9c-0.3-6.2-1.6-12.6-3.5-18.5
					C1103.6,548.7,1115,555.3,1114.3,561.1z M1114.6,621.5c6.8,13,4.4,26.9,3.6,40.7c6.8-7.4,9-19.5,5.3-26
					C1120.7,631.2,1117.6,626.4,1114.6,621.5z M1097.5,639.3c6.8-6.3,12.1-19,11.2-24.6C1105,622.8,1101.2,631,1097.5,639.3z"/>
			</g>
			<g>
				<path class="st2" d="M1108.3,712.5c-4-2.4-5.8-8-3.5-11.6c3.9-6,7.7-6.8,9.5-2.7c1.7,4.2,5.9,8,3.9,11.6
					C1116.3,713.3,1111.8,714.5,1108.3,712.5z"/>
			</g>
		</g>
	</g>
	<g>
		<g>
			<path class="st2" d="M907.8,644.7c0,1.8-1.3,3.2-4,4.4c-2,0.9-3.7,1.3-5,1.3h-13.5c-1.8,3.8-2.6,6.2-2.6,7.3v15.5
				c0,0.9-0.8,1.7-2.3,2.3c-1.1,0.4-2.1,0.6-2.9,0.6c-1.8,0-3.3-0.8-4.4-2.4c-0.9-1.2-1.3-2.4-1.3-3.7c0-0.3,0.3-2.5,1-6.7
				c0.6-4.7,1.1-8.5,1.3-11.4c-0.8,0.2-2,0.2-3.6,0.2c-1.1,0-2.3,0-3.9-0.1s-2.3-0.1-2.5-0.1c-3.5,0-5.6,2.1-6.3,6.4
				c-0.2,4-0.3,7.9-0.5,11.8c-0.4,4.3-1.9,6.4-4.7,6.4c-2.7,0-4-2.5-4-7.5c0-0.6,0-1.7,0.2-3.2c0-14.4,2.4-27.1,7.2-37.9
				c1.1-0.3,2.1-0.5,3-0.5c3.3,0,5,2.3,5,7c0,0.8-0.2,2.9-0.5,6.1c0.8,0.3,2.9,0.4,6,0.4c5,0,8.3-1.3,9.9-4c0.5-0.7,1.2-3.2,2.1-7.3
				c0.5-2.7,1.9-4,4.1-4c1.7,0,3,0.6,4,1.8c0.8,1,1.3,2.2,1.3,3.6c0,0.5-0.5,1.9-1.6,4c-1.2,2.7-2,4.5-2.3,5.4
				c3.9,0.3,7.7,0.6,11.5,1C904.7,642.3,907.8,643.3,907.8,644.7z"/>
			<path class="st2" d="M964.1,643.7c-0.6,3.1-1.5,5.1-2.8,6c-1.1,0.7-3,1.1-5.8,1.1c-1.8,0-3.1-0.1-4-0.4
				c-0.5,3.5-1.1,6.9-1.6,10.3c-1.4,6.3-3.5,9.4-6.3,9.4c-2.2,0-3.3-2-3.3-6c0-2.2,0.3-4.9,1-8.2s1-4.9,1-4.7
				c-0.1-0.1-0.7,0-1.8,0.2s-1.7,0.4-1.9,0.4c-0.7,0-3.3,0.4-7.8,1.1c-5.3,0.8-9.4,1.7-12.2,2.5c-0.8,1.2-2.1,2.8-3.7,4.9
				c-1.6,2.1-3.3,4.3-4.9,6.5c-1.9,2.3-4,3.4-6.4,3.4c-3.4,0-5.1-1.6-5.1-4.8c0-2.7,6.7-10.2,20-22.4c7.9-7,15.8-14,23.7-21
				c1.7-1.5,4.3-2.3,7.7-2.3c2.2,0,3.5,0.8,4,2.4c0.2,0.6,0.3,2.2,0.3,4.6l-1.3,15.8h8.9C963,642.4,963.6,642.8,964.1,643.7z
				 M943.5,641.4c0.2-4.1,0.1-6.9-0.2-8.3c-0.2-1-0.7-1.5-1.3-1.6c-1-0.1-1.6-0.3-1.9-0.6c-1.6,1.2-3.7,3.4-6.4,6.6
				c-1.9,2.3-3.7,4.7-5.6,7L943.5,641.4z"/>
			<path class="st2" d="M984.8,619.7c0.3,5-0.5,10.5-2.3,16.5c-1.8,5.2-3.6,10.5-5.5,15.7c-2.1,6-3.5,11.3-4.2,15.7
				c-1.6,1.1-2.8,1.7-3.7,1.7c-2.8,0-4.2-2-4.2-6c0-4.8,1.4-10.5,4.3-17.3c5.4-13,8.8-21.6,10.2-25.8c1-0.8,2-1.2,3-1.2
				C983.3,618.7,984,619.1,984.8,619.7z"/>
			<path class="st2" d="M1029.2,637.8c0,2-3.7,4.7-11.1,8.1c-4.9,2.1-9.9,4.2-14.8,6.4l19.1,5.1c0.6,0.3,1.2,0.7,1.8,1
				c1.1,0.6,1.7,1,1.7,1.3c0,1.6-0.3,2.9-1,4c-0.6,0.9-1.1,1.3-1.7,1.3c-2.5,0-6.9-0.8-13.2-2.3c-5.6-1.4-9.9-2.7-13-3.8
				c-1.5,3.8-3.7,9.7-6.4,17.9c-0.6,0.5-1.4,0.7-2.3,0.7c-2,0-2.9-1.2-2.9-3.6c0-0.9,1.2-5.6,3.5-14.2c2.7-10.1,5.3-18.4,7.9-24.9
				c3.4-8.8,6.2-13.3,8.5-13.3c1,0,1.9,0.5,2.7,1.5c0.6,0.8,1,1.5,1,2.1c0,2.4-0.9,5.7-2.8,9.9c-1.9,4.5-2.9,7.3-3,8.3
				c2.8-0.9,7-3.1,12.8-6.5c4.7-2.8,8.3-4.2,10.8-4.2c0.6,0,1.2,0.6,1.7,1.9C1028.9,635.9,1029.2,637,1029.2,637.8z"/>
			<path class="st2" d="M1065,624.2c0,2.8-1.3,7.5-3.8,14.4c-3.1,8.2-6.6,14.9-10.6,20.3c-5.1,6.8-10.4,10.3-15.7,10.3
				c-3.4,0-6.1-2.9-8-8.8c-1.3-4-2-7.4-2-10.3c0-0.4,0.4-4.3,1.1-11.8c0.8-8.2,1.4-14.2,1.7-18c0.1,0,0.5-0.1,1.3-0.4s1.4-0.4,2-0.4
				c4.6,0,6.8,3.4,6.8,10.2c0,0.6-0.9,4.1-2.6,10.6s-2.6,10-2.6,10.6c0,1.5,0.4,3.2,1.2,4.8c0.8,1.7,1.6,2.5,2.5,2.5
				c4.4,0,9.2-6.6,14.5-19.8c2.4-6.7,4.7-13.5,7.1-20.3h3.7C1063.8,620.5,1065,622.5,1065,624.2z"/>
		</g>
		<g class="st3">
			<path class="st2" d="M795.7,578c-0.2,0.9-0.5,1.5-0.8,1.8c-0.3,0.2-0.9,0.3-1.8,0.3c-0.5,0-0.9,0-1.2-0.1c-0.2,1-0.3,2.1-0.5,3.1
				c-0.4,1.9-1.1,2.8-1.9,2.8c-0.7,0-1-0.6-1-1.8c0-0.7,0.1-1.5,0.3-2.5s0.3-1.5,0.3-1.4c0,0-0.2,0-0.5,0.1s-0.5,0.1-0.6,0.1
				c-0.2,0-1,0.1-2.3,0.3c-1.6,0.3-2.8,0.5-3.7,0.7c-0.3,0.3-0.6,0.8-1.1,1.5s-1,1.3-1.5,2c-0.6,0.7-1.2,1-1.9,1
				c-1,0-1.5-0.5-1.5-1.5c0-0.8,2-3.1,6-6.8c2.4-2.1,4.8-4.2,7.2-6.3c0.5-0.5,1.3-0.7,2.3-0.7c0.7,0,1.1,0.2,1.2,0.7
				c0.1,0.2,0.1,0.7,0.1,1.4l-0.4,4.8h2.7C795.4,577.6,795.6,577.7,795.7,578z M789.5,577.3c0-1.2,0-2.1-0.1-2.5
				c-0.1-0.3-0.2-0.5-0.4-0.5c-0.3,0-0.5-0.1-0.6-0.2c-0.5,0.3-1.1,1-1.9,2c-0.6,0.7-1.1,1.4-1.7,2.1L789.5,577.3z"/>
			<path class="st2" d="M823.4,583.8c0,0.2-0.2,0.6-0.5,1.1c-0.3,0.6-0.7,0.9-1,0.9c0,0-0.4-0.1-1.2-0.2s-1.7-0.2-2.7-0.2
				c-1.5,0-3.2,0.2-5.1,0.6s-3.3,0.6-4.3,0.6c-0.5,0-0.8,0-0.9-0.1c-0.3-0.1-0.4-0.4-0.4-0.8c0,0,0.2-0.6,0.7-1.6
				c0.5-1.2,0.9-2.2,1.2-3c0.7-2.3,1.3-5.2,1.9-8.8c0.1-0.6,0.4-0.9,1-0.9c0.2,0,0.5,0.1,0.8,0.4c0,3.6-0.7,7.3-2.3,11.2
				c3.1-0.5,4.5-0.7,4.3-0.7c1.7,0,3.2,0.1,4.5,0.2C822.1,582.5,823.4,583,823.4,583.8z"/>
			<path class="st2" d="M829.2,570.7c0.1,1.5-0.2,3.2-0.7,5c-0.5,1.6-1.1,3.2-1.7,4.7c-0.6,1.8-1,3.4-1.3,4.7
				c-0.5,0.3-0.8,0.5-1.1,0.5c-0.8,0-1.3-0.6-1.3-1.8c0-1.4,0.4-3.2,1.3-5.2c1.6-3.9,2.7-6.5,3.1-7.8c0.3-0.2,0.6-0.4,0.9-0.4
				C828.8,570.4,829,570.5,829.2,570.7z"/>
			<path class="st2" d="M846.2,570.8c0.1,0.1,0.1,0.2,0.1,0.3c0,0.4-0.5,0.8-1.3,1.2c-0.7,0.3-1.2,0.5-1.5,0.6
				c-0.6,0.1-1.8,0.1-3.5,0.1c-1.3,0-2.3,0.1-3.1,0.3c0,0.2,0,0.4,0,0.7c0,0.2-0.1,0.5-0.2,0.8c-0.1,0.2-0.4,1.4-0.9,3.8
				c-0.6,2.6-0.9,4.1-0.9,4.8v2.7c-0.1,0.3-0.7,0.5-1.7,0.5c-0.7,0-1.1-0.6-1.1-1.7c0-0.5,0.1-1.4,0.4-2.6c0.2-1,0.4-1.8,0.6-2.3
				c0.1-0.3,0.3-1.2,0.5-2.6c0.3-1.5,0.4-2.5,0.4-3c0-0.2-0.1-0.3-0.3-0.4l-3.5,0.8c-0.5,0.1-0.8-0.5-0.8-2c0-0.5,0.1-0.9,0.4-1.1
				c0.2-0.1,0.5-0.2,1-0.2c0.1,0,0.2,0,0.4,0s0.4,0,0.5,0l11.5-1.7c1-0.1,1.7,0,2.1,0.2C845.5,570,845.8,570.3,846.2,570.8z"/>
			<path class="st2" d="M858.1,570.8c0.1,0.1,0.1,0.2,0.1,0.3c0,0.4-0.5,0.8-1.3,1.2c-0.7,0.3-1.2,0.5-1.5,0.6
				c-0.6,0.1-1.8,0.1-3.5,0.1c-1.3,0-2.3,0.1-3.1,0.3c0,0.2,0,0.4,0,0.7c0,0.2-0.1,0.5-0.2,0.8c-0.1,0.2-0.4,1.4-0.9,3.8
				c-0.6,2.6-0.9,4.1-0.9,4.8v2.7c-0.1,0.3-0.7,0.5-1.7,0.5c-0.7,0-1.1-0.6-1.1-1.7c0-0.5,0.1-1.4,0.4-2.6c0.2-1,0.4-1.8,0.6-2.3
				c0.1-0.3,0.3-1.2,0.5-2.6c0.3-1.5,0.4-2.5,0.4-3c0-0.2-0.1-0.3-0.3-0.4l-3.5,0.8c-0.5,0.1-0.8-0.5-0.8-2c0-0.5,0.1-0.9,0.4-1.1
				c0.2-0.1,0.5-0.2,1-0.2c0.1,0,0.2,0,0.4,0s0.4,0,0.5,0l11.5-1.7c1-0.1,1.7,0,2.1,0.2C857.5,570,857.8,570.3,858.1,570.8z"/>
			<path class="st2" d="M869.4,583.8c0,0.2-0.2,0.6-0.5,1.1c-0.3,0.6-0.7,0.9-1,0.9c0,0-0.4-0.1-1.2-0.2s-1.7-0.2-2.7-0.2
				c-1.5,0-3.2,0.2-5.1,0.6s-3.3,0.6-4.3,0.6c-0.5,0-0.8,0-0.9-0.1c-0.3-0.1-0.4-0.4-0.4-0.8c0,0,0.2-0.6,0.7-1.6
				c0.5-1.2,0.9-2.2,1.2-3c0.7-2.3,1.3-5.2,1.9-8.8c0.1-0.6,0.4-0.9,1-0.9c0.2,0,0.5,0.1,0.8,0.4c0,3.6-0.7,7.3-2.3,11.2
				c3.1-0.5,4.5-0.7,4.3-0.7c1.7,0,3.2,0.1,4.5,0.2C868.1,582.5,869.4,583,869.4,583.8z"/>
			<path class="st2" d="M884.4,577c-1.6,0.4-3.7,0.8-6.4,1.1c-2.1,0.3-3.5,0.6-4.2,0.9c-1,0.5-1.4,1.4-1.3,2.7
				c0.1,0,0.2,0.1,0.4,0.1c0.2,0,0.5,0,0.9-0.1c0.4,0,0.7-0.1,0.8-0.1c0.2,0,1-0.2,2.6-0.5s2.4-0.5,2.5-0.5c0.5,0,0.8,0,1,0.1
				c0.4,0.2,0.7,0.5,1,1.1c-0.5,1-1.9,2-4.2,3c-2.2,0.9-4,1.4-5.4,1.4c-1,0-1.7-0.2-2.2-0.5c-0.5-0.4-0.8-1.1-0.8-2.1
				c0-1.3,0.6-3.6,1.7-6.9c1.1-3.2,1.9-4.9,2.3-5.3s1.7-0.5,3.8-0.5c1,0,1.7,0.1,2.2,0.2c0.7,0.2,1.3,0.7,1.9,1.4l-0.2,0.8
				c0,0-0.7,0-1.8,0c-1.4,0-2.5,0-3.2,0.2c-1.1,0.3-1.7,1-1.7,1.9v0.7c0.8,0,2.2,0,4.3-0.2c2.2-0.1,3.6-0.2,4.2-0.2
				c0.5,0,0.9,0.1,1.4,0.3c0.5,0.2,0.7,0.4,0.7,0.7C884.7,576.7,884.6,576.8,884.4,577z"/>
		</g>
		<g class="st3">
			<path class="st2" d="M824,601.9c0,2.2-2.4,4.4-7.1,6.5c-1.5,0.7-3.9,1.5-7.2,2.6c-0.8,0.2-1.8,0.6-3.1,1.2
				c-0.7,0.3-1.4,0.5-1.9,0.5c-0.5,0-0.8-0.1-1-0.3c-0.1-0.1-0.2-0.4-0.2-0.9c0-1,0.3-2.5,0.9-4.5c0.6-2.1,0.9-3.5,0.9-4.4
				c0-0.5-0.1-1-0.2-1.4c0.1-0.2,0.4-0.3,0.8-0.3c0.2,0,0.4,0,0.6,0.1c0.2-0.3,0.3-0.7,0.5-1.4c0.1-0.8,0.3-1.2,0.4-1.5
				c0.2-0.5,0.6-0.7,1.1-0.7c0.1,0,0.3,0,0.5,0.1c0.2,0.2,0.4,0.5,0.4,0.9v0.1c0,0.3,0,0.5,0.1,0.7c1.8-0.9,3.1-1.5,3.8-1.7
				c0.5-0.1,1.5-0.2,3.2-0.2c2,0,3.5,0.2,4.6,0.6C823,598.6,824,600,824,601.9z M821.5,602.5c0-1-0.8-1.8-2.5-2.3
				c-1.2-0.4-2.3-0.6-3.4-0.6c-1.7,0-3.3,0.4-4.7,1.1c-0.5,0.2-1,0.5-1.4,0.7c-0.6,0.3-0.9,0.5-1,0.7c-0.5,0.9-0.9,2.1-1.3,3.6
				c-0.3,1.2-0.6,2.4-0.9,3.7c1.9-0.5,4.8-1.4,8.6-2.5C819.3,605.4,821.5,604,821.5,602.5z"/>
			<path class="st2" d="M837.7,599.8c-0.1,2-1.8,3.2-5.1,3.6c1.2,0.7,2.2,1.5,3.2,2.3c1.5,1.3,2.2,2.3,2.2,3.2
				c0,0.3-0.1,0.7-0.2,1.1c-0.2,0.6-0.3,0.8-0.5,0.8c-0.1,0-0.5-0.4-1.1-1.2s-1-1.3-1.1-1.3l-5.3-2.8c-0.2,0-0.6-0.1-1.1-0.2
				c-0.6-0.2-1-0.4-1-0.6c0-0.8,0.6-1.4,1.8-2c0.3-0.1,1-0.4,2.1-0.7c0.6-0.2,1-0.3,1.4-0.4c0.7-0.3,1.1-0.5,1.4-0.8
				c-0.1-0.2-0.3-0.3-0.7-0.3c-0.8,0-1.9,0.3-3.5,0.9c-1.6,0.6-2.5,1.1-2.7,1.5c-0.1,0.3-0.3,1-0.6,1.9c-0.2,0.9-0.5,1.7-0.8,2.4
				c-0.1,0.3-0.3,1-0.5,1.9c-0.1,0.6-0.3,1.3-0.7,2.1c-0.6,1.3-1.2,2-1.9,2c-0.1,0-0.3-0.1-0.5-0.3c0-1.1,0.1-2.2,0.3-3.1
				c0.1-0.6,0.5-1.5,1-3c0.6-1.5,1.1-2.9,1.4-4.2c-0.4-0.1-0.8-0.2-1.2-0.5c0-0.2,0-0.5,0.1-0.8c0.1-0.5,0.2-0.8,0.2-0.8
				c0.4-0.1,0.9-0.3,1.4-0.7c0.2-0.3,0.3-0.5,0.5-0.7c0.2-0.2,0.5-0.3,0.9-0.3c0.1,0,0.4,0,0.9,0.1s0.9,0.1,1,0.1
				c0,0,0.6-0.2,1.8-0.6s2.2-0.6,3.2-0.6c1.2,0,1.9,0.1,2.4,0.2C837.4,598.4,837.8,599,837.7,599.8z"/>
			<path class="st2" d="M850.7,603.5c0,2-0.7,4-2.2,5.8c-1.6,2-3.5,3-5.8,3c-1.7,0-3.1-0.5-4.1-1.5c-0.9-1-1.4-2.3-1.4-3.9
				c0-0.6,0.2-1.7,0.7-3.3c0.6-1.9,1.2-3.4,2-4.6c1-1.6,2.1-2.3,3.2-2.3c2.2,0,3.9,0.5,5.3,1.7C849.9,599.6,850.7,601.3,850.7,603.5
				z M846.5,604.5c0,0,0.1-0.3,0.2-0.9s0.2-1.2,0.2-1.7c0-2-1-2.8-2.9-2.7c-1,0.1-2,1.2-2.9,3.5c-0.8,1.9-1.2,3.3-1.2,4.3
				c0,0.6,0.1,1.1,0.3,1.6c0.3,0.9,1,1.3,1.8,1.3c1.2,0,2.3-0.8,3.3-2.3C846.1,606.3,846.5,605.3,846.5,604.5z"/>
			<path class="st2" d="M864.5,602.4c0,1-0.5,1.9-1.6,2.7s-2.3,1.2-3.7,1.2c-0.4,0-1,0-1.8-0.1c-0.9-0.1-1.5-0.1-1.8-0.1
				c-0.5,0-1,0-1.4,0.1c-0.1,0.2-0.3,1-0.7,2.4c-0.4,1.6-0.6,2.7-0.6,3.2v2.1c0,0.1,0,0.3-0.1,0.5c-0.1,0.3-0.3,0.4-0.4,0.4
				c-0.5,0-0.9-0.2-1.2-0.5c-0.3-0.3-0.5-0.6-0.5-1s0.4-2.8,1.2-7.2c0.1-0.8,0.4-2,0.7-3.7c0-0.3,0.1-0.7,0.2-1.1
				c0.1-0.5,0.2-0.8,0.3-1.1c0.2-0.1,0.4-0.3,0.8-0.7c0,0,0.1,0,0.2,0c0.2,0,0.4,0.1,0.6,0.3s0.3,0.5,0.5,0.7c2-0.8,3.6-1.3,5-1.5
				c0.8-0.1,1.8,0.1,2.8,0.6C863.9,600.6,864.5,601.4,864.5,602.4z M861.8,602.3c0-0.7-0.7-1.1-2.1-1.1c-0.2,0-0.6,0.1-1.2,0.4
				c-0.7,0.4-1.1,0.6-1.2,0.6c-0.3,0.1-0.6,0.3-1,0.5c-0.5,0.3-0.8,0.6-0.8,0.9c0,0.3,0.2,0.5,0.7,0.5c1.1,0,2.2-0.1,3.2-0.3
				c0.9-0.2,1.6-0.4,1.9-0.6C861.7,603,861.8,602.7,861.8,602.3z"/>
			<path class="st2" d="M888.8,603.5c0,2-0.7,4-2.2,5.8c-1.6,2-3.5,3-5.8,3c-1.7,0-3.1-0.5-4.1-1.5c-0.9-1-1.4-2.3-1.4-3.9
				c0-0.6,0.2-1.7,0.7-3.3c0.6-1.9,1.2-3.4,2-4.6c1-1.6,2.1-2.3,3.2-2.3c2.2,0,3.9,0.5,5.3,1.7C888,599.6,888.8,601.3,888.8,603.5z
				 M884.6,604.5c0,0,0.1-0.3,0.2-0.9s0.2-1.2,0.2-1.7c0-2-1-2.8-2.9-2.7c-1,0.1-2,1.2-2.9,3.5c-0.8,1.9-1.2,3.3-1.2,4.3
				c0,0.6,0.1,1.1,0.3,1.6c0.3,0.9,1,1.3,1.8,1.3c1.2,0,2.3-0.8,3.3-2.3C884.2,606.3,884.6,605.3,884.6,604.5z"/>
			<path class="st2" d="M903,603c0,1-0.4,1.6-1.2,1.7c-0.3,0.1-1.2,0.2-2.7,0.4c-1.1,0.2-2.2,0.4-3.3,0.7c-0.5,0.1-0.9,0.2-1.3,0.3
				c-0.6,0.1-1,0.3-1.4,0.5c-0.4,0.2-0.8,0.9-1.1,2.1c-0.2,1-0.5,2-0.7,3c-0.3,1-0.7,1.5-1.2,1.5c-0.4,0-0.8-0.2-1-0.7
				c-0.2-0.4-0.3-0.7-0.3-1.1c0-0.7,0.3-1.6,0.9-2.8s0.9-1.8,0.9-2.1c0-0.1-0.1-0.4-0.4-0.7c-0.3-0.3-0.4-0.7-0.4-1
				c0-0.5,0.3-0.7,1-0.8c0.3,0,0.7-0.1,1.1-0.1c0.6-1.5,1.3-3,1.9-4.5c0.5-1,1-1.7,1.5-2s1.6-0.4,3.1-0.4c0,0,0.4,0,1.1-0.1
				c0.7-0.1,1.3-0.1,1.8-0.1c1.7,0,2.6,0.3,2.6,0.9c0,0.5-0.2,1-0.8,1.4s-1,0.6-1.4,0.6l-4.9,0.3c-0.8,0.1-1.4,0.5-1.8,1.3
				c-0.4,0.7-0.5,1.2-0.4,1.5l6.7-0.8C902.4,602.2,903,602.5,903,603z"/>
		</g>
	</g>
</g>
</svg>
