<?xml version="1.0" standalone="no"?><!-- Generator: Gravit.io --><svg xmlns="http://www.w3.org/2000/svg" xmlns:xlink="http://www.w3.org/1999/xlink" style="isolation:isolate" viewBox="190.679 40.933 496.172 775.576" width="496.172" height="775.576"><defs><clipPath id="_clipPath_EEyPuvKggjAeT9NR1GoJVXWiXEEJx36v"><rect x="190.679" y="40.933" width="496.172" height="775.576"/></clipPath></defs><g clip-path="url(#_clipPath_EEyPuvKggjAeT9NR1GoJVXWiXEEJx36v)"><linearGradient id="_lgradient_0" x1="0" y1="0.5" x2="1" y2="0.5" gradientTransform="matrix(140.702,0,0,114.172,382.166,655)" gradientUnits="userSpaceOnUse"><stop offset="0%" stop-opacity="1" style="stop-color:rgb(132,132,132)"/><stop offset="100%" stop-opacity="1" style="stop-color:rgb(0,0,0)"/></linearGradient><path d=" M 382.166 655 L 522.868 655 L 522.868 754.808 C 474.94 773.955 428.049 773.965 382.166 754.808 L 382.166 655 Z " fill="url(#_lgradient_0)" vector-effect="non-scaling-stroke" stroke-width="3" stroke="rgb(0,0,0)" stroke-linejoin="miter" stroke-linecap="square" stroke-miterlimit="3"/><linearGradient id="_lgradient_1" x1="0" y1="0.5" x2="1" y2="0.5" gradientTransform="matrix(140.702,0,0,61.591,382.166,724.012)" gradientUnits="userSpaceOnUse"><stop offset="0%" stop-opacity="1" style="stop-color:rgb(132,132,132)"/><stop offset="100%" stop-opacity="1" style="stop-color:rgb(0,0,0)"/></linearGradient><ellipse vector-effect="non-scaling-stroke" cx="452.51659416519" cy="754.8075440987025" rx="70.35095370421811" ry="30.79561072224419" fill="url(#_lgradient_1)" stroke-width="3" stroke="rgb(0,0,0)" stroke-linejoin="miter" stroke-linecap="square" stroke-miterlimit="3"/><linearGradient id="_lgradient_2" x1="0" y1="0.5" x2="1" y2="0.5" gradientTransform="matrix(137,0,0,49,384.179,704.808)" gradientUnits="userSpaceOnUse"><stop offset="0%" stop-opacity="1" style="stop-color:rgb(132,132,132)"/><stop offset="100%" stop-opacity="1" style="stop-color:rgb(0,0,0)"/></linearGradient><rect x="384.179" y="704.808" width="137" height="49" transform="matrix(1,0,0,1,0,0)" fill="url(#_lgradient_2)"/><linearGradient id="_lgradient_3" x1="0" y1="0.5" x2="1" y2="0.5" gradientTransform="matrix(140.702,0,0,114.172,214.642,322.86)" gradientUnits="userSpaceOnUse"><stop offset="0%" stop-opacity="1" style="stop-color:rgb(132,132,132)"/><stop offset="100%" stop-opacity="1" style="stop-color:rgb(0,0,0)"/></linearGradient><path d=" M 214.642 322.86 L 355.344 322.86 L 355.344 422.667 C 307.416 441.814 260.526 441.824 214.642 422.667 L 214.642 322.86 Z " fill="url(#_lgradient_3)" vector-effect="non-scaling-stroke" stroke-width="3" stroke="rgb(0,0,0)" stroke-linejoin="miter" stroke-linecap="square" stroke-miterlimit="3"/><linearGradient id="_lgradient_4" x1="0" y1="0.5" x2="1" y2="0.5" gradientTransform="matrix(192,0,0,92.169,192.179,276.775)" gradientUnits="userSpaceOnUse"><stop offset="0%" stop-opacity="1" style="stop-color:rgb(111,109,109)"/><stop offset="100%" stop-opacity="1" style="stop-color:rgb(0,0,0)"/></linearGradient><ellipse vector-effect="non-scaling-stroke" cx="288.179403769357" cy="322.85978566865276" rx="96" ry="46.084732798010805" fill="url(#_lgradient_4)" stroke-width="3" stroke="rgb(0,0,0)" stroke-linejoin="miter" stroke-linecap="square" stroke-miterlimit="3"/><linearGradient id="_lgradient_5" x1="0" y1="0.5" x2="1" y2="0.5" gradientTransform="matrix(182.165,0,0,91,363.448,618)" gradientUnits="userSpaceOnUse"><stop offset="0%" stop-opacity="1" style="stop-color:rgb(111,109,109)"/><stop offset="100%" stop-opacity="1" style="stop-color:rgb(0,0,0)"/></linearGradient><ellipse vector-effect="non-scaling-stroke" cx="454.5303574735751" cy="663.5" rx="91.08260676617692" ry="45.5" fill="url(#_lgradient_5)" stroke-width="3" stroke="rgb(0,0,0)" stroke-linejoin="miter" stroke-linecap="square" stroke-miterlimit="3"/><ellipse vector-effect="non-scaling-stroke" cx="290.15611459288294" cy="322.74907794313543" rx="70.35095370421811" ry="31.918251824219624" fill="rgb(28,27,27)" stroke-width="3" stroke="rgb(0,0,0)" stroke-linejoin="miter" stroke-linecap="square" stroke-miterlimit="3"/><ellipse vector-effect="non-scaling-stroke" cx="454.5303574735751" cy="663.5" rx="70.35095370421811" ry="31.918251824219624" fill="rgb(28,27,27)" stroke-width="3" stroke="rgb(0,0,0)" stroke-linejoin="miter" stroke-linecap="square" stroke-miterlimit="3"/><path d=" M 295.816 287.15 C 295.959 286.153 296.613 285.416 297.276 285.505 C 297.939 285.594 298.361 286.476 298.218 287.473 C 298.075 288.47 297.422 289.207 296.759 289.118 C 296.096 289.029 295.674 288.148 295.816 287.15 Z " fill="rgb(255,255,255)"/><path d=" M 237.913 343.468 C 240.214 324.415 260.126 310.39 283.029 311.967 C 306.116 313.556 323.67 330.408 322.611 349.76 C 310.35 351.978 295.978 352.76 280.731 351.71 C 264.736 350.609 250.015 347.647 237.913 343.468 Z " fill-rule="evenodd" fill="rgb(217,196,208)" vector-effect="non-scaling-stroke" stroke-width="2" stroke="rgb(0,0,0)" stroke-linejoin="miter" stroke-linecap="square" stroke-miterlimit="3"/><g><linearGradient id="_lgradient_6" x1="0" y1="0.5" x2="1" y2="0.5" gradientTransform="matrix(62.798,-67.234,54.079,50.512,212.235,309.987)" gradientUnits="userSpaceOnUse"><stop offset="7.391304347826087%" stop-opacity="1" style="stop-color:rgb(255,234,246)"/><stop offset="98.26086956521739%" stop-opacity="1" style="stop-color:rgb(253,194,228)"/></linearGradient><path d=" M 239.275 335.242 C 224.351 321.303 226.305 294.923 243.634 276.37 C 260.964 257.816 287.15 254.07 302.073 268.009 C 316.997 281.948 315.043 308.328 297.714 326.881 C 280.384 345.435 254.199 349.181 239.275 335.242 Z " fill="url(#_lgradient_6)" vector-effect="non-scaling-stroke" stroke-width="2" stroke="rgb(0,0,0)" stroke-linejoin="miter" stroke-linecap="square" stroke-miterlimit="3"/><linearGradient id="_lgradient_7" x1="0" y1="0.5" x2="1" y2="0.5" gradientTransform="matrix(26.987,-0.829,3.437,111.947,241.429,175.416)" gradientUnits="userSpaceOnUse"><stop offset="0%" stop-opacity="1" style="stop-color:rgb(247,218,235)"/><stop offset="0%" stop-opacity="1" style="stop-color:rgb(242,220,233)"/><stop offset="97.82608695652173%" stop-opacity="1" style="stop-color:rgb(253,203,232)"/></linearGradient><path d=" M 243.148 231.389 C 242.199 200.497 247.476 175.23 254.923 175.002 C 262.37 174.773 269.187 199.668 270.135 230.561 C 271.084 261.454 265.807 286.72 258.36 286.949 C 250.913 287.177 244.096 262.282 243.148 231.389 Z " fill="url(#_lgradient_7)" vector-effect="non-scaling-stroke" stroke-width="2" stroke="rgb(0,0,0)" stroke-linejoin="miter" stroke-linecap="square" stroke-miterlimit="3"/><linearGradient id="_lgradient_8" x1="0" y1="0.5" x2="1" y2="0.5" gradientTransform="matrix(17.596,-0.54,4.174,135.936,246.647,192.264)" gradientUnits="userSpaceOnUse"><stop offset="0%" stop-opacity="1" style="stop-color:rgb(234,202,221)"/><stop offset="99.1304347826087%" stop-opacity="1" style="stop-color:rgb(234,165,203)"/></linearGradient><path d=" M 247.782 229.246 C 247.155 208.835 250.589 192.143 255.445 191.994 C 260.3 191.844 264.751 208.295 265.378 228.706 C 266.005 249.117 264.474 327.78 259.618 327.929 C 254.763 328.079 248.409 249.657 247.782 229.246 Z " fill="url(#_lgradient_8)"/><linearGradient id="_lgradient_9" x1="0" y1="0.5" x2="1" y2="0.5" gradientTransform="matrix(26.964,6.173,-23.448,102.41,300.268,184.088)" gradientUnits="userSpaceOnUse"><stop offset="0%" stop-opacity="1" style="stop-color:rgb(247,218,235)"/><stop offset="0%" stop-opacity="1" style="stop-color:rgb(242,220,233)"/><stop offset="97.82608695652173%" stop-opacity="1" style="stop-color:rgb(253,203,232)"/></linearGradient><path d=" M 285.076 250.442 C 292.213 219.267 304.771 185.119 312.211 186.822 C 319.651 188.525 319.346 225.488 312.036 256.615 C 304.293 289.592 296.469 290.997 289.029 289.293 C 281.589 287.59 277.938 281.617 285.076 250.442 Z " fill="url(#_lgradient_9)" vector-effect="non-scaling-stroke" stroke-width="2" stroke="rgb(0,0,0)" stroke-linejoin="miter" stroke-linecap="square" stroke-miterlimit="3"/><linearGradient id="_lgradient_10" x1="0" y1="0.5" x2="1" y2="0.5" gradientTransform="matrix(17.965,4.225,-28.77,122.345,299.879,203.458)" gradientUnits="userSpaceOnUse"><stop offset="0%" stop-opacity="1" style="stop-color:rgb(234,189,214)"/><stop offset="100%" stop-opacity="1" style="stop-color:rgb(234,168,205)"/></linearGradient><path d=" M 292.052 236.743 C 296.372 218.372 303.904 204.404 308.862 205.57 C 313.82 206.736 314.337 222.597 310.017 240.968 C 305.697 259.338 285.049 329.081 280.091 327.915 C 275.134 326.749 287.732 255.113 292.052 236.743 Z " fill="url(#_lgradient_10)"/><linearGradient id="_lgradient_11" x1="0" y1="0.5" x2="1" y2="0.5" gradientTransform="matrix(54.312,-58.148,51.216,47.837,215.934,308.964)" gradientUnits="userSpaceOnUse"><stop offset="7.391304347826087%" stop-opacity="1" style="stop-color:rgb(255,234,246)"/><stop offset="98.26086956521739%" stop-opacity="1" style="stop-color:rgb(253,194,228)"/></linearGradient><path d=" M 241.542 332.882 C 227.408 319.681 228.102 295.936 243.09 279.89 C 258.077 263.844 281.72 261.534 295.853 274.735 C 309.987 287.936 309.293 311.681 294.305 327.727 C 279.317 343.773 255.675 346.083 241.542 332.882 Z " fill="url(#_lgradient_11)"/><path d=" M 234.228 294.802 C 235.116 291.248 237.26 288.627 239.012 288.951 C 240.765 289.276 241.467 292.425 240.579 295.979 C 239.692 299.532 237.548 302.154 235.795 301.83 C 234.042 301.505 233.34 298.356 234.228 294.802 Z " fill="rgb(47,46,46)"/><path d=" M 268.982 301.802 C 269.911 297.665 273.116 294.833 276.134 295.483 C 279.152 296.133 280.849 300.02 279.92 304.158 C 278.991 308.295 275.786 311.126 272.768 310.476 C 269.75 309.826 268.054 305.94 268.982 301.802 Z " fill="rgb(47,46,46)"/><path d=" M 231.885 314.461 C 232.436 312.602 235.046 313.006 237.692 313.789 C 240.338 314.573 243.526 315.869 242.975 317.729 C 242.424 319.588 238.08 322.773 235.434 321.99 C 232.787 321.206 231.335 316.321 231.885 314.461 Z " fill="rgb(74,71,71)"/><path d=" M 238.657 292.566 C 238.78 291.86 239.13 291.314 239.44 291.348 C 239.749 291.383 239.901 291.984 239.779 292.69 C 239.656 293.396 239.305 293.941 238.996 293.907 C 238.686 293.873 238.534 293.272 238.657 292.566 Z " fill="rgb(255,255,255)"/><path d=" M 276.492 299.657 C 276.615 298.951 277.268 298.439 277.951 298.515 C 278.634 298.59 279.089 299.225 278.966 299.931 C 278.844 300.637 278.19 301.149 277.507 301.073 C 276.824 300.998 276.369 300.363 276.492 299.657 Z " fill="rgb(255,255,255)"/></g><g><g><linearGradient id="_lgradient_12" x1="0" y1="0.5" x2="1" y2="0.5" gradientTransform="matrix(58.885,-63.044,60.657,56.655,391.839,665.569)" gradientUnits="userSpaceOnUse"><stop offset="7.391304347826087%" stop-opacity="1" style="stop-color:rgb(255,234,246)"/><stop offset="98.26086956521739%" stop-opacity="1" style="stop-color:rgb(253,194,228)"/></linearGradient><path d=" M 422.167 693.897 C 405.429 678.262 405.032 651.445 421.282 634.047 C 437.531 616.65 464.314 615.218 481.052 630.853 C 497.791 646.487 498.188 673.305 481.938 690.702 C 465.688 708.1 438.906 709.531 422.167 693.897 Z " fill="url(#_lgradient_12)" vector-effect="non-scaling-stroke" stroke-width="2" stroke="rgb(0,0,0)" stroke-linejoin="miter" stroke-linecap="square" stroke-miterlimit="3"/><linearGradient id="_lgradient_13" x1="0" y1="0.5" x2="1" y2="0.5" gradientTransform="matrix(26.702,-3.999,16.589,110.765,400.937,543.797)" gradientUnits="userSpaceOnUse"><stop offset="0%" stop-opacity="1" style="stop-color:rgb(247,218,235)"/><stop offset="0%" stop-opacity="1" style="stop-color:rgb(242,220,233)"/><stop offset="97.82608695652173%" stop-opacity="1" style="stop-color:rgb(253,203,232)"/></linearGradient><path d=" M 409.231 599.179 C 404.653 568.613 406.919 542.901 414.288 541.797 C 421.656 540.694 431.355 564.614 435.933 595.18 C 440.511 625.747 438.245 651.459 430.877 652.562 C 423.508 653.666 413.809 629.746 409.231 599.179 Z " fill="url(#_lgradient_13)" vector-effect="non-scaling-stroke" stroke-width="2" stroke="rgb(0,0,0)" stroke-linejoin="miter" stroke-linecap="square" stroke-miterlimit="3"/><linearGradient id="_lgradient_14" x1="0" y1="0.5" x2="1" y2="0.5" gradientTransform="matrix(17.41,-2.607,20.144,134.5,408.101,559.914)" gradientUnits="userSpaceOnUse"><stop offset="0%" stop-opacity="1" style="stop-color:rgb(234,202,221)"/><stop offset="99.1304347826087%" stop-opacity="1" style="stop-color:rgb(234,165,203)"/></linearGradient><path d=" M 413.581 596.506 C 410.556 576.31 412.001 559.33 416.806 558.61 C 421.61 557.89 427.966 573.703 430.991 593.898 C 434.016 614.094 441.754 692.39 436.949 693.11 C 432.145 693.829 416.605 616.701 413.581 596.506 Z " fill="url(#_lgradient_14)"/><linearGradient id="_lgradient_15" x1="0" y1="0.5" x2="1" y2="0.5" gradientTransform="matrix(26.964,6.173,-23.448,102.41,478.451,539.088)" gradientUnits="userSpaceOnUse"><stop offset="0%" stop-opacity="1" style="stop-color:rgb(247,218,235)"/><stop offset="0%" stop-opacity="1" style="stop-color:rgb(242,220,233)"/><stop offset="97.82608695652173%" stop-opacity="1" style="stop-color:rgb(253,203,232)"/></linearGradient><path d=" M 463.259 605.442 C 470.396 574.267 482.954 540.119 490.394 541.822 C 497.834 543.525 497.529 580.488 490.219 611.615 C 482.476 644.592 474.652 645.997 467.212 644.293 C 459.772 642.59 456.121 636.617 463.259 605.442 Z " fill="url(#_lgradient_15)" vector-effect="non-scaling-stroke" stroke-width="2" stroke="rgb(0,0,0)" stroke-linejoin="miter" stroke-linecap="square" stroke-miterlimit="3"/><linearGradient id="_lgradient_16" x1="0" y1="0.5" x2="1" y2="0.5" gradientTransform="matrix(17.965,4.225,-28.77,122.345,478.062,558.458)" gradientUnits="userSpaceOnUse"><stop offset="0%" stop-opacity="1" style="stop-color:rgb(234,189,214)"/><stop offset="100%" stop-opacity="1" style="stop-color:rgb(234,168,205)"/></linearGradient><path d=" M 470.235 591.743 C 474.555 573.372 482.087 559.404 487.045 560.57 C 492.002 561.736 492.52 577.597 488.2 595.968 C 483.88 614.338 463.232 684.081 458.274 682.915 C 453.317 681.749 465.915 610.113 470.235 591.743 Z " fill="url(#_lgradient_16)"/><linearGradient id="_lgradient_17" x1="0" y1="0.5" x2="1" y2="0.5" gradientTransform="matrix(-2.011,-72.28,77.371,-2.153,413.93,699.223)" gradientUnits="userSpaceOnUse"><stop offset="7.391304347826087%" stop-opacity="1" style="stop-color:rgb(255,234,246)"/><stop offset="98.26086956521739%" stop-opacity="1" style="stop-color:rgb(253,194,228)"/></linearGradient><path d=" M 452.616 698.147 C 431.265 698.741 413.479 683.03 412.924 663.083 C 412.369 643.137 429.253 626.461 450.604 625.867 C 471.955 625.273 489.74 640.984 490.295 660.93 C 490.851 680.876 473.967 697.552 452.616 698.147 Z " fill="url(#_lgradient_17)"/><path d=" M 460.938 657.937 C 461.008 653.697 463.571 650.274 466.658 650.298 C 469.746 650.322 472.196 653.783 472.126 658.023 C 472.056 662.263 469.493 665.686 466.405 665.662 C 463.318 665.638 460.868 662.176 460.938 657.937 Z " fill="rgb(47,46,46)"/><path d=" M 442.278 673.781 C 442.281 671.841 444.899 671.492 447.658 671.496 C 450.418 671.5 453.842 671.843 453.839 673.782 C 453.836 675.722 450.568 680.004 447.808 680 C 445.049 679.996 442.276 675.72 442.278 673.781 Z " fill="rgb(74,71,71)"/><path d=" M 467.856 654.312 C 467.832 653.596 468.369 652.962 469.053 652.897 C 469.737 652.833 470.311 653.362 470.334 654.078 C 470.357 654.794 469.821 655.428 469.137 655.493 C 468.453 655.557 467.879 655.028 467.856 654.312 Z " fill="rgb(255,255,255)"/><path d=" M 425.243 657.937 C 425.313 653.697 427.876 650.274 430.964 650.298 C 434.051 650.322 436.501 653.783 436.431 658.023 C 436.361 662.263 433.798 665.686 430.711 665.662 C 427.624 665.638 425.174 662.176 425.243 657.937 Z " fill="rgb(47,46,46)"/><path d=" M 432.161 654.312 C 432.138 653.596 432.674 652.962 433.358 652.897 C 434.042 652.833 434.616 653.362 434.64 654.078 C 434.663 654.794 434.127 655.428 433.443 655.493 C 432.759 655.557 432.185 655.028 432.161 654.312 Z " fill="rgb(255,255,255)"/></g></g><linearGradient id="_lgradient_18" x1="0" y1="0.5" x2="1" y2="0.5" gradientTransform="matrix(140.702,0,0,61.591,214.642,391.872)" gradientUnits="userSpaceOnUse"><stop offset="0%" stop-opacity="1" style="stop-color:rgb(132,132,132)"/><stop offset="100%" stop-opacity="1" style="stop-color:rgb(0,0,0)"/></linearGradient><ellipse vector-effect="non-scaling-stroke" cx="284.99330498871615" cy="422.6673297673551" rx="70.35095370421811" ry="30.79561072224419" fill="url(#_lgradient_18)" stroke-width="3" stroke="rgb(0,0,0)" stroke-linejoin="miter" stroke-linecap="square" stroke-miterlimit="3"/><linearGradient id="_lgradient_19" x1="0" y1="0.5" x2="1" y2="0.5" gradientTransform="matrix(137,0,0,49,216.656,372.667)" gradientUnits="userSpaceOnUse"><stop offset="0%" stop-opacity="1" style="stop-color:rgb(132,132,132)"/><stop offset="100%" stop-opacity="1" style="stop-color:rgb(0,0,0)"/></linearGradient><rect x="216.656" y="372.667" width="137" height="49" transform="matrix(1,0,0,1,0,0)" fill="url(#_lgradient_19)"/><g><linearGradient id="_lgradient_20" x1="0.40438978544282556" y1="0.3540127465685039" x2="1.1003376641214748" y2="0.7089083380540184" gradientTransform="matrix(-31.882,4.678,-4.905,-33.43,282.566,288.313)" gradientUnits="userSpaceOnUse"><stop offset="0%" stop-opacity="1" style="stop-color:rgb(255,81,6)"/><stop offset="100%" stop-opacity="1" style="stop-color:rgb(255,170,0)"/></linearGradient><path d=" M 251.031 272.127 C 256.354 268.765 253.847 270.565 258.243 267.547 C 259.037 266.999 255.886 263.161 255.211 260.025 C 254.945 258.773 255.442 258.701 255.711 258.386 C 256.042 258.401 256.779 257.31 257.801 258.529 C 259.795 260.901 261.388 266.328 261.905 265.958 C 266.044 263.004 273.331 261.439 278.912 266.036 C 275.604 268.144 269.803 269.759 271.884 269.876 C 277.594 272.709 277.667 274.602 280.975 277.47 C 276.952 279.055 273.189 279.751 270.342 278.679 C 273.593 286.758 272.088 287.489 271.185 289.983 C 268.891 289.347 267.748 288.932 263.288 282.231 C 262.44 286.314 260.186 287.849 256.834 290.003 C 255.987 285.993 253.973 285.539 256.468 277.466 C 246.502 282.583 251.794 279.868 248.968 281.296 C 248.908 279.225 248.643 273.319 251.651 271.827 L 251.031 272.127 Z " fill="url(#_lgradient_20)" vector-effect="non-scaling-stroke" stroke-width="1.735" stroke="rgb(0,0,0)" stroke-linejoin="miter" stroke-linecap="butt" stroke-miterlimit="4"/></g><g><ellipse vector-effect="non-scaling-stroke" cx="593.9238891462469" cy="224.86530398705185" rx="83.50000000000003" ry="42.54420107351784" fill="rgb(28,27,27)" stroke-width="3" stroke="rgb(0,0,0)" stroke-linejoin="miter" stroke-linecap="square" stroke-miterlimit="3"/><linearGradient id="_lgradient_21" x1="0" y1="0.5" x2="1" y2="0.5" gradientTransform="matrix(140.14,0,0,94.791,521.894,233.538)" gradientUnits="userSpaceOnUse"><stop offset="0%" stop-opacity="1" style="stop-color:rgb(132,132,132)"/><stop offset="100%" stop-opacity="1" style="stop-color:rgb(0,0,0)"/></linearGradient><path d=" M 521.894 236.538 L 662.033 233.538 L 656.894 313.455 C 608.966 332.602 572.777 333.612 526.894 314.455 L 521.894 236.538 Z " fill="url(#_lgradient_21)" vector-effect="non-scaling-stroke" stroke-width="3" stroke="rgb(0,0,0)" stroke-linejoin="miter" stroke-linecap="square" stroke-miterlimit="3"/><linearGradient id="_lgradient_22" x1="0" y1="0.5" x2="1" y2="0.5" gradientTransform="matrix(-51.378,-95.049,82.207,-44.436,588.292,314.225)" gradientUnits="userSpaceOnUse"><stop offset="0%" stop-opacity="1" style="stop-color:rgb(121,87,106)"/><stop offset="51.30434782608696%" stop-opacity="1" style="stop-color:rgb(254,213,237)"/></linearGradient><path d=" M 629.395 292.007 C 606.71 304.269 576.781 292.93 562.603 266.7 C 548.425 240.471 555.332 209.22 578.018 196.958 C 600.703 184.696 630.632 196.035 644.81 222.264 C 658.988 248.494 652.081 279.744 629.395 292.007 Z " fill="url(#_lgradient_22)" vector-effect="non-scaling-stroke" stroke-width="2" stroke="rgb(0,0,0)" stroke-linejoin="miter" stroke-linecap="square" stroke-miterlimit="3"/><linearGradient id="_lgradient_23" x1="0" y1="0.5" x2="1" y2="0.5" gradientTransform="matrix(185.457,0,0,111.169,496.894,166.369)" gradientUnits="userSpaceOnUse"><stop offset="0%" stop-opacity="1" style="stop-color:rgb(111,109,109)"/><stop offset="100%" stop-opacity="1" style="stop-color:rgb(0,0,0)"/></linearGradient><path d=" M 496.894 221.953 C 496.894 191.275 538.444 166.369 589.622 166.369 C 640.801 166.369 682.351 191.275 682.351 221.953 C 682.351 252.631 640.801 277.538 589.622 277.538 C 538.444 277.538 496.894 252.631 496.894 221.953 Z  M 517.977 222.419 C 517.977 200.942 549.5 183.505 588.328 183.505 C 627.155 183.505 658.679 200.942 658.679 222.419 C 658.679 243.896 627.155 261.333 588.328 261.333 C 549.5 261.333 517.977 243.896 517.977 222.419 Z " fill-rule="evenodd" fill="url(#_lgradient_23)" vector-effect="non-scaling-stroke" stroke-width="3" stroke="rgb(0,0,0)" stroke-linejoin="miter" stroke-linecap="square" stroke-miterlimit="3"/><path d=" M 602.505 178.938 C 602.648 177.941 603.302 177.203 603.965 177.292 C 604.628 177.381 605.05 178.263 604.907 179.26 C 604.765 180.257 604.111 180.994 603.448 180.905 C 602.785 180.816 602.363 179.935 602.505 178.938 Z " fill="rgb(255,255,255)"/><g><linearGradient id="_lgradient_24" x1="0" y1="0.5" x2="1" y2="0.5" gradientTransform="matrix(62.798,-67.234,54.079,50.512,530.679,192.92)" gradientUnits="userSpaceOnUse"><stop offset="7.391304347826087%" stop-opacity="1" style="stop-color:rgb(255,234,246)"/><stop offset="98.26086956521739%" stop-opacity="1" style="stop-color:rgb(253,194,228)"/></linearGradient><path d=" M 557.718 218.176 C 542.795 204.236 544.748 177.857 562.078 159.303 C 579.408 140.749 605.593 137.003 620.517 150.942 C 635.44 164.881 633.487 191.261 616.157 209.815 C 598.828 228.368 572.642 232.115 557.718 218.176 Z " fill="url(#_lgradient_24)" vector-effect="non-scaling-stroke" stroke-width="2" stroke="rgb(0,0,0)" stroke-linejoin="miter" stroke-linecap="square" stroke-miterlimit="3"/><linearGradient id="_lgradient_25" x1="0" y1="0.5" x2="1" y2="0.5" gradientTransform="matrix(26.987,-0.829,3.437,111.947,559.873,58.349)" gradientUnits="userSpaceOnUse"><stop offset="0%" stop-opacity="1" style="stop-color:rgb(247,218,235)"/><stop offset="0%" stop-opacity="1" style="stop-color:rgb(242,220,233)"/><stop offset="97.82608695652173%" stop-opacity="1" style="stop-color:rgb(253,203,232)"/></linearGradient><path d=" M 561.591 114.323 C 560.643 83.43 565.919 58.163 573.366 57.935 C 580.814 57.706 587.63 82.601 588.579 113.494 C 589.527 144.387 584.251 169.653 576.804 169.882 C 569.356 170.111 562.54 145.215 561.591 114.323 Z " fill="url(#_lgradient_25)" vector-effect="non-scaling-stroke" stroke-width="2" stroke="rgb(0,0,0)" stroke-linejoin="miter" stroke-linecap="square" stroke-miterlimit="3"/><linearGradient id="_lgradient_26" x1="0" y1="0.5" x2="1" y2="0.5" gradientTransform="matrix(17.596,-0.54,4.174,135.936,565.09,75.197)" gradientUnits="userSpaceOnUse"><stop offset="0%" stop-opacity="1" style="stop-color:rgb(234,202,221)"/><stop offset="99.1304347826087%" stop-opacity="1" style="stop-color:rgb(234,165,203)"/></linearGradient><path d=" M 566.226 112.179 C 565.599 91.768 569.032 75.076 573.888 74.927 C 578.744 74.778 583.195 91.228 583.822 111.639 C 584.448 132.05 582.918 210.714 578.062 210.863 C 573.206 211.012 566.852 132.591 566.226 112.179 Z " fill="url(#_lgradient_26)"/><linearGradient id="_lgradient_27" x1="0" y1="0.5" x2="1" y2="0.5" gradientTransform="matrix(26.964,6.173,-23.448,102.41,618.711,67.021)" gradientUnits="userSpaceOnUse"><stop offset="0%" stop-opacity="1" style="stop-color:rgb(247,218,235)"/><stop offset="0%" stop-opacity="1" style="stop-color:rgb(242,220,233)"/><stop offset="97.82608695652173%" stop-opacity="1" style="stop-color:rgb(253,203,232)"/></linearGradient><path d=" M 603.519 133.375 C 610.657 102.2 623.214 68.052 630.654 69.755 C 638.094 71.459 637.789 108.421 630.48 139.548 C 622.736 172.525 614.912 173.93 607.472 172.226 C 600.032 170.523 596.381 164.55 603.519 133.375 Z " fill="url(#_lgradient_27)" vector-effect="non-scaling-stroke" stroke-width="2" stroke="rgb(0,0,0)" stroke-linejoin="miter" stroke-linecap="square" stroke-miterlimit="3"/><linearGradient id="_lgradient_28" x1="0" y1="0.5" x2="1" y2="0.5" gradientTransform="matrix(17.965,4.225,-28.77,122.345,618.322,86.391)" gradientUnits="userSpaceOnUse"><stop offset="0%" stop-opacity="1" style="stop-color:rgb(234,189,214)"/><stop offset="100%" stop-opacity="1" style="stop-color:rgb(234,168,205)"/></linearGradient><path d=" M 610.495 119.676 C 614.815 101.306 622.348 87.338 627.305 88.503 C 632.263 89.669 632.781 105.53 628.461 123.901 C 624.141 142.271 603.493 212.014 598.535 210.848 C 593.577 209.683 606.175 138.047 610.495 119.676 Z " fill="url(#_lgradient_28)"/><linearGradient id="_lgradient_29" x1="0" y1="0.5" x2="1" y2="0.5" gradientTransform="matrix(54.312,-58.148,51.216,47.837,534.377,191.897)" gradientUnits="userSpaceOnUse"><stop offset="7.391304347826087%" stop-opacity="1" style="stop-color:rgb(255,234,246)"/><stop offset="98.26086956521739%" stop-opacity="1" style="stop-color:rgb(253,194,228)"/></linearGradient><path d=" M 559.985 215.816 C 545.852 202.615 546.545 178.87 561.533 162.823 C 576.521 146.777 600.163 144.467 614.297 157.668 C 628.43 170.869 627.736 194.614 612.749 210.66 C 597.761 226.707 574.118 229.017 559.985 215.816 Z " fill="url(#_lgradient_29)"/><path d=" M 552.671 177.735 C 553.559 174.182 555.703 171.56 557.456 171.884 C 559.208 172.209 559.911 175.358 559.023 178.912 C 558.135 182.466 555.991 185.087 554.239 184.763 C 552.486 184.438 551.784 181.289 552.671 177.735 Z " fill="rgb(47,46,46)"/><path d=" M 587.426 184.735 C 588.355 180.598 591.559 177.766 594.578 178.416 C 597.596 179.066 599.292 182.953 598.363 187.091 C 597.434 191.228 594.23 194.059 591.212 193.409 C 588.193 192.759 586.497 188.873 587.426 184.735 Z " fill="rgb(47,46,46)"/><path d=" M 550.329 197.395 C 550.879 195.535 553.489 195.939 556.135 196.723 C 558.782 197.506 561.969 198.802 561.418 200.662 C 560.868 202.521 556.523 205.706 553.877 204.923 C 551.231 204.14 549.778 199.254 550.329 197.395 Z " fill="rgb(74,71,71)"/><path d=" M 557.1 175.499 C 557.223 174.793 557.574 174.247 557.883 174.282 C 558.193 174.316 558.345 174.917 558.222 175.623 C 558.1 176.329 557.749 176.875 557.439 176.84 C 557.13 176.806 556.978 176.205 557.1 175.499 Z " fill="rgb(255,255,255)"/><path d=" M 594.935 182.59 C 595.058 181.884 595.712 181.372 596.395 181.448 C 597.077 181.523 597.532 182.158 597.41 182.864 C 597.287 183.57 596.633 184.082 595.95 184.006 C 595.268 183.931 594.813 183.296 594.935 182.59 Z " fill="rgb(255,255,255)"/></g><linearGradient id="_lgradient_30" x1="0" y1="0.5" x2="1" y2="0.5" gradientTransform="matrix(135.14,0,0,38.879,524.324,293.13)" gradientUnits="userSpaceOnUse"><stop offset="0%" stop-opacity="1" style="stop-color:rgb(132,132,132)"/><stop offset="100%" stop-opacity="1" style="stop-color:rgb(0,0,0)"/></linearGradient><ellipse vector-effect="non-scaling-stroke" cx="591.8935316726718" cy="312.5691953590979" rx="67.56993991553156" ry="19.43944128684541" fill="url(#_lgradient_30)" stroke-width="3" stroke="rgb(0,0,0)" stroke-linejoin="miter" stroke-linecap="square" stroke-miterlimit="3"/><linearGradient id="_lgradient_31" x1="0" y1="0.5" x2="1" y2="0.5" gradientTransform="matrix(134.897,0,0,53.949,524.894,260.505)" gradientUnits="userSpaceOnUse"><stop offset="0%" stop-opacity="1" style="stop-color:rgb(132,132,132)"/><stop offset="100%" stop-opacity="1" style="stop-color:rgb(0,0,0)"/></linearGradient><path d=" M 524.894 266.153 L 524.894 265.538 C 538.794 268.522 550.601 274.407 561.929 276 C 589.264 279.65 609.567 277.909 622.208 275 C 645.944 268.848 659.111 261.342 658.997 260.505 C 662.216 262.063 654.501 292.301 655.997 293.853 L 655.997 314.455 L 527.894 309.538 L 524.894 266.153 Z " fill="url(#_lgradient_31)"/><linearGradient id="_lgradient_32" x1="0" y1="0.5" x2="1" y2="0.5" gradientTransform="matrix(51.407,-41.583,18.164,22.456,504.393,257.777)" gradientUnits="userSpaceOnUse"><stop offset="1.3043478260869565%" stop-opacity="1" style="stop-color:rgb(255,255,255)"/><stop offset="36.52173913043478%" stop-opacity="1" style="stop-color:rgb(240,203,225)"/></linearGradient><path d=" M 513.475 269.005 C 508.462 262.808 516.219 248.211 530.785 236.428 C 541.801 227.518 551.857 220.424 557.894 220.538 C 559.839 220.575 563.672 226.027 564.894 227.538 C 569.906 233.735 563.516 247.101 548.95 258.884 C 534.383 270.667 518.488 275.202 513.475 269.005 Z " fill="url(#_lgradient_32)" vector-effect="non-scaling-stroke" stroke-width="2" stroke="rgb(0,0,0)" stroke-linejoin="miter" stroke-linecap="square" stroke-miterlimit="3"/><linearGradient id="_lgradient_33" x1="0" y1="0.5" x2="1" y2="0.5" gradientTransform="matrix(-13.287,-59.368,27.274,-6.104,622.071,283.115)" gradientUnits="userSpaceOnUse"><stop offset="2.1739130434782608%" stop-opacity="1" style="stop-color:rgb(255,255,255)"/><stop offset="56.52173913043478%" stop-opacity="1" style="stop-color:rgb(240,203,225)"/><stop offset="98.69565217391305%" stop-opacity="1" style="stop-color:rgb(240,203,225)"/></linearGradient><path d=" M 635.708 280.063 C 628.182 281.748 619.094 269.814 615.427 253.431 C 611.761 237.048 614.894 222.379 622.421 220.695 C 629.947 219.01 639.035 230.944 642.701 247.327 C 646.368 263.71 643.235 278.379 635.708 280.063 Z " fill="url(#_lgradient_33)" vector-effect="non-scaling-stroke" stroke-width="2" stroke="rgb(0,0,0)" stroke-linejoin="miter" stroke-linecap="square" stroke-miterlimit="3"/><g><linearGradient id="_lgradient_34" x1="0.40438978544282556" y1="0.3540127465685039" x2="1.1003376641214748" y2="0.7089083380540184" gradientTransform="matrix(-31.882,4.678,-4.905,-33.43,607.968,166.689)" gradientUnits="userSpaceOnUse"><stop offset="0%" stop-opacity="1" style="stop-color:rgb(255,81,6)"/><stop offset="100%" stop-opacity="1" style="stop-color:rgb(255,170,0)"/></linearGradient><path d=" M 576.433 150.503 C 581.755 147.141 579.248 148.941 583.644 145.923 C 584.438 145.376 581.288 141.537 580.613 138.401 C 580.347 137.149 580.843 137.077 581.112 136.762 C 581.443 136.777 582.18 135.686 583.202 136.905 C 585.196 139.277 586.789 144.704 587.307 144.334 C 591.445 141.38 598.732 139.815 604.314 144.412 C 601.005 146.52 595.204 148.135 597.286 148.253 C 602.996 151.085 603.068 152.978 606.377 155.847 C 602.353 157.431 598.591 158.127 595.743 157.055 C 598.994 165.134 597.489 165.865 596.587 168.359 C 594.293 167.723 593.15 167.308 588.689 160.607 C 587.842 164.691 585.587 166.225 582.235 168.379 C 581.389 164.369 579.375 163.915 581.87 155.842 C 571.904 160.959 577.195 158.244 574.37 159.672 C 574.31 157.601 574.044 151.695 577.052 150.203 L 576.433 150.503 Z " fill="url(#_lgradient_34)" vector-effect="non-scaling-stroke" stroke-width="1.735" stroke="rgb(0,0,0)" stroke-linejoin="miter" stroke-linecap="butt" stroke-miterlimit="4"/></g></g><g><linearGradient id="_lgradient_35" x1="0.40438978544282556" y1="0.3540127465685039" x2="1.1003376641214748" y2="0.7089083380540184" gradientTransform="matrix(-31.882,4.678,-4.905,-33.43,468.628,636.322)" gradientUnits="userSpaceOnUse"><stop offset="0%" stop-opacity="1" style="stop-color:rgb(255,81,6)"/><stop offset="100%" stop-opacity="1" style="stop-color:rgb(255,170,0)"/></linearGradient><path d=" M 437.093 620.136 C 442.416 616.774 439.909 618.574 444.305 615.556 C 445.099 615.009 441.948 611.17 441.274 608.034 C 441.008 606.782 441.504 606.71 441.773 606.395 C 442.104 606.41 442.841 605.319 443.863 606.538 C 445.857 608.91 447.45 614.337 447.967 613.967 C 452.106 611.013 459.393 609.448 464.974 614.045 C 461.666 616.153 455.865 617.768 457.947 617.886 C 463.656 620.718 463.729 622.611 467.037 625.48 C 463.014 627.064 459.251 627.76 456.404 626.688 C 459.655 634.767 458.15 635.498 457.247 637.992 C 454.953 637.356 453.81 636.942 449.35 630.24 C 448.502 634.324 446.248 635.858 442.896 638.012 C 442.05 634.002 440.035 633.548 442.53 625.475 C 432.564 630.592 437.856 627.877 435.03 629.305 C 434.97 627.234 434.705 621.328 437.713 619.836 L 437.093 620.136 Z " fill="url(#_lgradient_35)" vector-effect="non-scaling-stroke" stroke-width="1.735" stroke="rgb(0,0,0)" stroke-linejoin="miter" stroke-linecap="butt" stroke-miterlimit="4"/></g><g><linearGradient id="_lgradient_36" x1="0.40438978544282556" y1="0.3540127465685039" x2="1.1003376641214748" y2="0.7089083380540184" gradientTransform="matrix(-31.882,4.678,-4.905,-33.43,548.851,776.997)" gradientUnits="userSpaceOnUse"><stop offset="0%" stop-opacity="1" style="stop-color:rgb(255,81,6)"/><stop offset="100%" stop-opacity="1" style="stop-color:rgb(255,170,0)"/></linearGradient><path d=" M 517.316 760.811 C 522.638 757.449 520.131 759.249 524.527 756.231 C 525.322 755.684 522.171 751.845 521.496 748.709 C 521.23 747.457 521.726 747.385 521.996 747.07 C 522.326 747.085 523.063 745.994 524.085 747.213 C 526.08 749.585 527.672 755.012 528.19 754.642 C 532.329 751.688 539.615 750.123 545.197 754.72 C 541.889 756.828 536.087 758.443 538.169 758.561 C 543.879 761.393 543.951 763.286 547.26 766.155 C 543.237 767.739 539.474 768.435 536.627 767.363 C 539.877 775.442 538.373 776.173 537.47 778.667 C 535.176 778.031 534.033 777.616 529.573 770.915 C 528.725 774.999 526.471 776.533 523.119 778.687 C 522.272 774.677 520.258 774.223 522.753 766.15 C 512.787 771.267 518.078 768.552 515.253 769.98 C 515.193 767.909 514.927 762.003 517.935 760.511 L 517.316 760.811 Z " fill="url(#_lgradient_36)" vector-effect="non-scaling-stroke" stroke-width="1.735" stroke="rgb(0,0,0)" stroke-linejoin="miter" stroke-linecap="butt" stroke-miterlimit="4"/></g><g><linearGradient id="_lgradient_37" x1="0.40438978544282556" y1="0.3540127465685039" x2="1.1003376641214748" y2="0.7089083380540184" gradientTransform="matrix(15.31,28.354,-29.731,16.054,322.621,321.464)" gradientUnits="userSpaceOnUse"><stop offset="2.608695652173913%" stop-opacity="1" style="stop-color:rgb(255,114,6)"/><stop offset="100%" stop-opacity="1" style="stop-color:rgb(255,170,0)"/></linearGradient><path d=" M 318.21 356.634 C 313.229 352.784 315.778 354.524 311.437 351.427 C 310.651 350.868 308.123 355.142 305.408 356.85 C 304.322 357.528 304.085 357.087 303.696 356.942 C 303.597 356.626 302.32 356.307 303.115 354.93 C 304.662 352.243 309.215 348.889 308.691 348.529 C 304.498 345.652 300.533 339.342 302.941 332.523 C 306.054 334.91 309.558 339.808 308.956 337.812 C 309.662 331.477 311.416 330.761 312.978 326.67 C 315.845 329.908 317.787 333.205 317.754 336.247 C 324.232 330.427 325.434 331.591 328.086 331.585 C 328.274 333.958 328.276 335.174 323.507 341.659 C 327.634 341.057 329.847 342.65 333.019 345.062 C 329.541 347.23 329.804 349.278 321.364 349.698 C 329.584 357.31 325.222 353.268 327.531 355.433 C 325.605 356.199 320.147 358.47 317.715 356.155 L 318.21 356.634 Z " fill="url(#_lgradient_37)" vector-effect="non-scaling-stroke" stroke-width="1.735" stroke="rgb(0,0,0)" stroke-linejoin="miter" stroke-linecap="butt" stroke-miterlimit="4"/></g><g><linearGradient id="_lgradient_38" x1="0.40438978544282556" y1="0.3540127465685039" x2="1.1003376641214748" y2="0.7089083380540184" gradientTransform="matrix(25.706,19.43,-20.374,26.954,339.448,293.529)" gradientUnits="userSpaceOnUse"><stop offset="2.608695652173913%" stop-opacity="1" style="stop-color:rgb(255,114,6)"/><stop offset="100%" stop-opacity="1" style="stop-color:rgb(255,170,0)"/></linearGradient><path d=" M 350.047 327.354 C 343.916 325.921 346.958 326.444 341.722 325.43 C 340.775 325.249 340.252 330.187 338.491 332.868 C 337.786 333.936 337.386 333.633 336.973 333.663 C 336.751 333.417 335.457 333.657 335.608 332.074 C 335.899 328.988 338.647 324.045 338.021 323.936 C 333.012 323.061 326.783 318.968 326.141 311.765 C 329.965 312.643 335.186 315.642 333.809 314.077 C 331.82 308.021 333.118 306.641 332.84 302.271 C 336.792 304.025 339.928 306.218 341.163 308.999 C 344.637 301.013 346.213 301.572 348.624 300.465 C 349.781 302.546 350.288 303.651 348.644 311.531 C 352.147 309.27 354.822 309.799 358.709 310.675 C 356.447 314.092 357.537 315.846 350.034 319.734 C 360.673 323.243 355.026 321.378 358.026 322.389 C 356.593 323.885 352.572 328.219 349.398 327.123 L 350.047 327.354 Z " fill="url(#_lgradient_38)" vector-effect="non-scaling-stroke" stroke-width="1.735" stroke="rgb(0,0,0)" stroke-linejoin="miter" stroke-linecap="butt" stroke-miterlimit="4"/></g><g><linearGradient id="_lgradient_39" x1="0.40438978544282556" y1="0.3540127465685039" x2="1.1003376641214748" y2="0.7089083380540184" gradientTransform="matrix(20.35,-24.984,26.198,21.338,299.382,309.812)" gradientUnits="userSpaceOnUse"><stop offset="2.608695652173913%" stop-opacity="1" style="stop-color:rgb(255,0,0)"/><stop offset="50.8695652173913%" stop-opacity="1" style="stop-color:rgb(255,167,0)"/><stop offset="91.73913043478261%" stop-opacity="1" style="stop-color:rgb(255,170,0)"/></linearGradient><path d=" M 333.569 300.447 C 331.915 306.521 332.548 303.501 331.345 308.696 C 331.129 309.636 336.045 310.338 338.661 312.195 C 339.703 312.939 339.385 313.327 339.4 313.741 C 339.146 313.954 339.339 315.255 337.762 315.047 C 334.689 314.645 329.849 311.719 329.717 312.341 C 328.661 317.315 324.345 323.391 317.124 323.771 C 318.139 319.982 321.326 314.873 319.712 316.192 C 313.588 317.96 312.256 316.613 307.879 316.733 C 309.775 312.847 312.08 309.792 314.904 308.66 C 307.05 304.898 307.666 303.343 306.647 300.893 C 308.768 299.813 309.891 299.347 317.706 301.275 C 315.573 297.692 316.199 295.038 317.216 291.185 C 320.548 293.57 322.34 292.545 325.954 300.183 C 329.846 289.678 327.778 295.254 328.897 292.293 C 330.34 293.78 334.525 297.955 333.315 301.087 L 333.569 300.447 Z " fill="url(#_lgradient_39)" vector-effect="non-scaling-stroke" stroke-width="1.735" stroke="rgb(0,0,0)" stroke-linejoin="miter" stroke-linecap="butt" stroke-miterlimit="4"/></g><g><linearGradient id="_lgradient_40" x1="0.40438978544282556" y1="0.3540127465685039" x2="1.1003376641214748" y2="0.7089083380540184" gradientTransform="matrix(31.019,-8.729,9.153,32.525,313.719,320.111)" gradientUnits="userSpaceOnUse"><stop offset="2.608695652173913%" stop-opacity="1" style="stop-color:rgb(255,255,0)"/><stop offset="28.695652173913043%" stop-opacity="1" style="stop-color:rgb(255,172,0)"/><stop offset="100%" stop-opacity="1" style="stop-color:rgb(255,170,0)"/></linearGradient><path d=" M 347.069 332.118 C 342.222 336.134 344.478 334.028 340.505 337.585 C 339.788 338.23 343.405 341.632 344.476 344.656 C 344.9 345.864 344.417 345.999 344.191 346.346 C 343.861 346.374 343.27 347.549 342.1 346.472 C 339.818 344.375 337.542 339.197 337.076 339.63 C 333.351 343.091 326.325 345.578 320.2 341.735 C 323.21 339.22 328.757 336.874 326.677 337.025 C 320.651 334.948 320.337 333.08 316.687 330.659 C 320.474 328.572 324.116 327.399 327.078 328.097 C 322.818 320.502 324.216 319.584 324.792 316.995 C 327.148 317.331 328.335 317.596 333.618 323.669 C 333.935 319.511 335.974 317.7 339.022 315.134 C 340.375 319.002 342.431 319.194 340.992 327.521 C 350.22 321.167 345.32 324.538 347.939 322.76 C 348.264 324.806 349.285 330.63 346.494 332.495 L 347.069 332.118 Z " fill="url(#_lgradient_40)" vector-effect="non-scaling-stroke" stroke-width="1.735" stroke="rgb(0,0,0)" stroke-linejoin="miter" stroke-linecap="butt" stroke-miterlimit="4"/></g><g><linearGradient id="_lgradient_41" x1="0.40438978544282556" y1="0.3540127465685039" x2="1.1003376641214748" y2="0.7089083380540184" gradientTransform="matrix(21.957,-23.584,24.73,23.024,443.058,797.937)" gradientUnits="userSpaceOnUse"><stop offset="2.608695652173913%" stop-opacity="1" style="stop-color:rgb(255,114,6)"/><stop offset="100%" stop-opacity="1" style="stop-color:rgb(255,170,0)"/></linearGradient><path d=" M 477.789 790.853 C 475.737 796.804 476.569 793.832 475.025 798.936 C 474.747 799.86 479.606 800.885 482.093 802.911 C 483.084 803.722 482.741 804.089 482.728 804.503 C 482.461 804.698 482.568 806.01 481.008 805.698 C 477.968 805.093 473.332 801.854 473.159 802.466 C 471.777 807.359 467.068 813.137 459.838 813.038 C 461.102 809.325 464.62 804.437 462.922 805.647 C 456.694 807.006 455.455 805.574 451.079 805.404 C 453.228 801.652 455.729 798.756 458.622 797.813 C 451.034 793.54 451.751 792.029 450.896 789.518 C 453.084 788.58 454.236 788.189 461.906 790.63 C 460.015 786.913 460.815 784.306 462.084 780.529 C 465.252 783.13 467.108 782.225 470.208 790.086 C 474.787 779.861 472.354 785.288 473.667 782.407 C 475.008 783.986 478.908 788.429 477.494 791.474 L 477.789 790.853 Z " fill="url(#_lgradient_41)" vector-effect="non-scaling-stroke" stroke-width="1.735" stroke="rgb(0,0,0)" stroke-linejoin="miter" stroke-linecap="butt" stroke-miterlimit="4"/></g><g><linearGradient id="_lgradient_42" x1="0.40438978544282556" y1="0.3540127465685039" x2="1.1003376641214748" y2="0.7089083380540184" gradientTransform="matrix(15.31,28.354,-29.731,16.054,504.104,727.914)" gradientUnits="userSpaceOnUse"><stop offset="2.608695652173913%" stop-opacity="1" style="stop-color:rgb(255,114,6)"/><stop offset="100%" stop-opacity="1" style="stop-color:rgb(255,170,0)"/></linearGradient><path d=" M 499.692 763.084 C 494.712 759.235 497.26 760.974 492.92 757.877 C 492.134 757.318 489.606 761.593 486.891 763.3 C 485.805 763.979 485.568 763.537 485.179 763.392 C 485.08 763.076 483.803 762.757 484.598 761.38 C 486.145 758.694 490.698 755.339 490.173 754.979 C 485.981 752.102 482.015 745.792 484.424 738.974 C 487.537 741.36 491.041 746.258 490.438 744.262 C 491.145 737.927 492.899 737.211 494.461 733.121 C 497.327 736.358 499.27 739.655 499.237 742.698 C 505.715 736.877 506.917 738.041 509.569 738.035 C 509.757 740.408 509.759 741.624 504.99 748.109 C 509.116 747.508 511.33 749.1 514.501 751.512 C 511.024 753.681 511.286 755.728 502.847 756.148 C 511.067 763.76 506.705 759.718 509.013 761.884 C 507.088 762.649 501.63 764.921 499.198 762.605 L 499.692 763.084 Z " fill="url(#_lgradient_42)" vector-effect="non-scaling-stroke" stroke-width="1.735" stroke="rgb(0,0,0)" stroke-linejoin="miter" stroke-linecap="butt" stroke-miterlimit="4"/></g><g><linearGradient id="_lgradient_43" x1="0.40438978544282556" y1="0.3540127465685039" x2="1.1003376641214748" y2="0.7089083380540184" gradientTransform="matrix(30.621,-10.034,10.521,32.108,361.594,734.927)" gradientUnits="userSpaceOnUse"><stop offset="2.608695652173913%" stop-opacity="1" style="stop-color:rgb(255,114,6)"/><stop offset="100%" stop-opacity="1" style="stop-color:rgb(255,170,0)"/></linearGradient><path d=" M 395.423 745.512 C 390.751 749.73 392.915 747.53 389.096 751.252 C 388.407 751.926 392.165 755.173 393.363 758.148 C 393.838 759.337 393.362 759.492 393.15 759.849 C 392.821 759.89 392.281 761.09 391.066 760.063 C 388.697 758.065 386.205 752.988 385.757 753.441 C 382.182 757.056 375.268 759.838 368.985 756.257 C 371.887 753.617 377.328 751.039 375.257 751.277 C 369.149 749.457 368.755 747.605 365.007 745.341 C 368.702 743.095 372.291 741.769 375.28 742.341 C 370.702 734.933 372.06 733.957 372.525 731.345 C 374.894 731.582 376.091 731.796 381.626 737.64 C 381.767 733.472 383.727 731.577 386.664 728.884 C 388.18 732.691 390.242 732.796 389.157 741.176 C 398.107 734.438 393.355 738.013 395.896 736.126 C 396.308 738.156 397.574 743.931 394.864 745.913 L 395.423 745.512 Z " fill="url(#_lgradient_43)" vector-effect="non-scaling-stroke" stroke-width="1.735" stroke="rgb(0,0,0)" stroke-linejoin="miter" stroke-linecap="butt" stroke-miterlimit="4"/></g><g><linearGradient id="_lgradient_44" x1="0.40438978544282556" y1="0.3540127465685039" x2="1.1003376641214748" y2="0.7089083380540184" gradientTransform="matrix(12.91,29.524,-30.958,13.537,417.722,758.283)" gradientUnits="userSpaceOnUse"><stop offset="2.608695652173913%" stop-opacity="1" style="stop-color:rgb(255,114,6)"/><stop offset="100%" stop-opacity="1" style="stop-color:rgb(255,170,0)"/></linearGradient><path d=" M 410.413 792.968 C 405.768 788.719 408.164 790.663 404.095 787.217 C 403.358 786.595 400.485 790.646 397.638 792.122 C 396.5 792.709 396.299 792.249 395.924 792.072 C 395.852 791.749 394.606 791.326 395.512 790.019 C 397.275 787.47 402.091 784.504 401.598 784.102 C 397.658 780.888 394.229 774.271 397.194 767.675 C 400.099 770.311 403.185 775.483 402.75 773.443 C 403.978 767.189 405.785 766.621 407.681 762.673 C 410.269 766.137 411.932 769.584 411.647 772.613 C 418.585 767.349 419.686 768.608 422.33 768.822 C 422.321 771.203 422.222 772.415 416.932 778.482 C 421.095 778.225 423.169 779.995 426.13 782.661 C 422.484 784.534 422.577 786.597 414.131 786.316 C 421.693 794.583 417.68 790.193 419.802 792.543 C 417.819 793.146 412.192 794.958 409.96 792.449 L 410.413 792.968 Z " fill="url(#_lgradient_44)" vector-effect="non-scaling-stroke" stroke-width="1.735" stroke="rgb(0,0,0)" stroke-linejoin="miter" stroke-linecap="butt" stroke-miterlimit="4"/></g><g><linearGradient id="_lgradient_45" x1="0.40438978544282556" y1="0.3540127465685039" x2="1.1003376641214748" y2="0.7089083380540184" gradientTransform="matrix(31.019,-8.729,9.153,32.525,476.808,667.715)" gradientUnits="userSpaceOnUse"><stop offset="2.608695652173913%" stop-opacity="1" style="stop-color:rgb(255,255,0)"/><stop offset="28.695652173913043%" stop-opacity="1" style="stop-color:rgb(255,172,0)"/><stop offset="100%" stop-opacity="1" style="stop-color:rgb(255,170,0)"/></linearGradient><path d=" M 510.159 679.722 C 505.311 683.739 507.567 681.633 503.594 685.19 C 502.877 685.834 506.494 689.237 507.565 692.26 C 507.99 693.468 507.507 693.603 507.28 693.951 C 506.95 693.978 506.359 695.154 505.189 694.077 C 502.907 691.98 500.632 686.802 500.166 687.235 C 496.44 690.696 489.414 693.183 483.289 689.339 C 486.3 686.824 491.846 684.479 489.766 684.629 C 483.74 682.552 483.426 680.685 479.776 678.264 C 483.563 676.176 487.206 675.004 490.167 675.702 C 485.907 668.107 487.305 667.189 487.881 664.599 C 490.237 664.936 491.424 665.2 496.707 671.274 C 497.024 667.116 499.063 665.305 502.111 662.738 C 503.465 666.607 505.52 666.799 504.082 675.125 C 513.309 668.772 508.41 672.143 511.028 670.365 C 511.354 672.411 512.374 678.234 509.583 680.1 L 510.159 679.722 Z " fill="url(#_lgradient_45)" vector-effect="non-scaling-stroke" stroke-width="1.735" stroke="rgb(0,0,0)" stroke-linejoin="miter" stroke-linecap="butt" stroke-miterlimit="4"/></g><g><linearGradient id="_lgradient_46" x1="0.40438978544282556" y1="0.3540127465685039" x2="1.1003376641214748" y2="0.7089083380540184" gradientTransform="matrix(25.52,19.674,-20.63,26.759,423.117,698.789)" gradientUnits="userSpaceOnUse"><stop offset="2.608695652173913%" stop-opacity="1" style="stop-color:rgb(255,255,0)"/><stop offset="28.695652173913043%" stop-opacity="1" style="stop-color:rgb(255,172,0)"/><stop offset="100%" stop-opacity="1" style="stop-color:rgb(255,170,0)"/></linearGradient><path d=" M 433.393 732.713 C 427.277 731.222 430.313 731.775 425.088 730.711 C 424.143 730.52 423.572 735.453 421.786 738.117 C 421.071 739.179 420.674 738.872 420.26 738.897 C 420.041 738.649 418.745 738.877 418.911 737.296 C 419.231 734.213 422.026 729.296 421.401 729.181 C 416.4 728.258 410.211 724.106 409.638 716.898 C 413.453 717.812 418.645 720.861 417.283 719.282 C 415.352 713.208 416.663 711.841 416.426 707.468 C 420.362 709.26 423.477 711.482 424.685 714.274 C 428.235 706.323 429.806 706.897 432.227 705.812 C 433.364 707.904 433.86 709.014 432.141 716.878 C 435.666 714.65 438.336 715.204 442.215 716.118 C 439.92 719.513 440.993 721.277 433.454 725.093 C 444.059 728.704 438.43 726.785 441.42 727.825 C 439.972 729.307 435.91 733.603 432.747 732.477 L 433.393 732.713 Z " fill="url(#_lgradient_46)" vector-effect="non-scaling-stroke" stroke-width="1.735" stroke="rgb(0,0,0)" stroke-linejoin="miter" stroke-linecap="butt" stroke-miterlimit="4"/></g></g></svg>