<?xml version="1.0" encoding="UTF-8"?>
<svg width="2560px" height="1440px" viewBox="0 0 2560 1440" version="1.1" xmlns="http://www.w3.org/2000/svg" xmlns:xlink="http://www.w3.org/1999/xlink">
    <title>Wallpapers/Haiku/FragmentedHaiku5120</title>
    <defs>
        <linearGradient x1="50%" y1="0%" x2="50%" y2="100%" id="linearGradient-1">
            <stop stop-color="#000000" stop-opacity="0.55267462" offset="0%"></stop>
            <stop stop-color="#FFFFFF" stop-opacity="0" offset="100%"></stop>
        </linearGradient>
        <rect id="path-2" x="0" y="0" width="2560" height="1440"></rect>
        <filter id="filter-3">
            <feColorMatrix in="SourceGraphic" type="matrix" values="0 0 0 0 0.000000 0 0 0 0 0.108295 0 0 0 0 0.324884 0 0 0 1.000000 0"></feColorMatrix>
        </filter>
        <linearGradient x1="50%" y1="0%" x2="50%" y2="100%" id="linearGradient-4">
            <stop stop-color="#006EC0" offset="0%"></stop>
            <stop stop-color="#0D94F9" offset="100%"></stop>
        </linearGradient>
        <linearGradient x1="50%" y1="0%" x2="50%" y2="100%" id="linearGradient-5">
            <stop stop-color="#1699DC" offset="0%"></stop>
            <stop stop-color="#23ABF8" offset="100%"></stop>
        </linearGradient>
        <linearGradient x1="50%" y1="0%" x2="50%" y2="100%" id="linearGradient-6">
            <stop stop-color="#0E96E3" offset="0%"></stop>
            <stop stop-color="#129CE3" offset="100%"></stop>
        </linearGradient>
        <linearGradient x1="50%" y1="0%" x2="50%" y2="100%" id="linearGradient-7">
            <stop stop-color="#3D73D8" offset="0%"></stop>
            <stop stop-color="#23ABF8" offset="100%"></stop>
        </linearGradient>
        <radialGradient cx="5.70583737%" cy="71.8988934%" fx="5.70583737%" fy="71.8988934%" r="96.8264847%" gradientTransform="translate(0.057058,0.718989),scale(1.000000,0.913920),rotate(-41.702435),translate(-0.057058,-0.718989)" id="radialGradient-8">
            <stop stop-color="#FFA600" offset="0%"></stop>
            <stop stop-color="#FFEE9C" offset="100%"></stop>
        </radialGradient>
        <radialGradient cx="44.969492%" cy="4.64251314%" fx="44.969492%" fy="4.64251314%" r="247.068309%" gradientTransform="translate(0.449695,0.046425),scale(0.398574,1.000000),rotate(-6.007663),translate(-0.449695,-0.046425)" id="radialGradient-9">
            <stop stop-color="#FF7200" offset="0%"></stop>
            <stop stop-color="#FFAA00" offset="100%"></stop>
        </radialGradient>
        <radialGradient cx="48.1272339%" cy="98.0532255%" fx="48.1272339%" fy="98.0532255%" r="363.132925%" gradientTransform="translate(0.481272,0.980532),scale(0.363165,1.000000),rotate(-22.099272),translate(-0.481272,-0.980532)" id="radialGradient-10">
            <stop stop-color="#33A02C" offset="0%"></stop>
            <stop stop-color="#A9FF00" offset="100%"></stop>
        </radialGradient>
    </defs>
    <g id="Wallpapers/Haiku/FragmentedHaiku" stroke="none" stroke-width="1" fill="none" fill-rule="evenodd">
        <g id="Group-2">
            <g id="bg">
                <use fill="#5798E3" xlink:href="#path-2"></use>
                <use fill="url(#linearGradient-1)" style="mix-blend-mode: soft-light;" xlink:href="#path-2"></use>
            </g>
            <g filter="url(#filter-3)" id="Group" opacity="0.455971854">
                <g style="mix-blend-mode: hard-light;" transform="translate(0.000000, 1068.000000)">
                    <rect id="Rectangle" fill="url(#linearGradient-4)" opacity="0.819506118" x="0" y="164" width="52" height="52"></rect>
                    <rect id="Rectangle" fill="url(#linearGradient-5)" opacity="0.487121582" x="52" y="216" width="52" height="52"></rect>
                    <rect id="Rectangle" fill="url(#linearGradient-4)" x="104" y="268" width="52" height="52"></rect>
                    <rect id="Rectangle" fill="url(#linearGradient-6)" x="208" y="268" width="52" height="52"></rect>
                    <rect id="Rectangle" fill="url(#linearGradient-6)" x="104" y="112" width="52" height="52"></rect>
                    <rect id="Rectangle" fill="url(#linearGradient-4)" x="260" y="164" width="52" height="52"></rect>
                    <rect id="Rectangle" fill="url(#linearGradient-4)" x="52" y="0" width="52" height="52"></rect>
                    <rect id="Rectangle" fill="url(#linearGradient-5)" opacity="0.487121582" x="364" y="268" width="52" height="52"></rect>
                    <rect id="Rectangle" fill="url(#linearGradient-5)" opacity="0.487121582" x="676" y="320" width="52" height="52"></rect>
                    <rect id="Rectangle" fill="url(#linearGradient-5)" opacity="0.487121582" x="1664" y="268" width="52" height="52"></rect>
                    <rect id="Rectangle" fill="url(#linearGradient-5)" opacity="0.487121582" x="1820" y="112" width="52" height="52"></rect>
                    <rect id="Rectangle" fill="url(#linearGradient-5)" opacity="0.487121582" x="1872" y="216" width="52" height="52"></rect>
                    <rect id="Rectangle" fill="url(#linearGradient-5)" opacity="0.487121582" x="2404" y="8" width="52" height="52"></rect>
                    <rect id="Rectangle" fill="url(#linearGradient-4)" opacity="0.819506118" x="416" y="320" width="52" height="52"></rect>
                    <rect id="Rectangle" fill="url(#linearGradient-4)" x="468" y="216" width="52" height="52"></rect>
                    <rect id="Rectangle" fill="url(#linearGradient-4)" opacity="0.819506118" x="2300" y="216" width="52" height="52"></rect>
                    <rect id="Rectangle" fill="url(#linearGradient-6)" x="624" y="320" width="52" height="52"></rect>
                    <rect id="Rectangle" fill="url(#linearGradient-6)" x="728" y="268" width="52" height="52"></rect>
                    <rect id="Rectangle" fill="url(#linearGradient-7)" style="mix-blend-mode: luminosity;" x="780" y="216" width="52" height="52"></rect>
                    <rect id="Rectangle" fill="url(#linearGradient-7)" style="mix-blend-mode: luminosity;" x="884" y="164" width="52" height="52"></rect>
                    <rect id="Rectangle" fill="url(#linearGradient-7)" style="mix-blend-mode: luminosity;" x="780" y="112" width="52" height="52"></rect>
                    <rect id="Rectangle" fill="url(#linearGradient-7)" opacity="0.51995123" style="mix-blend-mode: luminosity;" x="0" y="0" width="52" height="52"></rect>
                    <rect id="Rectangle" fill="url(#linearGradient-4)" opacity="0.819506118" x="936" y="216" width="52" height="52"></rect>
                    <rect id="Rectangle" fill="url(#linearGradient-7)" style="mix-blend-mode: luminosity;" x="1248" y="60" width="52" height="52"></rect>
                    <rect id="Rectangle" fill="url(#linearGradient-7)" style="mix-blend-mode: luminosity;" x="2144" y="268" width="52" height="52"></rect>
                    <rect id="Rectangle" fill="url(#linearGradient-6)" x="1144" y="216" width="52" height="52"></rect>
                    <rect id="Rectangle" fill="url(#linearGradient-6)" x="2404" y="268" width="52" height="52"></rect>
                    <rect id="Rectangle" fill="url(#linearGradient-5)" opacity="0.941351677" x="1248" y="268" width="52" height="52"></rect>
                    <rect id="Rectangle" fill="url(#linearGradient-5)" opacity="0.487121582" x="1300" y="216" width="52" height="52"></rect>
                    <rect id="Rectangle" fill="url(#linearGradient-5)" opacity="0.487121582" x="1560" y="112" width="52" height="52"></rect>
                    <rect id="Rectangle" fill="url(#linearGradient-5)" opacity="0.487121582" x="1768" y="320" width="52" height="52"></rect>
                    <rect id="Rectangle" fill="url(#linearGradient-5)" opacity="0.860270422" x="1352" y="216" width="52" height="52"></rect>
                    <rect id="Rectangle" fill="url(#linearGradient-5)" opacity="0.860270422" x="1612" y="112" width="52" height="52"></rect>
                    <rect id="Rectangle" fill="url(#linearGradient-5)" opacity="0.860270422" x="2456" y="320" width="52" height="52"></rect>
                    <rect id="Rectangle" fill="url(#linearGradient-5)" opacity="0.860270422" x="2456" y="60" width="52" height="52"></rect>
                    <rect id="Rectangle" fill="url(#linearGradient-5)" opacity="0.860270422" x="2404" y="164" width="52" height="52"></rect>
                    <rect id="Rectangle" fill="url(#linearGradient-5)" opacity="0.941351677" x="1456" y="216" width="52" height="52"></rect>
                    <rect id="Rectangle" fill="url(#linearGradient-6)" x="1352" y="268" width="52" height="52"></rect>
                    <rect id="Rectangle" fill="url(#linearGradient-6)" x="1716" y="268" width="52" height="52"></rect>
                    <rect id="Rectangle" fill="url(#linearGradient-6)" x="1820" y="216" width="52" height="52"></rect>
                    <rect id="Rectangle" fill="url(#linearGradient-6)" x="1404" y="112" width="52" height="52"></rect>
                    <rect id="Rectangle" fill="url(#linearGradient-4)" opacity="0.819506118" x="1988" y="164" width="52" height="52"></rect>
                    <rect id="Rectangle" fill="url(#linearGradient-4)" opacity="0.447179458" style="mix-blend-mode: difference;" x="832" y="320" width="52" height="52"></rect>
                    <rect id="Rectangle" fill="url(#linearGradient-4)" x="1508" y="320" width="52" height="52"></rect>
                    <rect id="Rectangle" fill="url(#linearGradient-4)" x="1768" y="60" width="52" height="52"></rect>
                    <rect id="Rectangle" fill="url(#linearGradient-5)" opacity="0.487121582" x="676" y="164" width="52" height="52"></rect>
                    <rect id="Rectangle" fill="url(#linearGradient-5)" opacity="0.487121582" x="156" y="60" width="52" height="52"></rect>
                    <rect id="Rectangle" fill="url(#linearGradient-5)" opacity="0.487121582" x="1144" y="320" width="52" height="52"></rect>
                    <rect id="Rectangle" fill="url(#linearGradient-5)" opacity="0.487121582" x="1028" y="164" width="52" height="52"></rect>
                    <rect id="Rectangle" fill="url(#linearGradient-5)" opacity="0.487121582" x="2196" y="216" width="52" height="52"></rect>
                    <rect id="Rectangle" fill="url(#linearGradient-5)" opacity="0.941351677" x="286" y="320" width="52" height="52"></rect>
                    <rect id="Rectangle" fill="url(#linearGradient-5)" opacity="0.941351677" x="0" y="320" width="52" height="52"></rect>
                    <rect id="Rectangle" fill="url(#linearGradient-4)" opacity="0.233819221" style="mix-blend-mode: lighten;" x="2508" y="320" width="52" height="52"></rect>
                    <rect id="Rectangle" fill="url(#linearGradient-4)" opacity="0.233819221" style="mix-blend-mode: lighten;" x="2300" y="112" width="52" height="52"></rect>
                </g>
            </g>
        </g>
        <g id="Logos" transform="translate(924.000000, 580.000000)" fill-rule="nonzero">
            <g id="HAIKU-logo---white">
                <polygon id="Path" fill="#FFFFFF" points="48.624 6.024 48.624 134.328 65.364 134.328 65.364 6.024 48.624 6.024 48.624 6.024"></polygon>
                <path d="M124.212,6.024 C124.212,48.66 124.212,91.68 124.212,134.328 L140.952,134.328 L140.952,6.024 L124.212,6.024 L124.212,6.024 Z" id="Path" fill="#FFFFFF"></path>
                <polygon id="Path" fill="#FFFFFF" points="247.224 0.216 186.72 134.328 203.628 134.328 247.212 36.432 289.536 134.328 306.432 134.328 247.2 0.216 247.2 0.216"></polygon>
                <polygon id="Path" fill="#FFFFFF" points="352.212 6.024 352.212 134.328 368.964 134.328 368.964 6.024 352.212 6.024"></polygon>
                <polygon id="Path" fill="#FFFFFF" points="429.012 6.024 429.012 134.328 445.728 134.328 445.728 80.928 451.104 74.496 498.48 134.352 519.504 134.352 462.228 63.636 518.628 6.036 498.252 6.036 445.704 61.596 445.704 6.036 429 6.036 429 6.036"></polygon>
                <path d="M640.212,6.024 L640.212,83.16 C640.212,95.436 637.656,104.988 632.676,111.816 C627.72,118.632 620.028,121.272 609.624,121.272 C598.728,121.272 591.156,117.096 586.572,109.62 C581.976,102.144 580.188,94.596 580.188,84.528 L580.188,6.036 L563.484,6.036 L563.484,88.404 C563.484,96.18 565.368,103.992 568.608,111.384 C571.836,118.776 576.984,124.692 583.872,129.528 C590.724,134.352 599.424,136.656 609.624,136.764 C616.356,136.764 622.548,135.768 628.188,133.428 C633.828,131.064 638.688,127.668 642.816,123.264 C646.908,118.86 650.052,113.628 652.272,107.544 C654.456,101.496 655.776,94.848 655.776,87.612 L655.776,6.048 L640.212,6.048 L640.212,6.048 L640.212,6.024 Z" id="Path" fill="#FFFFFF"></path>
                <path d="M620.364,72.828 C616.764,91.692 621.324,105.876 631.104,116.46 C631.272,113.568 632.424,111.504 633.372,109.8 C634.392,127.992 648.168,128.52 653.856,130.632 C654.084,128.496 652.08,127.356 653.688,122.268 C655.524,126.228 657.24,128.472 659.424,131.796 C662.736,132.624 666.324,134.808 669.9,135.252 C674.304,135.804 680.184,136.332 685.056,136.74 C685.008,134.508 685.656,133.608 686.484,132.192 C687.048,133.92 687.828,135.516 688.812,136.98 C693.852,136.548 698.244,138.132 700.632,139.596 C697.992,128.82 690.276,117.816 683.304,110.736 C679.212,109.524 676.236,111.552 670.692,113.892 C671.796,110.736 674.1,108.168 678.612,106.668 C673.08,102.096 667.02,98.1 660.984,94.332 C658.644,92.88 651.648,90.132 648.552,87.888 C645.504,87.84 642.684,87.96 640.116,88.248 C641.868,87.036 643.452,85.608 645.384,84.552 C637.428,75.696 631.32,72.012 621.828,69.396 C613.248,56.256 609.324,37.776 611.436,36.576 L606.48,39.396 C606.48,39.396 610.896,59.892 620.34,72.792 L620.352,72.816 L620.364,72.828 Z" id="Path" fill="url(#radialGradient-8)"></path>
                <path d="M298.32,102 C288.24,81.12 273.6,70.704 256.548,67.488 C258.456,70.404 258.828,73.236 259.14,75.564 C245.064,58.692 231.348,68.088 224.316,70.104 C225.636,72.348 228.396,72.012 230.496,78.084 C225.852,75.588 222.576,74.64 218.076,73.008 C214.26,74.556 209.22,75.036 205.428,77.172 C200.76,79.8 194.688,83.496 189.684,86.628 C191.34,88.752 191.34,90.096 191.544,92.052 C189.744,90.804 187.848,89.82 185.844,89.112 C181.284,93.156 175.86,94.776 172.512,95.076 C182.82,103.596 198.204,108.696 210.036,110.544 C214.86,108.792 216.264,104.676 219.96,98.412 C221.124,102.276 220.752,106.428 217.5,111.12 C226.164,111.564 234.9,111.096 243.432,110.412 C246.756,110.148 255.492,107.772 260.124,107.724 C263.124,105.588 265.728,103.44 268.02,101.304 C267.204,103.752 266.688,106.272 265.596,108.684 C279.66,111.54 288.252,110.712 299.304,106.44 C317.088,112.992 334.164,128.052 332.964,130.74 L335.748,124.44 C335.748,124.44 316.728,107.76 298.308,102.06 L298.308,102.012 L298.32,102 Z" id="Path" fill="url(#radialGradient-9)"></path>
                <path d="M42.864,88.224 C59.604,104.268 76.968,108.924 94.068,105.984 C91.26,103.92 89.928,101.388 88.812,99.312 C107.916,110.208 117.468,96.648 123.36,92.28 C121.332,90.636 118.86,91.92 114.78,86.964 C120,87.672 123.396,87.408 128.208,87.396 C131.22,84.6 135.78,82.404 138.6,79.068 C142.056,74.976 146.448,69.372 150.048,64.704 C147.732,63.288 147.276,62.04 146.4,60.276 C148.512,60.804 150.648,61.068 152.772,61.032 C155.616,55.632 160.128,52.236 163.164,50.808 C150.516,46.416 134.316,47.016 122.592,49.416 C118.68,52.764 118.8,57.108 117.528,64.272 C115.068,61.068 113.964,57.048 115.416,51.492 C107.16,54.084 99.12,57.588 91.368,61.224 C88.368,62.628 80.988,67.896 76.668,69.576 C74.628,72.624 72.924,75.552 71.52,78.36 C71.436,75.78 71.028,73.236 71.232,70.584 C57.036,72.792 49.284,76.596 40.428,84.456 C21.48,84.516 0.228,76.392 0.396,73.464 L0,80.328 C0,80.328 23.664,89.304 42.9,88.224 L42.876,88.224 L42.864,88.224 Z" id="Path" fill="url(#radialGradient-10)"></path>
                <path d="M690.864,16.248 C690.864,13.56 691.848,11.196 693.84,9.156 C695.82,7.116 698.424,6.096 701.64,6.096 C704.34,6.096 706.716,7.056 708.756,9 C710.796,10.932 711.816,13.356 711.816,16.26 C711.816,19.02 710.868,21.468 708.96,23.616 C707.052,25.752 704.544,26.832 701.436,26.832 C701.376,26.832 701.304,26.832 701.244,26.832 C701.184,26.832 701.124,26.832 701.052,26.832 C698.196,26.748 695.892,25.824 694.176,24.072 C692.46,22.32 691.404,20.388 691.02,18.276 C690.996,18.024 690.96,17.748 690.936,17.472 C690.912,17.208 690.9,16.932 690.9,16.668 C690.9,16.608 690.9,16.536 690.9,16.476 C690.9,16.416 690.9,16.356 690.9,16.284 L690.9,16.26 L690.864,16.248 Z M709.968,16.032 C709.968,16.008 709.968,15.96 709.968,15.912 C709.968,15.864 709.968,15.804 709.968,15.732 C709.968,15.456 709.956,15.168 709.92,14.868 C709.896,14.58 709.824,14.28 709.74,13.98 C709.344,12.432 708.444,11.016 707.04,9.72 C705.648,8.436 703.848,7.788 701.652,7.788 C701.628,7.788 701.592,7.788 701.568,7.788 C701.544,7.788 701.52,7.788 701.484,7.788 C701.46,7.788 701.424,7.788 701.4,7.788 C701.376,7.788 701.352,7.788 701.316,7.788 C698.844,7.872 696.924,8.58 695.58,9.924 C694.236,11.256 693.348,12.72 692.904,14.304 C692.808,14.724 692.724,15.132 692.676,15.54 C692.628,15.936 692.604,16.332 692.604,16.716 C692.664,18.756 693.24,20.4 694.296,21.66 C695.352,22.908 696.516,23.832 697.788,24.408 C698.376,24.684 698.964,24.888 699.54,25.02 C700.104,25.14 700.632,25.212 701.1,25.212 C703.524,25.212 705.48,24.516 706.98,23.124 C708.468,21.732 709.416,20.184 709.824,18.504 C709.884,18.228 709.944,17.94 709.98,17.652 C710.004,17.364 710.028,17.076 710.028,16.8 C710.028,16.68 710.028,16.56 710.028,16.452 C710.028,16.344 710.028,16.224 710.004,16.104 L710.004,16.08 L709.968,16.032 Z M697.092,10.836 L702.288,10.836 C703.536,10.848 704.472,11.088 705.096,11.544 C705.72,12 706.032,12.744 706.032,13.776 C706.032,14.796 705.804,15.552 705.336,16.044 C704.88,16.536 704.076,16.884 702.924,17.088 L706.032,22.26 L703.956,22.26 L701.064,17.064 L698.772,17.064 L698.772,22.26 L697.116,22.26 L697.116,10.812 L697.092,10.836 Z M702.084,12.312 L698.76,12.312 L698.76,15.42 L702.288,15.42 C703.008,15.432 703.536,15.312 703.86,15.036 C704.184,14.76 704.352,14.412 704.352,14.016 C704.352,13.596 704.184,13.212 703.836,12.876 C703.488,12.54 702.9,12.372 702.072,12.372 L702.072,12.348 L702.084,12.312 Z" id="Shape" fill="#FFFFFF"></path>
            </g>
        </g>
    </g>
</svg>