<?xml version="1.0" encoding="UTF-8" standalone="no"?>
<svg
   xmlns:dc="http://purl.org/dc/elements/1.1/"
   xmlns:cc="http://creativecommons.org/ns#"
   xmlns:rdf="http://www.w3.org/1999/02/22-rdf-syntax-ns#"
   xmlns:svg="http://www.w3.org/2000/svg"
   xmlns="http://www.w3.org/2000/svg"
   xmlns:xlink="http://www.w3.org/1999/xlink"
   xmlns:sodipodi="http://sodipodi.sourceforge.net/DTD/sodipodi-0.dtd"
   xmlns:inkscape="http://www.inkscape.org/namespaces/inkscape"
   version="1.1"
   id="svg115"
   inkscape:version="1.0.1 (3bc2e813f5, 2020-09-07)">
    <style type="text/css" >
        <![CDATA[
            .MainClass {
                fill:   #369;
            }
        ]]>
    </style>
  <defs
     id="defs67">
    <linearGradient
       id="linearGradient38"
       x1="0.57143337"
       x2=".42857"
       y1="-0.5"
       y2=".5"
       gradientTransform="matrix(740.83,740.83,-740.83,740.83,-265.44,-222.25)"
       gradientUnits="userSpaceOnUse">
      <stop
         stop-color="#fff"
         stop-opacity=".75"
         offset="0"
         id="stop10" />
      <stop
         stop-color="#fff"
         stop-opacity="0"
         offset="1"
         id="stop12" />
    </linearGradient>
    <radialGradient
       id="radialGradient70"
       cx="-.87312"
       cy=".72534"
       r="1"
       gradientTransform="matrix(846.67,-1.0765e-5,1.1097e-5,635,421.74,5.0772)"
       gradientUnits="userSpaceOnUse">
      <stop
         stop-color="#fff"
         stop-opacity=".75"
         offset="0"
         id="stop15" />
      <stop
         stop-color="#fff"
         stop-opacity="0"
         offset="1"
         id="stop17" />
    </radialGradient>
    <radialGradient
       id="radialGradient234"
       cx="0"
       cy="0"
       r="1"
       gradientTransform="matrix(299.97,0,0,284.97,105.83,168.12)"
       gradientUnits="userSpaceOnUse">
      <stop
         stop-color="#fff"
         offset="0"
         id="stop20" />
      <stop
         stop-color="#fff"
         stop-opacity="0"
         offset="1"
         id="stop22" />
    </radialGradient>
    <radialGradient
       id="radialGradient244"
       cx="0"
       cy="0"
       r="1"
       gradientTransform="matrix(300.22,0,0,285.21,105.83,145.3)"
       gradientUnits="userSpaceOnUse">
      <stop
         stop-color="#fff"
         offset="0"
         id="stop25" />
      <stop
         stop-color="#fff"
         stop-opacity="0"
         offset="1"
         id="stop27" />
    </radialGradient>
    <radialGradient
       id="radialGradient254"
       cx="0"
       cy="0"
       r="1"
       gradientTransform="matrix(300.63,0,0,285.6,105.83,123.7)"
       gradientUnits="userSpaceOnUse">
      <stop
         stop-color="#fff"
         offset="0"
         id="stop30" />
      <stop
         stop-color="#fff"
         stop-opacity="0"
         offset="1"
         id="stop32" />
    </radialGradient>
    <radialGradient
       id="radialGradient516"
       cx="-.12697"
       cy=".0022712"
       r="1"
       gradientTransform="matrix(66.846,-6.8682,5.225,50.854,107.29,164.76)"
       gradientUnits="userSpaceOnUse">
      <stop
         stop-color="#fff"
         stop-opacity="0"
         offset="0"
         id="stop35" />
      <stop
         stop-color="#fff"
         stop-opacity=".5"
         offset=".28078"
         id="stop37" />
      <stop
         stop-color="#fff"
         stop-opacity=".75"
         offset=".48"
         id="stop39" />
      <stop
         stop-color="#feffff"
         stop-opacity=".2"
         offset=".52"
         id="stop41" />
      <stop
         stop-color="#fff"
         stop-opacity="0"
         offset="1"
         id="stop43" />
    </radialGradient>
    <linearGradient
       id="linearGradient580"
       x2="1"
       gradientTransform="matrix(-21.431,-20.902,20.902,-21.431,128.52,158.12)"
       gradientUnits="userSpaceOnUse">
      <stop
         stop-color="#636466"
         offset="0"
         id="stop46" />
      <stop
         stop-color="#fff"
         stop-opacity=".75"
         offset="1"
         id="stop48" />
    </linearGradient>
    <filter
       id="filter2705"
       x="-.013577"
       y="-.10331"
       width="1.0272"
       height="1.2066"
       color-interpolation-filters="sRGB">
      <feGaussianBlur
         stdDeviation="4.7896727"
         id="feGaussianBlur51" />
    </filter>
    <filter
       id="filter2795"
       x="-8.1795704e-05"
       y="-0.00022517017"
       width="1.0001636"
       height="1.0004503"
       color-interpolation-filters="sRGB">
      <feGaussianBlur
         stdDeviation="0.0036790726"
         id="feGaussianBlur952" />
    </filter>
    <mask
       id="mask2827"
       maskUnits="userSpaceOnUse">
      <rect
         x="-318.36"
         y="84.388"
         width="847.53"
         height="117.06"
         fill="url(#linearGradient2831)"
         stroke-width=".33701"
         id="rect57" />
    </mask>
    <linearGradient
       id="linearGradient2831"
       x1="-318.14"
       x2="529.17"
       y1="142.92"
       y2="142.92"
       gradientTransform="matrix(1.0003 0 0 1 -.13913 0)"
       gradientUnits="userSpaceOnUse">
      <stop
         offset=".05"
         id="stop60" />
      <stop
         stop-color="#fff"
         offset=".5"
         id="stop62" />
      <stop
         offset=".95"
         id="stop64" />
    </linearGradient>
    <filter
       inkscape:collect="always"
       style="color-interpolation-filters:sRGB"
       id="filter119"
       x="-0.008158535"
       width="1.0163171"
       y="-0.022677978"
       height="1.045356">
      <feGaussianBlur
         inkscape:collect="always"
         stdDeviation="0.36054868"
         id="feGaussianBlur121" />
    </filter>
    <filter
       inkscape:collect="always"
       style="color-interpolation-filters:sRGB"
       id="filter123"
       x="-0.008158535"
       width="1.0163171"
       y="-0.022677978"
       height="1.045356">
      <feGaussianBlur
         inkscape:collect="always"
         stdDeviation="0.36054868"
         id="feGaussianBlur125" />
    </filter>
    <linearGradient
       inkscape:collect="always"
       xlink:href="#radialGradient70"
       id="linearGradient1644"
       x1="-317.5"
       y1="-169.33"
       x2="529.16998"
       y2="465.67001"
       gradientUnits="userSpaceOnUse"
       gradientTransform="translate(-0.86)" />
  </defs>
  <metadata
     id="metadata69">
    <rdf:RDF>
      <cc:Work
         rdf:about="">
        <dc:format>image/svg+xml</dc:format>
        <dc:type
           rdf:resource="http://purl.org/dc/dcmitype/StillImage" />
        <dc:title></dc:title>
      </cc:Work>
    </rdf:RDF>
  </metadata>
  <g
     transform="translate(318.36,169.33)"
     id="g77">
    <path
       d="m -318.36,465.67 h 846.67 v -635 h -846.67 z"
       class="MainClass"
       id="path71" />
    <path
       d="m -318.36,-169.33 h 846.67 v 635 h -846.67 z"
       fill="url(#linearGradient38)"
       opacity="0.05"
       id="path73"
       style="fill:url(#linearGradient38)" />
    <path
       d="m -318.36,-169.33 h 846.67 v 635 h -846.67 z"
       fill="url(#radialGradient70)"
       opacity="0.05"
       id="path75"
       style="fill:url(#linearGradient1644);fill-opacity:1" />
  </g>
  <g
     transform="translate(318.36 169.33)"
     mask="url(#mask2827)"
     id="g105">
    <path
       d="m-317.5 133.49v31.97c282.22 79.492 564.44-45.89 846.67 36.865v-95.911c-282.22-61.442-564.44 85.255-846.67 27.076"
       filter="url(#filter2705)"
       opacity=".33"
       id="path79" />
    <path
       d="m-317.5 165.46c282.22 78.677 564.44-49.154 846.67 29.523v-31.97c-282.22-71.572-564.44 63.363-846.67-8.2095z"
       fill="#fe3"
       id="path81" />
    <path
       transform="scale(.26458)"
       d="m1275 534.3c-825 2.3416-1650 260.02-2475 50.797-6e-4 1.6784 0 3.3548 0 5.0332v15.105c1066.7 283.93 2133.3-212.63 3200 71.305v-60.414c-241.67-61.287-483.34-82.512-725.01-81.826z"
       fill="#fff"
       opacity=".25"
       id="path83" />
    <path
       transform="scale(.26458)"
       d="m1225 585.41c-808.33 1.9398-1616.6 235-2425 19.826v15.104c0 1.6784-6e-4 3.3568 0 5.0352 1066.7 297.36 2133.3-185.78 3200 111.58v-60.418c-258.34-68.765-516.67-91.751-775.01-91.131z"
       fill="#bfbfbf"
       opacity=".25"
       id="path85" />
    <path
       d="m-317.5 165.2c282.22 78.499 564.44-49.508 846.67 28.991v-30.372c-282.22-71.75-564.44 63.008-846.67-8.7422z"
       fill="url(#radialGradient234)"
       opacity=".33"
       id="path87" />
    <path
       d="m-317.5 154.81c282.22 71.572 564.44-63.362 846.67 8.2095v-31.971c-282.22-64.468-564.44 77.572-846.67 13.104z"
       fill="#ff8000"
       id="path89" />
    <path
       transform="scale(.26458)"
       d="m1375 430.21c-325 0.51136-650 45.177-974.99 89.842-533.33 73.296-1066.7 146.59-1600 24.764v20.141c533.34 128.54 1066.7 61.958 1600-4.625 533.33-66.583 1066.7-133.17 1600-4.625v-60.418c-208.34-47.589-416.67-65.406-625.01-65.078z"
       fill="#fff"
       opacity=".2"
       id="path91" />
    <path
       transform="scale(.26458)"
       d="m1325 482.56c-308.33 0.79028-616.66 39.284-924.99 77.777-533.33 66.583-1066.7 133.17-1600 4.625v20.139c533.34 135.25 1066.7 75.385 1600 15.516 533.33-59.87 1066.7-119.74 1600 15.514v-60.418c-225-54.228-450.01-73.729-675.01-73.152z"
       fill="#808080"
       opacity=".2"
       id="path93" />
    <path
       d="m-317.5 154.54c282.22 71.394 564.44-63.718 846.67 7.6764v-30.372c-282.22-64.645-564.44 77.217-846.67 12.571z"
       fill="url(#radialGradient244)"
       opacity=".33"
       id="path95" />
    <path
       d="m-317.5 144.15c282.22 64.468 564.44-77.572 846.67-13.104v-31.97c-282.22-57.363-564.44 91.781-846.67 34.418z"
       fill="#6cb324"
       id="path97" />
    <path
       transform="scale(.26458)"
       d="m1475 323.88c-891.67-2.2742-1783.3 361.9-2675 180.66-6e-4 1.6784 0 3.3568 0 5.0352v15.104c1066.7 230.23 2133.3-320.04 3200-89.805v-60.418c-175-35.57-350.01-50.13-525.01-50.576z"
       fill="#fff"
       opacity=".25"
       id="path99" />
    <path
       transform="scale(.26458)"
       d="m1425 377.31c-875-0.11526-1750 336.23-2625 147.37v15.105c0 1.6784-6e-4 3.3548 0 5.0332 1066.7 243.66 2133.3-293.19 3200-49.529v-60.414c-191.67-41.37-383.34-57.539-575.01-57.564z"
       fill="#404040"
       opacity=".25"
       id="path101" />
    <path
       d="m-317.5 143.88c282.22 64.29 564.44-77.927 846.67-13.637v-30.372c-282.22-57.541-564.44 91.426-846.67 33.885z"
       fill="url(#radialGradient254)"
       opacity=".33"
       id="path103" />
  </g>
  <g
     transform="translate(318.36,169.33)"
     id="g113">
    <path
       d="m 50.983,144.64 c 0,0 15.653,5.9365 28.384,5.2222 h -0.02328 c 11.072,10.613 22.558,13.692 33.869,11.748 -1.8581,-1.366 -2.7386,-3.0402 -3.4773,-4.4136 12.638,7.2072 18.955,-1.7695 22.852,-4.6584 -1.3406,-1.0883 -2.9764,-0.23883 -5.6748,-3.5161 3.4526,0.4759 5.6991,0.30057 8.8819,0.28505 2.001,-1.8496 5.0168,-3.3098 6.8739,-5.5083 2.2945,-2.7143 5.1989,-6.4135 7.5801,-9.5014 -1.5318,-0.93698 -1.8408,-1.7702 -2.4208,-2.9369 1.4051,0.35701 2.8095,0.53199 4.2231,0.508 1.8888,-3.5719 4.8733,-5.8184 6.8813,-6.7709 -8.3661,-2.9051 -19.081,-2.516 -26.845,-0.92075 -2.5873,2.2144 -2.5082,5.0881 -3.3489,9.8266 -1.6274,-2.1191 -2.3573,-4.7784 -1.3974,-8.4533 -5.4695,1.7226 -10.779,4.04 -15.907,6.4452 -1.9918,0.92851 -6.8739,4.4206 -9.7233,5.5245 -1.3571,2.0239 -2.4843,3.9613 -3.4128,5.8187 -0.05574,-1.7148 -0.32561,-3.398 -0.19085,-5.152 -9.3899,1.4683 -14.518,3.9765 -20.375,9.1839 -12.541,0.0392 -26.598,-5.3421 -26.488,-7.2789 z"
       fill="#343434"
       filter="url(#filter2795)"
       id="path107"
       style="fill:#343434;fill-opacity:1;filter:url(#filter2795)" />
    <path
       d="m 107.19,161.89 c -9.6464,0 -18.801,-4.0873 -27.21,-12.148 l -0.16651,-0.1591 -0.23001,0.0123 c -0.68968,0.0384 -1.4101,0.0582 -2.1428,0.0582 -10.933,0 -23.368,-4.2954 -25.638,-5.1139 l 0.15875,-2.7598 c 3.2332,2.4208 15.071,6.3821 25.905,6.3821 l 0.13547,-0.001 h 0.20038 l 0.14993,-0.13335 c 5.8882,-5.2352 10.862,-7.5385 19.463,-8.9535 -0.02469,0.95321 0.44309,5.7482 0.46143,6.331 0,0 2.7894,-5.2994 4.052,-7.1931 1.7272,-0.70167 4.0661,-2.1558 6.1373,-3.4452 1.3794,-0.85796 2.6829,-1.6676 3.4604,-2.031 4.3603,-2.0447 9.5126,-4.3529 14.96,-6.1366 -0.60466,3.0939 -0.0448,5.7143 1.7,7.9872 l 0.7306,0.95285 0.20991,-1.1822 c 0.15875,-0.89006 0.28433,-1.7152 0.4011,-2.4832 0.48366,-3.1704 0.80681,-5.2846 2.6695,-6.9448 3.8538,-0.7821 8.038,-1.1956 12.111,-1.1956 4.8578,0 9.3754,0.6029 13.157,1.7487 -1.9699,1.1973 -4.2796,3.2674 -5.8642,6.1207 -1.2351,-0.005 -2.504,-0.1718 -3.7754,-0.49494 l -1.1155,-0.28258 0.51189,1.0319 0.13934,0.28187 c 0.44768,0.91687 0.84138,1.7233 1.9883,2.5474 -2.9538,3.8216 -5.3795,6.8587 -7.2171,9.0322 -1.0425,1.2333 -2.5005,2.2497 -3.9127,3.2336 -0.95356,0.66428 -1.9371,1.3487 -2.7633,2.0877 -0.58314,0.004 -1.1338,0.0131 -1.6693,0.0219 -0.66746,0.0113 -1.3099,0.0208 -1.9505,0.0208 -1.3014,0 -2.9111,-0.0374 -4.9833,-0.3235 l -1.3416,-0.18521 0.86078,1.0453 c 1.868,2.2687 3.2752,2.6748 4.4051,3.0021 0.27446,0.0794 0.51894,0.15099 0.7426,0.24095 -0.4378,0.36407 -0.89994,0.77717 -1.3794,1.2068 -2.6395,2.3618 -6.2551,5.5961 -11.478,5.5961 -2.733,0 -5.6921,-0.89641 -8.7965,-2.667 l -1.6006,-0.91334 0.87207,1.6228 0.0342,0.0639 c 0.61383,1.143 1.3518,2.5164 2.6726,3.7581 -1.7011,0.23848 -3.3951,0.36018 -5.0542,0.36018"
       fill="url(#linearGradient580)"
       id="path109"
       style="filter:url(#filter123)" />
    <path
       d="m 107.19,161.89 c -9.6464,0 -18.801,-4.0873 -27.21,-12.148 l -0.16651,-0.1591 -0.23001,0.0123 c -0.68968,0.0384 -1.4101,0.0582 -2.1428,0.0582 -10.933,0 -23.368,-4.2954 -25.638,-5.1139 l 0.15875,-2.7598 c 3.2332,2.4208 15.071,6.3821 25.905,6.3821 l 0.13547,-0.001 h 0.20038 l 0.14993,-0.13335 c 5.8882,-5.2352 10.862,-7.5385 19.463,-8.9535 -0.02469,0.95321 0.44309,5.7482 0.46143,6.331 0,0 2.7894,-5.2994 4.052,-7.1931 1.7272,-0.70167 4.0661,-2.1558 6.1373,-3.4452 1.3794,-0.85796 2.6829,-1.6676 3.4604,-2.031 4.3603,-2.0447 9.5126,-4.3529 14.96,-6.1366 -0.60466,3.0939 -0.0448,5.7143 1.7,7.9872 l 0.7306,0.95285 0.20991,-1.1822 c 0.15875,-0.89006 0.28433,-1.7152 0.4011,-2.4832 0.48366,-3.1704 0.80681,-5.2846 2.6695,-6.9448 3.8538,-0.7821 8.038,-1.1956 12.111,-1.1956 4.8578,0 9.3754,0.6029 13.157,1.7487 -1.9699,1.1973 -4.2796,3.2674 -5.8642,6.1207 -1.2351,-0.005 -2.504,-0.1718 -3.7754,-0.49494 l -1.1155,-0.28258 0.51189,1.0319 0.13934,0.28187 c 0.44768,0.91687 0.84138,1.7233 1.9883,2.5474 -2.9538,3.8216 -5.3795,6.8587 -7.2171,9.0322 -1.0425,1.2333 -2.5005,2.2497 -3.9127,3.2336 -0.95356,0.66428 -1.9371,1.3487 -2.7633,2.0877 -0.58314,0.004 -1.1338,0.0131 -1.6693,0.0219 -0.66746,0.0113 -1.3099,0.0208 -1.9505,0.0208 -1.3014,0 -2.9111,-0.0374 -4.9833,-0.3235 l -1.3416,-0.18521 0.86078,1.0453 c 1.868,2.2687 3.2752,2.6748 4.4051,3.0021 0.27446,0.0794 0.51894,0.15099 0.7426,0.24095 -0.4378,0.36407 -0.89994,0.77717 -1.3794,1.2068 -2.6395,2.3618 -6.2551,5.5961 -11.478,5.5961 -2.733,0 -5.6921,-0.89641 -8.7965,-2.667 l -1.6006,-0.91334 0.87207,1.6228 0.0342,0.0639 c 0.61383,1.143 1.3518,2.5164 2.6726,3.7581 -1.7011,0.23848 -3.3951,0.36018 -5.0542,0.36018"
       fill="url(#radialGradient516)"
       opacity="0.5"
       id="path111"
       style="filter:url(#filter119)" />
  </g>
</svg>
