<?xml version="1.0" encoding="UTF-8" standalone="no"?>
<svg
   xmlns:dc="http://purl.org/dc/elements/1.1/"
   xmlns:cc="http://creativecommons.org/ns#"
   xmlns:rdf="http://www.w3.org/1999/02/22-rdf-syntax-ns#"
   xmlns:svg="http://www.w3.org/2000/svg"
   xmlns="http://www.w3.org/2000/svg"
   xmlns:xlink="http://www.w3.org/1999/xlink"
   xmlns:sodipodi="http://sodipodi.sourceforge.net/DTD/sodipodi-0.dtd"
   xmlns:inkscape="http://www.inkscape.org/namespaces/inkscape"
   version="1.1"
   id="svg1484"
   inkscape:version="1.0.1 (3bc2e813f5, 2020-09-07)">
    <style type="text/css" >
        <![CDATA[
            .MainClass {
                fill:   #29333d;
            }
        ]]>
    </style>
  <defs
     id="defs1436">
    <linearGradient
       id="linearGradient38"
       x1="0.57143337"
       x2="0.42857337"
       y1="-0.5"
       y2="0.50000674"
       gradientTransform="matrix(740.83,740.83,-740.83,740.83,-265.44,-222.25)"
       gradientUnits="userSpaceOnUse">
      <stop
         stop-color="#fff"
         stop-opacity=".75"
         offset="0"
         id="stop1373" />
      <stop
         stop-color="#fff"
         stop-opacity="0"
         offset="1"
         id="stop1375" />
    </linearGradient>
    <radialGradient
       id="radialGradient70"
       cx="-.87312"
       cy=".72534"
       r="1"
       gradientTransform="matrix(846.67,-1.0765e-5,1.1097e-5,635,420.88,5.0772)"
       gradientUnits="userSpaceOnUse">
      <stop
         stop-color="#fff"
         stop-opacity=".75"
         offset="0"
         id="stop1378" />
      <stop
         stop-color="#fff"
         stop-opacity="0"
         offset="1"
         id="stop1380" />
    </radialGradient>
    <radialGradient
       id="radialGradient234"
       cx="0"
       cy="0"
       r="1"
       gradientTransform="matrix(299.97,0,0,284.97,105.83,168.12)"
       gradientUnits="userSpaceOnUse">
      <stop
         stop-color="#fff"
         offset="0"
         id="stop1383" />
      <stop
         stop-color="#fff"
         stop-opacity="0"
         offset="1"
         id="stop1385" />
    </radialGradient>
    <radialGradient
       id="radialGradient244"
       cx="0"
       cy="0"
       r="1"
       gradientTransform="matrix(300.22,0,0,285.21,104.97,145.3)"
       gradientUnits="userSpaceOnUse">
      <stop
         stop-color="#fff"
         offset="0"
         id="stop1388" />
      <stop
         stop-color="#fff"
         stop-opacity="0"
         offset="1"
         id="stop1390" />
    </radialGradient>
    <radialGradient
       id="radialGradient254"
       cx="0"
       cy="0"
       r="1"
       gradientTransform="matrix(300.63,0,0,285.6,104.97,123.7)"
       gradientUnits="userSpaceOnUse">
      <stop
         stop-color="#fff"
         offset="0"
         id="stop1393" />
      <stop
         stop-color="#fff"
         stop-opacity="0"
         offset="1"
         id="stop1395" />
    </radialGradient>
    <radialGradient
       id="radialGradient516"
       cx="-.12697"
       cy=".0022712"
       r="1"
       gradientTransform="matrix(66.846,-6.8682,5.225,50.854,107.29,164.76)"
       gradientUnits="userSpaceOnUse">
      <stop
         stop-color="#fff"
         stop-opacity="0"
         offset="0"
         id="stop1398" />
      <stop
         stop-color="#fff"
         stop-opacity=".5"
         offset=".28078"
         id="stop1400" />
      <stop
         stop-color="#fff"
         stop-opacity=".75"
         offset=".48"
         id="stop1402" />
      <stop
         stop-color="#feffff"
         stop-opacity=".2"
         offset=".52"
         id="stop1404" />
      <stop
         stop-color="#fff"
         stop-opacity="0"
         offset="1"
         id="stop1406" />
    </radialGradient>
    <linearGradient
       id="linearGradient580"
       x2="1"
       gradientTransform="matrix(-21.431,-20.902,20.902,-21.431,128.52,158.12)"
       gradientUnits="userSpaceOnUse">
      <stop
         stop-color="#636466"
         offset="0"
         id="stop1409" />
      <stop
         stop-color="#fff"
         stop-opacity=".75"
         offset="1"
         id="stop1411" />
    </linearGradient>
    <filter
       id="filter2705"
       x="-.013577"
       y="-.10331"
       width="1.0272"
       height="1.2066"
       color-interpolation-filters="sRGB">
      <feGaussianBlur
         stdDeviation="4.7896727"
         id="feGaussianBlur1414" />
    </filter>
    <filter
       id="filter2795"
       x="-8.1796e-5"
       y="-.00022517"
       width="1.0002"
       height="1.0005"
       color-interpolation-filters="sRGB">
      <feGaussianBlur
         stdDeviation="0.0036790726"
         id="feGaussianBlur1417" />
    </filter>
    <mask
       id="mask2827"
       maskUnits="userSpaceOnUse">
      <rect
         x="-318.36"
         y="84.388"
         width="847.53"
         height="117.06"
         fill="url(#linearGradient2831)"
         stroke-width=".33701"
         id="rect1420" />
    </mask>
    <linearGradient
       id="linearGradient2831"
       x1="-318.14"
       x2="529.17"
       y1="142.92"
       y2="142.92"
       gradientTransform="matrix(1.0003 0 0 1 -.13913 0)"
       gradientUnits="userSpaceOnUse">
      <stop
         offset=".05"
         id="stop1423" />
      <stop
         stop-color="#fff"
         offset=".5"
         id="stop1425" />
      <stop
         offset=".95"
         id="stop1427" />
    </linearGradient>
    <filter
       id="filter119"
       x="-.0081585"
       y="-.022678"
       width="1.0163"
       height="1.0454"
       color-interpolation-filters="sRGB">
      <feGaussianBlur
         stdDeviation="0.36054868"
         id="feGaussianBlur1430" />
    </filter>
    <filter
       id="filter123"
       x="-.0081585"
       y="-.022678"
       width="1.0163"
       height="1.0454"
       color-interpolation-filters="sRGB">
      <feGaussianBlur
         stdDeviation="0.36054868"
         id="feGaussianBlur1433" />
    </filter>
    <linearGradient
       inkscape:collect="always"
       xlink:href="#radialGradient70"
       id="linearGradient1488"
       x1="-318.35999"
       y1="-169.33"
       x2="528.31"
       y2="465.67001"
       gradientUnits="userSpaceOnUse" />
  </defs>
  <metadata
     id="metadata1438">
    <rdf:RDF>
      <cc:Work
         rdf:about="">
        <dc:format>image/svg+xml</dc:format>
        <dc:type
           rdf:resource="http://purl.org/dc/dcmitype/StillImage" />
        <dc:title></dc:title>
      </cc:Work>
    </rdf:RDF>
  </metadata>
  <g
     transform="translate(318.36,169.33)"
     id="g1446">
    <path
       d="m -318.36,465.67 h 846.67 v -635 h -846.67 z"
       class="MainClass"
       id="path1440" />
    <path
       d="m -318.36,-169.33 h 846.67 v 635 h -846.67 z"
       fill="url(#linearGradient38)"
       opacity="0.05"
       id="path1442"
       style="fill:url(#linearGradient38)" />
    <path
       d="m -318.36,-169.33 h 846.67 v 635 h -846.67 z"
       fill="url(#radialGradient70)"
       opacity="0.05"
       id="path1444"
       style="fill:url(#linearGradient1488);fill-opacity:1" />
  </g>
  <g
     transform="translate(318.36,169.33)"
     mask="url(#mask2827)"
     opacity="0.2"
     id="g1474">
    <path
       d="m -317.5,133.49 v 31.97 c 282.22,79.492 564.44,-45.89 846.67,36.865 V 106.414 C 246.95,44.972 -35.27,191.669 -317.5,133.49"
       filter="url(#filter2705)"
       opacity="0.33"
       id="path1448" />
    <path
       d="m -317.5,165.46 c 282.22,78.677 564.44,-49.154 846.67,29.523 v -31.97 C 246.95,91.441 -35.27,226.376 -317.5,154.8035 Z"
       fill="#ffee33"
       id="path1450" />
    <path
       transform="scale(0.26458)"
       d="m 1275,534.3 c -825,2.3416 -1650,260.02 -2475,50.797 -6e-4,1.6784 0,3.3548 0,5.0332 v 15.105 c 1066.7,283.93 2133.3,-212.63 3200,71.305 v -60.414 c -241.67,-61.287 -483.34,-82.512 -725.01,-81.826 z"
       fill="#ffffff"
       opacity="0.25"
       id="path1452" />
    <path
       transform="scale(0.26458)"
       d="m 1225,585.41 c -808.33,1.9398 -1616.6,235 -2425,19.826 v 15.104 c 0,1.6784 -6e-4,3.3568 0,5.0352 1066.7,297.36 2133.3,-185.78 3200,111.58 v -60.418 c -258.34,-68.765 -516.67,-91.751 -775.01,-91.131 z"
       fill="#bfbfbf"
       opacity="0.25"
       id="path1454" />
    <path
       d="m -317.5,165.2 c 282.22,78.499 564.44,-49.508 846.67,28.991 V 163.819 C 246.95,92.069 -35.27,226.827 -317.5,155.0768 Z"
       fill="url(#radialGradient234)"
       opacity="0.33"
       id="path1456" />
    <path
       d="m -317.5,154.81 c 282.22,71.572 564.44,-63.362 846.67,8.2095 v -31.971 c -282.22,-64.468 -564.44,77.572 -846.67,13.104 z"
       fill="#ff8000"
       id="path1458" />
    <path
       d="m 362.93085,113.82496 c -85.9885,0.1353 -171.977,11.95293 -257.96285,23.7704 -141.108451,19.39265 -282.22749,38.78478 -423.328,6.55206 v 5.3289 c 141.1111,34.00912 282.227486,16.39285 423.328,-1.22368 141.10845,-17.61653 282.22749,-35.23412 423.328,-1.22368 v -15.9854 C 473.1734,118.45247 418.05345,113.73844 362.93085,113.82523 Z"
       fill="#ffffff"
       opacity="0.2"
       id="path1460"
       style="stroke-width:0.26458" />
    <path
       d="m 349.70185,127.67572 c -81.57795,0.2091 -163.1559,10.39377 -244.73385,20.57824 -141.108451,17.61653 -282.22749,35.23412 -423.328,1.22369 v 5.32837 c 141.1111,35.78445 282.227486,19.94537 423.328,4.10523 141.10845,-15.84041 282.22749,-31.68081 423.328,4.10469 V 147.03055 C 468.7655,132.6829 409.23235,127.52333 349.70185,127.67599 Z"
       fill="#808080"
       opacity="0.2"
       id="path1462"
       style="stroke-width:0.26458" />
    <path
       d="m -318.36,154.54 c 282.22,71.394 564.44,-63.718 846.67,7.6764 v -30.372 c -282.22,-64.645 -564.44,77.217 -846.67,12.571 z"
       fill="url(#radialGradient244)"
       opacity="0.33"
       id="path1464"
       style="fill:url(#radialGradient244)" />
    <path
       d="M -318.36,144.15 C -36.14,208.618 246.08,66.578 528.31,131.046 V 99.076 C 246.09,41.713 -36.13,190.857 -318.36,133.494 Z"
       fill="#6cb324"
       id="path1466" />
    <path
       d="m 389.39157,85.69217 c -235.91805,-0.601707 -471.825513,95.7515 -707.7515,47.79902 -1.6e-4,0.44407 0,0.88815 0,1.33222 v 3.99621 c 282.227487,60.91426 564.42851,-84.67618 846.656,-23.7606 V 99.073621 C 481.99457,89.662511 435.69042,85.810226 389.38892,85.692223 Z"
       fill="#ffffff"
       opacity="0.25"
       id="path1468"
       style="stroke-width:0.26458" />
    <path
       d="m 376.16257,99.82868 c -231.5075,-0.0305 -463.014999,88.95973 -694.5225,38.99115 v 3.99649 c 0,0.44407 -1.6e-4,0.88761 0,1.33168 282.227487,64.46756 564.42851,-77.572211 846.656,-13.10438 V 115.05928 C 477.58402,104.11361 426.87197,99.835612 376.15992,99.828997 Z"
       fill="#404040"
       opacity="0.25"
       id="path1470"
       style="stroke-width:0.26458" />
    <path
       d="M -318.36,143.88 C -36.14,208.17 246.08,65.953 528.31,130.243 V 99.871 C 246.09,42.33 -36.13,191.297 -318.36,133.756 Z"
       fill="url(#radialGradient254)"
       opacity="0.33"
       id="path1472"
       style="fill:url(#radialGradient254)" />
  </g>
  <g
     transform="translate(318.06263,169.13202)"
     id="g1482">
    <path
       d="m 50.983,144.64 c 0,0 15.653,5.9365 28.384,5.2222 h -0.02328 c 11.072,10.613 22.558,13.692 33.869,11.748 -1.8581,-1.366 -2.7386,-3.0402 -3.4773,-4.4136 12.638,7.2072 18.955,-1.7695 22.852,-4.6584 -1.3406,-1.0883 -2.9764,-0.23883 -5.6748,-3.5161 3.4526,0.4759 5.6991,0.30057 8.8819,0.28505 2.001,-1.8496 5.0168,-3.3098 6.8739,-5.5083 2.2945,-2.7143 5.1989,-6.4135 7.5801,-9.5014 -1.5318,-0.93698 -1.8408,-1.7702 -2.4208,-2.9369 1.4051,0.35701 2.8095,0.53199 4.2231,0.508 1.8888,-3.5719 4.8733,-5.8184 6.8813,-6.7709 -8.3661,-2.9051 -19.081,-2.516 -26.845,-0.92075 -2.5873,2.2144 -2.5082,5.0881 -3.3489,9.8266 -1.6274,-2.1191 -2.3573,-4.7784 -1.3974,-8.4533 -5.4695,1.7226 -10.779,4.04 -15.907,6.4452 -1.9918,0.92851 -6.8739,4.4206 -9.7233,5.5245 -1.3571,2.0239 -2.4843,3.9613 -3.4128,5.8187 -0.05574,-1.7148 -0.32561,-3.398 -0.19085,-5.152 -9.3899,1.4683 -14.518,3.9765 -20.375,9.1839 -12.541,0.0392 -26.598,-5.3421 -26.488,-7.2789 z"
       fill="#343434"
       filter="url(#filter2795)"
       id="path1476" />
    <path
       d="m 107.19,161.89 c -9.6464,0 -18.801,-4.0873 -27.21,-12.148 l -0.16651,-0.1591 -0.23001,0.0123 c -0.68968,0.0384 -1.4101,0.0582 -2.1428,0.0582 -10.933,0 -23.368,-4.2954 -25.638,-5.1139 l 0.15875,-2.7598 c 3.2332,2.4208 15.071,6.3821 25.905,6.3821 l 0.13547,-0.001 h 0.20038 l 0.14993,-0.13335 c 5.8882,-5.2352 10.862,-7.5385 19.463,-8.9535 -0.02469,0.95321 0.44309,5.7482 0.46143,6.331 0,0 2.7894,-5.2994 4.052,-7.1931 1.7272,-0.70167 4.0661,-2.1558 6.1373,-3.4452 1.3794,-0.85796 2.6829,-1.6676 3.4604,-2.031 4.3603,-2.0447 9.5126,-4.3529 14.96,-6.1366 -0.60466,3.0939 -0.0448,5.7143 1.7,7.9872 l 0.7306,0.95285 0.20991,-1.1822 c 0.15875,-0.89006 0.28433,-1.7152 0.4011,-2.4832 0.48366,-3.1704 0.80681,-5.2846 2.6695,-6.9448 3.8538,-0.7821 8.038,-1.1956 12.111,-1.1956 4.8578,0 9.3754,0.6029 13.157,1.7487 -1.9699,1.1973 -4.2796,3.2674 -5.8642,6.1207 -1.2351,-0.005 -2.504,-0.1718 -3.7754,-0.49494 l -1.1155,-0.28258 0.51189,1.0319 0.13934,0.28187 c 0.44768,0.91687 0.84138,1.7233 1.9883,2.5474 -2.9538,3.8216 -5.3795,6.8587 -7.2171,9.0322 -1.0425,1.2333 -2.5005,2.2497 -3.9127,3.2336 -0.95356,0.66428 -1.9371,1.3487 -2.7633,2.0877 -0.58314,0.004 -1.1338,0.0131 -1.6693,0.0219 -0.66746,0.0113 -1.3099,0.0208 -1.9505,0.0208 -1.3014,0 -2.9111,-0.0374 -4.9833,-0.3235 l -1.3416,-0.18521 0.86078,1.0453 c 1.868,2.2687 3.2752,2.6748 4.4051,3.0021 0.27446,0.0794 0.51894,0.15099 0.7426,0.24095 -0.4378,0.36407 -0.89994,0.77717 -1.3794,1.2068 -2.6395,2.3618 -6.2551,5.5961 -11.478,5.5961 -2.733,0 -5.6921,-0.89641 -8.7965,-2.667 l -1.6006,-0.91334 0.87207,1.6228 0.0342,0.0639 c 0.61383,1.143 1.3518,2.5164 2.6726,3.7581 -1.7011,0.23848 -3.3951,0.36018 -5.0542,0.36018"
       fill="url(#linearGradient580)"
       filter="url(#filter123)"
       id="path1478"
       style="fill:url(#linearGradient580)" />
    <path
       d="m 107.19,161.89 c -9.6464,0 -18.801,-4.0873 -27.21,-12.148 l -0.16651,-0.1591 -0.23001,0.0123 c -0.68968,0.0384 -1.4101,0.0582 -2.1428,0.0582 -10.933,0 -23.368,-4.2954 -25.638,-5.1139 l 0.15875,-2.7598 c 3.2332,2.4208 15.071,6.3821 25.905,6.3821 l 0.13547,-0.001 h 0.20038 l 0.14993,-0.13335 c 5.8882,-5.2352 10.862,-7.5385 19.463,-8.9535 -0.02469,0.95321 0.44309,5.7482 0.46143,6.331 0,0 2.7894,-5.2994 4.052,-7.1931 1.7272,-0.70167 4.0661,-2.1558 6.1373,-3.4452 1.3794,-0.85796 2.6829,-1.6676 3.4604,-2.031 4.3603,-2.0447 9.5126,-4.3529 14.96,-6.1366 -0.60466,3.0939 -0.0448,5.7143 1.7,7.9872 l 0.7306,0.95285 0.20991,-1.1822 c 0.15875,-0.89006 0.28433,-1.7152 0.4011,-2.4832 0.48366,-3.1704 0.80681,-5.2846 2.6695,-6.9448 3.8538,-0.7821 8.038,-1.1956 12.111,-1.1956 4.8578,0 9.3754,0.6029 13.157,1.7487 -1.9699,1.1973 -4.2796,3.2674 -5.8642,6.1207 -1.2351,-0.005 -2.504,-0.1718 -3.7754,-0.49494 l -1.1155,-0.28258 0.51189,1.0319 0.13934,0.28187 c 0.44768,0.91687 0.84138,1.7233 1.9883,2.5474 -2.9538,3.8216 -5.3795,6.8587 -7.2171,9.0322 -1.0425,1.2333 -2.5005,2.2497 -3.9127,3.2336 -0.95356,0.66428 -1.9371,1.3487 -2.7633,2.0877 -0.58314,0.004 -1.1338,0.0131 -1.6693,0.0219 -0.66746,0.0113 -1.3099,0.0208 -1.9505,0.0208 -1.3014,0 -2.9111,-0.0374 -4.9833,-0.3235 l -1.3416,-0.18521 0.86078,1.0453 c 1.868,2.2687 3.2752,2.6748 4.4051,3.0021 0.27446,0.0794 0.51894,0.15099 0.7426,0.24095 -0.4378,0.36407 -0.89994,0.77717 -1.3794,1.2068 -2.6395,2.3618 -6.2551,5.5961 -11.478,5.5961 -2.733,0 -5.6921,-0.89641 -8.7965,-2.667 l -1.6006,-0.91334 0.87207,1.6228 0.0342,0.0639 c 0.61383,1.143 1.3518,2.5164 2.6726,3.7581 -1.7011,0.23848 -3.3951,0.36018 -5.0542,0.36018"
       fill="url(#radialGradient516)"
       filter="url(#filter119)"
       opacity="0.5"
       id="path1480"
       style="fill:url(#radialGradient516)" />
  </g>
</svg>
