<?xml version="1.0" encoding="utf-8"?>
<!-- Generator: Adobe Illustrator 22.0.1, SVG Export Plug-In . SVG Version: 6.00 Build 0)  -->
<svg version="1.1" id="レイヤー_1" xmlns="http://www.w3.org/2000/svg" xmlns:xlink="http://www.w3.org/1999/xlink" x="0px"
	 y="0px" viewBox="0 0 400 400" style="enable-background:new 0 0 400 400;" xml:space="preserve">
<style type="text/css">
	.st0{fill:#070707;}
	.st1{fill:#111111;}
</style>
<rect class="st0" width="400" height="400"/>
<path class="st1" d="M0,350.8v11c0,0,13.4,5.9,29.7,8.3s33.9,2.4,33.9,2.4s30.3,25.8,49.3,27s26.1,0,26.1,0l-7.7-9.8
	c0,0,11.6,5.6,20.5,5.6s25.8-8.3,29.7-15.1c0,0-9.8-3.9-11-9.5h20.2c0,0,13.1-10.1,18.4-15.4c5.3-5.3,13.1-13.7,13.1-16.3l-4.8-7.4
	h9.8c0,0,3-5.9,5.3-8.3c2.4-2.4,9.2-6.5,9.2-6.5s-7.1-6.2-28.2-6.2c-19.1,0-35,3.6-35.9,8.3s-3.6,18.4-3.6,18.4s-5.9-6.2-3.6-18.1
	c0,0-16.3,2.4-33.6,11.9s-25.2,16.3-30,25.5v-10.1c0,0-16.6,0.3-28.2,7.1S60.5,367,60.5,367s-16,0-30.3-4.2
	C16,358.5,0,350.8,0,350.8z"/>
<path class="st1" d="M350.8,400h11c0,0,5.9-13.4,8.3-29.7s2.4-33.9,2.4-33.9s25.8-30.3,27-49.3s0-26.1,0-26.1l-9.8,7.7
	c0,0,5.6-11.6,5.6-20.5s-8.3-25.8-15.1-29.7c0,0-3.9,9.8-9.5,11v-20.2c0,0-10.1-13.1-15.4-18.4c-5.3-5.3-13.7-13.1-16.3-13.1
	l-7.4,4.8v-9.8c0,0-5.9-3-8.3-5.3c-2.4-2.4-6.5-9.2-6.5-9.2s-6.2,7.1-6.2,28.2c0,19.1,3.6,35,8.3,35.9s18.4,3.6,18.4,3.6
	s-6.2,5.9-18.1,3.6c0,0,2.4,16.3,11.9,33.6s16.3,25.2,25.5,30h-10.1c0,0,0.3,16.6,7.1,28.2c6.8,11.6,13.4,18.1,13.4,18.1
	s0,16-4.2,30.3C358.5,384,350.8,400,350.8,400z"/>
<path class="st1" d="M400,49.2v-11c0,0-13.4-5.9-29.7-8.3s-33.9-2.4-33.9-2.4s-30.3-25.8-49.3-27s-26.1,0-26.1,0l7.7,9.8
	c0,0-11.6-5.6-20.5-5.6s-25.8,8.3-29.7,15.1c0,0,9.8,3.9,11,9.5h-20.2c0,0-13.1,10.1-18.4,15.4c-5.3,5.3-13.1,13.7-13.1,16.3
	l4.8,7.4h-9.8c0,0-3,5.9-5.3,8.3c-2.4,2.4-9.2,6.5-9.2,6.5s7.1,6.2,28.2,6.2c19.1,0,35-3.6,35.9-8.3s3.6-18.4,3.6-18.4
	s5.9,6.2,3.6,18.1c0,0,16.3-2.4,33.6-11.9s25.2-16.3,30-25.5v10.1c0,0,16.6-0.3,28.2-7.1S339.5,33,339.5,33s16,0,30.3,4.2
	C384,41.5,400,49.2,400,49.2z"/>
<path class="st1" d="M49.2,0h-11c0,0-5.9,13.4-8.3,29.7s-2.4,33.9-2.4,33.9s-25.8,30.3-27,49.3s0,26.1,0,26.1l9.8-7.7
	c0,0-5.6,11.6-5.6,20.5s8.3,25.8,15.1,29.7c0,0,3.9-9.8,9.5-11v20.2c0,0,10.1,13.1,15.4,18.4c5.3,5.3,13.7,13.1,16.3,13.1l7.4-4.8
	v9.8c0,0,5.9,3,8.3,5.3c2.4,2.4,6.5,9.2,6.5,9.2s6.2-7.1,6.2-28.2c0-19.1-3.6-35-8.3-35.9c-4.8-0.9-18.4-3.6-18.4-3.6
	s6.2-5.9,18.1-3.6c0,0-2.4-16.3-11.9-33.6s-16.3-25.2-25.5-30h10.1c0,0-0.3-16.6-7.1-28.2s-13.2-18-13.2-18s0-16,4.2-30.3
	S49.2,0,49.2,0z"/>
<g>
	<path class="st1" d="M145.7,272.4h-4c0,0-2.2-4.9-3-10.8c-0.9-5.9-0.9-12.3-0.9-12.3s-9.4-11-9.8-17.9c-0.4-6.9,0-9.5,0-9.5
		l3.6,2.8c0,0-2-4.2-2-7.4s3-9.4,5.5-10.8c0,0,1.4,3.6,3.4,4v-7.3c0,0,3.7-4.7,5.6-6.7c1.9-1.9,5-4.7,5.9-4.7l2.7,1.7v-3.6
		c0,0,2.2-1.1,3-1.9c0.9-0.9,2.4-3.3,2.4-3.3s2.3,2.6,2.3,10.2c0,6.9-1.3,12.7-3,13s-6.7,1.3-6.7,1.3s2.3,2.2,6.6,1.3
		c0,0-0.9,5.9-4.3,12.2c-3.4,6.3-5.9,9.2-9.3,10.9h3.7c0,0-0.1,6-2.6,10.2s-4.9,6.6-4.9,6.6s0,5.8,1.5,11
		C142.9,266.6,145.7,272.4,145.7,272.4z"/>
	<path class="st1" d="M127.8,145.1v-4c0,0,4.9-2.2,10.8-3c5.9-0.9,12.3-0.9,12.3-0.9s11-9.4,17.9-9.8s9.5,0,9.5,0l-2.8,3.6
		c0,0,4.2-2,7.4-2s9.4,3,10.8,5.5c0,0-3.6,1.4-4,3.4h7.3c0,0,4.7,3.7,6.7,5.6c1.9,1.9,4.7,5,4.7,5.9l-1.7,2.7h3.6c0,0,1.1,2.2,1.9,3
		c0.9,0.9,3.3,2.4,3.3,2.4s-2.6,2.3-10.2,2.3c-6.9,0-12.7-1.3-13-3C192,155,191,150,191,150s-2.2,2.3-1.3,6.6c0,0-5.9-0.9-12.2-4.3
		c-6.3-3.4-9.2-5.9-10.9-9.3v3.7c0,0-6-0.1-10.2-2.6s-6.6-4.9-6.6-4.9s-5.8,0-11,1.5S127.8,145.1,127.8,145.1z"/>
	<path class="st1" d="M255.1,127.2h4c0,0,2.2,4.9,3,10.8s0.9,12.3,0.9,12.3s9.4,11,9.8,17.9s0,9.5,0,9.5l-3.6-2.8c0,0,2,4.2,2,7.4
		s-3,9.4-5.5,10.8c0,0-1.4-3.6-3.4-4v7.3c0,0-3.7,4.7-5.6,6.7c-1.9,1.9-5,4.7-5.9,4.7l-2.7-1.7v3.6c0,0-2.2,1.1-3,1.9
		s-2.4,3.3-2.4,3.3s-2.3-2.6-2.3-10.2c0-6.9,1.3-12.7,3-13s6.7-1.3,6.7-1.3s-2.3-2.2-6.6-1.3c0,0,0.9-5.9,4.3-12.2
		c3.4-6.3,5.9-9.2,9.3-10.9h-3.7c0,0,0.1-6,2.6-10.2c2.5-4.2,4.9-6.6,4.9-6.6s0-5.8-1.5-11S255.1,127.2,255.1,127.2z"/>
	<path class="st1" d="M273,254.9v4c0,0-4.9,2.2-10.8,3c-5.9,0.9-12.3,0.9-12.3,0.9s-11,9.4-17.9,9.8s-9.5,0-9.5,0l2.8-3.6
		c0,0-4.2,2-7.4,2s-9.4-3-10.8-5.5c0,0,3.6-1.4,4-3.4h-7.3c0,0-4.7-3.7-6.7-5.6c-1.9-1.9-4.7-5-4.7-5.9l1.7-2.7h-3.6
		c0,0-1.1-2.2-1.9-3c-0.9-0.9-3.3-2.4-3.3-2.4s2.6-2.3,10.2-2.3c6.9,0,12.7,1.3,13,3s1.3,6.7,1.3,6.7s2.2-2.3,1.3-6.6
		c0,0,5.9,0.9,12.2,4.3c6.3,3.4,9.2,5.9,10.9,9.3v-3.7c0,0,6,0.1,10.2,2.6c4.2,2.5,6.6,4.9,6.6,4.9s5.8,0,11-1.5
		S273,254.9,273,254.9z"/>
</g>
</svg>
