<?xml version="1.0" encoding="UTF-8" standalone="no"?>
<svg
   version="1.0"
   width="1600.000000pt"
   height="1200.000000pt"
   viewBox="0 0 1600.000000 1200.000000"
   preserveAspectRatio="xMidYMid meet"
   id="svg322"
   sodipodi:docname="20-years-leaf-white.svg"
   inkscape:version="1.1.1 (3bf5ae0d25, 2021-09-20)"
   xmlns:inkscape="http://www.inkscape.org/namespaces/inkscape"
   xmlns:sodipodi="http://sodipodi.sourceforge.net/DTD/sodipodi-0.dtd"
   xmlns="http://www.w3.org/2000/svg"
   xmlns:svg="http://www.w3.org/2000/svg">
  <defs
     id="defs326" />
  <sodipodi:namedview
     id="namedview324"
     pagecolor="#ffffff"
     bordercolor="#666666"
     borderopacity="1.0"
     inkscape:pageshadow="2"
     inkscape:pageopacity="0.0"
     inkscape:pagecheckerboard="0"
     inkscape:document-units="pt"
     showgrid="false"
     inkscape:zoom="0.12398438"
     inkscape:cx="-149.21235"
     inkscape:cy="318.58853"
     inkscape:window-width="1280"
     inkscape:window-height="649"
     inkscape:window-x="-8"
     inkscape:window-y="-8"
     inkscape:window-maximized="1"
     inkscape:current-layer="g825" />
  <g
     transform="translate(0.000000,1200.000000) scale(0.100000,-0.100000)"
     fill="#000000"
     stroke="none"
     id="g320">
    <g
       style="color-interpolation:linearRGB"
       id="g825"
       transform="matrix(7.5,0,0,-7.5,5440.5387,9608.6121)">
      <g
         id="g2330"
         transform="translate(15.613489,118.44514)">
        <path
           d="m 11470,9194 c -429,-113 -874,-352 -1330,-713 -196,-156 -356,-297 -678,-600 l -153,-144 7,-46 c 22,-161 74,-274 227,-489 119,-167 193,-289 183,-299 -10,-11 -130,56 -191,106 -136,112 -275,331 -340,534 l -22,67 -224,-227 c -123,-126 -256,-266 -295,-313 -304,-363 -569,-773 -889,-1375 -32,-60 -83,-155 -112,-210 -67,-124 -82,-168 -89,-258 -16,-184 73,-356 257,-499 129,-100 118,-90 84,-83 -109,23 -256,108 -341,197 -62,64 -129,174 -150,246 -18,62 0,70 -149,-63 -699,-620 -1029,-1015 -1106,-1325 -34,-133 -24,-187 59,-353 4,-8 -88,-52 -353,-167 -767,-332 -1565,-568 -2190,-646 -166,-20 -159,-18 -140,-48 74,-112 319,-147 650,-91 478,81 1121,306 2015,705 63,28 132,58 153,67 20,8 37,18 37,22 0,3 -20,19 -44,34 -45,28 -116,99 -116,116 0,5 109,63 243,130 481,240 963,516 1362,782 710,472 1351,1122 1843,1869 52,80 103,157 114,172 10,15 50,81 89,145 270,446 540,993 805,1628 30,72 66,155 79,185 14,30 56,129 94,220 77,182 93,194 32,24 -183,-511 -417,-1087 -642,-1584 -80,-178 -308,-624 -400,-785 -157,-275 -329,-525 -484,-705 -16,-20 -48,-58 -70,-85 C 8868,4812 8434,4379 8049,4093 7677,3817 7376,3649 6560,3258 l -125,-60 50,-24 c 65,-30 216,-70 358,-95 374,-64 875,32 1601,306 414,157 869,355 1216,530 94,47 95,48 65,58 -183,60 -926,336 -972,361 -42,23 -24,19 103,-19 419,-127 831,-134 1189,-21 77,24 83,28 149,103 191,219 349,539 515,1045 33,103 61,189 61,191 0,2 -28,-2 -62,-9 -131,-28 -305,-11 -468,44 -88,30 -265,110 -258,117 2,2 63,1 137,-3 167,-9 307,0 441,28 112,24 267,74 287,94 13,12 159,424 294,827 165,496 225,797 236,1192 l 6,197 h -119 c -113,0 -253,-11 -319,-24 -29,-6 -29,-6 5,11 19,9 71,34 115,56 87,43 116,62 228,152 l 74,60 5,240 c 4,204 8,252 27,319 20,77 75,191 110,231 43,49 42,50 -39,29 z"
           id="path304"
           transform="matrix(0.13333333,0,0,-0.13333333,-725.40516,1281.1483)" />
        <path
           d="m 4854,7576 c -269,-51 -426,-188 -503,-438 -18,-61 -19,-72 -6,-114 25,-84 85,-122 171,-109 51,7 97,42 123,94 25,50 31,81 45,244 l 11,141 45,14 c 27,9 91,15 160,16 104,1 120,-1 170,-25 70,-33 106,-70 139,-139 22,-47 25,-69 26,-155 0,-263 -141,-456 -740,-1008 -143,-132 -289,-268 -324,-301 l -65,-61 -22,-110 c -13,-60 -23,-113 -24,-117 0,-5 288,-8 639,-8 601,0 640,1 645,18 3,9 17,73 31,142 14,69 28,133 31,142 5,17 -25,18 -499,20 l -503,3 420,345 c 452,372 583,492 664,613 146,219 129,497 -41,667 -55,55 -121,91 -212,115 -83,22 -291,28 -381,11 z"
           id="path306"
           transform="matrix(0.13333333,0,0,-0.13333333,-725.40516,1281.1483)" />
        <path
           d="m 6605,7565 c -409,-89 -737,-563 -806,-1164 -17,-156 -7,-426 21,-521 82,-282 293,-435 575,-417 464,31 840,543 906,1237 14,148 7,336 -16,440 -52,230 -195,382 -400,425 -85,18 -199,18 -280,0 z m 195,-157 c 93,-47 143,-157 162,-356 12,-127 0,-359 -28,-517 -51,-297 -160,-584 -283,-747 -95,-125 -169,-172 -273,-173 -58,0 -72,4 -110,30 -53,38 -92,111 -115,215 -23,105 -23,432 0,591 92,629 399,1082 647,957 z"
           id="path308"
           transform="matrix(0.13333333,0,0,-0.13333333,-725.40516,1281.1483)" />
        <path
           d="m 10417,4103 c -4,-3 -7,-19 -7,-34 0,-26 3,-28 46,-31 l 47,-3 78,-230 78,-230 -26,-140 c -14,-77 -29,-144 -33,-149 -5,-5 -35,-11 -66,-15 -56,-6 -58,-7 -65,-39 l -7,-32 212,2 211,3 3,31 c 3,31 3,31 -52,36 -31,3 -59,7 -62,10 -3,3 6,72 20,152 l 26,145 147,225 148,225 53,7 c 57,7 56,6 66,47 l 7,28 -148,-3 -148,-3 -3,-31 c -3,-30 -1,-32 38,-37 23,-3 44,-8 47,-11 5,-5 -196,-326 -221,-353 -9,-10 -24,30 -65,168 -58,199 -58,199 11,199 40,0 42,2 52,43 l 6,27 h -193 c -107,0 -197,-3 -200,-7 z"
           id="path310"
           transform="matrix(0.13333333,0,0,-0.13333333,-725.40516,1281.1483)" />
        <path
           d="m 12262,3865 -42,-24 -36,21 c -150,88 -449,-182 -495,-448 -24,-141 28,-234 132,-234 62,0 109,23 183,91 l 56,51 v -46 c 0,-66 31,-96 98,-96 60,0 126,40 183,113 43,54 45,60 25,76 -10,9 -23,1 -58,-34 -30,-30 -54,-45 -71,-45 -45,0 -46,-10 43,388 27,120 40,196 34,202 -6,6 -25,0 -52,-15 z m -138,-97 c 19,-8 24,-17 21,-32 -3,-12 -21,-93 -39,-181 l -34,-160 -47,-42 c -52,-48 -97,-64 -136,-51 -36,12 -49,47 -49,129 0,207 158,395 284,337 z"
           id="path312"
           transform="matrix(0.13333333,0,0,-0.13333333,-725.40516,1281.1483)" />
        <path
           d="m 11393,3866 c -98,-32 -167,-89 -227,-190 -67,-112 -84,-282 -37,-374 87,-171 318,-157 446,28 25,36 27,43 13,56 -13,13 -18,12 -49,-17 -98,-92 -235,-89 -275,6 -25,60 -20,69 44,89 79,25 189,77 239,114 110,81 128,219 38,278 -34,22 -139,27 -192,10 z m 109,-73 c 41,-37 10,-136 -60,-192 -42,-32 -157,-91 -181,-91 -30,0 11,133 67,214 52,75 132,107 174,69 z"
           id="path314"
           transform="matrix(0.13333333,0,0,-0.13333333,-725.40516,1281.1483)" />
        <path
           d="m 12578,3843 c -105,-32 -118,-39 -118,-58 0,-20 7,-24 55,-30 30,-3 55,-8 55,-10 0,-3 -25,-124 -56,-271 -35,-167 -52,-270 -47,-275 6,-6 38,-7 76,-3 l 65,7 32,169 c 31,159 35,173 82,251 27,45 64,97 82,115 l 33,34 34,-21 c 45,-28 84,-27 114,4 37,36 34,80 -7,105 -78,47 -162,2 -247,-134 -36,-58 -36,-58 -16,53 12,67 12,87 2,93 -15,10 -4,12 -139,-29 z"
           id="path316"
           transform="matrix(0.13333333,0,0,-0.13333333,-725.40516,1281.1483)" />
        <path
           d="m 13208,3868 c -46,-12 -117,-72 -134,-115 -19,-44 -18,-127 2,-169 9,-19 50,-64 91,-101 111,-99 129,-153 75,-214 -23,-26 -37,-32 -72,-33 l -42,-1 -13,50 c -15,55 -44,85 -85,85 -58,0 -77,-62 -37,-120 42,-63 69,-75 165,-75 73,0 95,4 136,25 28,14 64,42 80,63 26,32 31,49 34,105 3,59 0,72 -24,107 -14,22 -60,68 -100,103 -85,73 -105,116 -81,174 18,43 39,60 78,61 28,2 33,-2 46,-38 27,-78 84,-105 128,-61 25,25 25,27 10,63 -35,87 -137,123 -257,91 z"
           id="path318"
           transform="matrix(0.13333333,0,0,-0.13333333,-725.40516,1281.1483)" />
        <g
           id="g1586"
           transform="translate(-191.05696,14.257982)">
          <g
             id="g746"
             style="fill:#000000"
             transform="matrix(4.0742488,0,0,4.0742488,-388.28392,-304.11953)">
            <path
               style="fill:#000000"
               d="m 327,19.68 c 0,-1.14 0.42,-2.15 1.27,-3.02 0.84,-0.87 1.95,-1.3 3.33,-1.3 1.15,0 2.16,0.41 3.03,1.24 0.87,0.82 1.3,1.86 1.3,3.1 0,1.17 -0.4,2.22 -1.22,3.14 -0.81,0.91 -1.88,1.37 -3.21,1.37 -0.03,0 -0.05,0 -0.08,0 -0.02,0 -0.05,0 -0.08,0 -1.22,-0.03 -2.2,-0.43 -2.93,-1.18 -0.73,-0.75 -1.18,-1.57 -1.35,-2.47 -0.01,-0.11 -0.02,-0.22 -0.03,-0.34 -0.01,-0.11 -0.01,-0.23 -0.01,-0.34 0,-0.03 0,-0.05 0,-0.08 0,-0.02 0,-0.05 0,-0.08 v -0.01 z m 8.16,-0.09 c 0,-0.01 0,-0.03 0,-0.05 0,-0.02 0,-0.04 0,-0.07 0,-0.12 0,-0.24 -0.02,-0.37 -0.01,-0.12 -0.04,-0.25 -0.07,-0.38 -0.17,-0.66 -0.55,-1.26 -1.15,-1.81 -0.59,-0.55 -1.36,-0.82 -2.3,-0.82 -0.01,0 -0.02,0 -0.03,0 -0.01,0 -0.02,0 -0.03,0 -0.01,0 -0.02,0 -0.03,0 -0.01,0 -0.02,0 -0.03,0 -1.05,0.03 -1.87,0.34 -2.44,0.91 -0.57,0.57 -0.95,1.19 -1.14,1.86 -0.04,0.18 -0.07,0.35 -0.1,0.52 -0.02,0.17 -0.03,0.34 -0.03,0.5 0.03,0.87 0.27,1.57 0.72,2.11 0.45,0.53 0.95,0.92 1.49,1.17 0.25,0.12 0.5,0.2 0.74,0.26 0.24,0.05 0.46,0.08 0.66,0.08 1.03,0 1.87,-0.29 2.51,-0.89 0.63,-0.59 1.04,-1.25 1.21,-1.97 0.02,-0.12 0.05,-0.24 0.06,-0.36 0.01,-0.12 0.02,-0.24 0.02,-0.36 0,-0.05 0,-0.1 0,-0.15 0,-0.04 0,-0.09 -0.01,-0.15 v -0.01 z m -5.5,-2.22 h 2.21 c 0.53,0 0.93,0.1 1.19,0.3 0.26,0.19 0.39,0.51 0.39,0.95 0,0.43 -0.09,0.75 -0.29,0.96 -0.19,0.21 -0.54,0.36 -1.03,0.45 l 1.32,2.2 h -0.88 l -1.23,-2.21 h -0.97 v 2.21 h -0.7 v -4.88 z m 2.13,0.63 h -1.41 v 1.32 h 1.5 c 0.3,0 0.53,-0.04 0.67,-0.16 0.14,-0.12 0.21,-0.26 0.21,-0.43 0,-0.18 -0.07,-0.34 -0.22,-0.48 -0.15,-0.14 -0.4,-0.21 -0.75,-0.21 v -0.01 z"
               id="path744" />
          </g>
          <g
             id="g760"
             style="fill:#000000"
             transform="matrix(4.0742488,0,0,4.0742488,-388.28392,-304.11953)">
            <path
               style="fill:#000000"
               d="m 59.99,14.99 v 53 h 6.99 v -53 z"
               id="path748" />
            <path
               style="fill:#000000"
               d="m 91.01,14.99 v 53 H 98 v -53 z"
               id="path750" />
            <path
               style="fill:#000000"
               d="m 142.51,12.26 -24.9,55.7 h 7.05 l 17.86,-40.71 17.89,40.71 h 7.04 z"
               id="path752" />
            <path
               style="fill:#000000"
               d="m 186.01,14.99 v 53 h 6.96 v -53 z"
               id="path754" />
            <path
               style="fill:#000000"
               d="m 218.02,14.99 v 52.96 h 6.93 V 45.72 l 2.54,-2.68 19.72,24.92 h 8.76 L 232.12,38.51 255.55,15 h -8.49 L 224.93,37.66 V 15 H 218 v 0 z"
               id="path756" />
            <path
               style="fill:#000000"
               d="m 306.03,14.99 v 31.59 c 0,5.11 -1.03,8.88 -3.11,11.72 -2.07,2.84 -5.02,4.53 -9.36,4.53 -4.54,0 -7.77,-1.83 -9.69,-4.94 -1.92,-3.12 -2.88,-6.54 -2.88,-10.74 V 14.99 H 274 v 33.78 c 0,3.24 0.66,6.4 2.01,9.47 1.34,3.08 3.44,5.64 6.31,7.66 2.85,2.01 6.98,3.05 11.23,3.1 2.81,0 5.39,-0.49 7.74,-1.47 2.35,-0.99 4.59,-2.4 6.31,-4.24 1.7,-1.83 3.05,-4.01 3.97,-6.55 0.91,-2.52 1.37,-5.29 1.37,-8.3 V 15.01 h -6.93 v 0 z"
               id="path758" />
          </g>
          <g
             id="g769"
             transform="matrix(4.0742488,0,0,4.0742488,-388.28392,-304.11953)">
            <radialGradient
               id="gradient1"
               gradientUnits="userSpaceOnUse"
               cx="0"
               cy="0"
               r="200"
               gradientTransform="matrix(0.1418,-0.1263,-0.1894,-0.2127,293.9384,58.1026)">
              <stop
                 offset="0"
                 stop-color="#ffa600"
                 id="stop762" />
              <stop
                 offset="1"
                 stop-color="#ffee9c"
                 id="stop764" />
            </radialGradient>
            <path
               style="fill:url(#gradient1)"
               d="m 297.49,42.34 c -1.5,7.86 0.4,13.77 4.47,18.18 0.07,-1.2 0.55,-2.06 0.94,-2.77 0.43,7.58 6.16,7.8 8.53,8.68 0.09,-0.89 -0.74,-1.37 -0.07,-3.48 0.77,1.65 1.48,2.58 2.39,3.97 1.38,0.35 2.87,1.25 4.36,1.44 1.84,0.23 4.28,0.45 6.31,0.62 -0.02,-0.93 0.25,-1.31 0.59,-1.89 0.24,0.72 0.56,1.38 0.97,1.99 2.1,-0.18 3.93,0.48 4.92,1.09 -1.1,-4.49 -4.31,-9.07 -7.22,-12.02 -1.7,-0.5 -2.94,0.34 -5.25,1.32 0.46,-1.31 1.42,-2.39 3.3,-3.01 -2.31,-1.9 -4.83,-3.57 -7.34,-5.14 -0.97,-0.61 -3.89,-1.75 -5.18,-2.69 -1.27,-0.02 -2.44,0.03 -3.52,0.15 0.73,-0.51 1.39,-1.1 2.2,-1.54 -3.31,-3.69 -5.86,-5.23 -9.81,-6.32 -3.58,-5.48 -5.21,-13.17 -4.33,-13.67 l -2.07,1.17 c 0,0 1.84,8.54 5.77,13.92 v 0 z"
               id="path767" />
          </g>
          <g
             id="g778"
             transform="matrix(4.0742488,0,0,4.0742488,-388.28392,-304.11953)">
            <radialGradient
               id="gradient2"
               gradientUnits="userSpaceOnUse"
               cx="0"
               cy="0"
               r="200"
               gradientTransform="matrix(0.3331,-0.035,0.0125,0.1194,141.466,40.6245)">
              <stop
                 offset="0"
                 stop-color="#ff7200"
                 id="stop771" />
              <stop
                 offset="1"
                 stop-color="#ffaa00"
                 id="stop773" />
            </radialGradient>
            <path
               style="fill:url(#gradient2)"
               d="M 163.3,54.5 C 159.1,45.8 153,41.46 145.9,40.12 c 0.79,1.21 0.95,2.4 1.08,3.37 -5.87,-7.03 -11.58,-3.12 -14.51,-2.27 0.55,0.93 1.7,0.79 2.57,3.32 -1.93,-1.04 -3.3,-1.43 -5.17,-2.12 -1.59,0.65 -3.69,0.85 -5.27,1.74 -1.95,1.09 -4.48,2.64 -6.56,3.94 0.69,0.89 0.69,1.45 0.78,2.26 -0.75,-0.52 -1.54,-0.93 -2.38,-1.23 -1.9,1.69 -4.16,2.36 -5.55,2.48 4.3,3.55 10.71,5.68 15.64,6.45 2.01,-0.73 2.6,-2.45 4.14,-5.06 0.49,1.61 0.33,3.34 -1.03,5.3 3.61,0.18 7.25,-0.01 10.81,-0.3 1.38,-0.11 5.03,-1.1 6.95,-1.12 1.25,-0.89 2.34,-1.79 3.29,-2.68 -0.34,1.02 -0.55,2.07 -1.01,3.08 5.86,1.19 9.44,0.84 14.05,-0.93 7.41,2.73 14.52,9 14.03,10.12 l 1.16,-2.63 c 0,0 -7.93,-6.95 -15.6,-9.32 v 0 z"
               id="path776" />
          </g>
          <g
             id="g787"
             transform="matrix(4.0742488,0,0,4.0742488,-388.28392,-304.11953)">
            <radialGradient
               id="gradient3"
               gradientUnits="userSpaceOnUse"
               cx="0"
               cy="0"
               r="200"
               gradientTransform="matrix(0.4154,-0.1687,0.0668,0.1404,71.8342,56.0243)">
              <stop
                 offset="0"
                 stop-color="#33a02c"
                 id="stop780" />
              <stop
                 offset="1"
                 stop-color="#a9ff00"
                 id="stop782" />
            </radialGradient>
            <path
               style="fill:url(#gradient3)"
               d="m 56.97,48.76 c 6.97,6.68 14.21,8.62 21.33,7.4 -1.17,-0.86 -1.72,-1.91 -2.19,-2.78 7.96,4.54 11.94,-1.11 14.39,-2.93 -0.84,-0.68 -1.87,-0.15 -3.57,-2.21 2.17,0.3 3.59,0.19 5.59,0.18 1.26,-1.16 3.16,-2.08 4.33,-3.47 1.44,-1.71 3.27,-4.04 4.77,-5.98 -0.96,-0.59 -1.16,-1.11 -1.52,-1.85 0.88,0.22 1.77,0.33 2.66,0.32 1.19,-2.25 3.07,-3.66 4.33,-4.26 -5.27,-1.83 -12.02,-1.58 -16.91,-0.58 -1.63,1.39 -1.58,3.2 -2.11,6.19 -1.02,-1.33 -1.48,-3.01 -0.88,-5.32 -3.44,1.08 -6.79,2.54 -10.02,4.06 -1.25,0.58 -4.33,2.78 -6.12,3.48 -0.85,1.27 -1.56,2.49 -2.15,3.66 -0.03,-1.08 -0.2,-2.14 -0.12,-3.24 -5.91,0.92 -9.14,2.5 -12.83,5.78 -7.9,0.02 -16.75,-3.36 -16.68,-4.58 l -0.16,2.86 c 0,0 9.86,3.74 17.88,3.29 v 0 z"
               id="path785" />
          </g>
        </g>
      </g>
    </g>
  </g>
</svg>
