<?xml version="1.0" encoding="UTF-8" standalone="no"?>
<svg
   width="372"
   height="96"
   color-interpolation="linearRGB"
   version="1.1"
   id="svg58"
   sodipodi:docname="Haiku_logo_dark.svg"
   inkscape:version="1.1.1 (3bf5ae0d25, 2021-09-20)"
   xmlns:inkscape="http://www.inkscape.org/namespaces/inkscape"
   xmlns:sodipodi="http://sodipodi.sourceforge.net/DTD/sodipodi-0.dtd"
   xmlns="http://www.w3.org/2000/svg"
   xmlns:svg="http://www.w3.org/2000/svg">
  <defs
     id="defs62" />
  <sodipodi:namedview
     id="namedview60"
     pagecolor="#ffffff"
     bordercolor="#666666"
     borderopacity="1.0"
     inkscape:pageshadow="2"
     inkscape:pageopacity="0.0"
     inkscape:pagecheckerboard="0"
     showgrid="false"
     inkscape:zoom="3.9005376"
     inkscape:cx="207.02274"
     inkscape:cy="-172.02757"
     inkscape:window-width="1920"
     inkscape:window-height="974"
     inkscape:window-x="-11"
     inkscape:window-y="-11"
     inkscape:window-maximized="1"
     inkscape:current-layer="g168" />
  <g
     id="g168"
     transform="translate(-1.52,6.785)">
    <g
       id="g15"
       style="fill:#000000">
      <path
         style="fill:#000000"
         d="m 327,19.68 c 0,-1.14 0.42,-2.15 1.27,-3.02 0.84,-0.87 1.95,-1.3 3.33,-1.3 1.15,0 2.16,0.41 3.03,1.24 0.87,0.82 1.3,1.86 1.3,3.1 0,1.17 -0.4,2.22 -1.22,3.14 -0.81,0.91 -1.88,1.37 -3.21,1.37 -0.03,0 -0.05,0 -0.08,0 -0.02,0 -0.05,0 -0.08,0 -1.22,-0.03 -2.2,-0.43 -2.93,-1.18 -0.73,-0.75 -1.18,-1.57 -1.35,-2.47 -0.01,-0.11 -0.02,-0.22 -0.03,-0.34 -0.01,-0.11 -0.01,-0.23 -0.01,-0.34 0,-0.03 0,-0.05 0,-0.08 0,-0.02 0,-0.05 0,-0.08 v -0.01 z m 8.16,-0.09 c 0,-0.01 0,-0.03 0,-0.05 0,-0.02 0,-0.04 0,-0.07 0,-0.12 0,-0.24 -0.02,-0.37 -0.01,-0.12 -0.04,-0.25 -0.07,-0.38 -0.17,-0.66 -0.55,-1.26 -1.15,-1.81 -0.59,-0.55 -1.36,-0.82 -2.3,-0.82 -0.01,0 -0.02,0 -0.03,0 -0.01,0 -0.02,0 -0.03,0 -0.01,0 -0.02,0 -0.03,0 -0.01,0 -0.02,0 -0.03,0 -1.05,0.03 -1.87,0.34 -2.44,0.91 -0.57,0.57 -0.95,1.19 -1.14,1.86 -0.04,0.18 -0.07,0.35 -0.1,0.52 -0.02,0.17 -0.03,0.34 -0.03,0.5 0.03,0.87 0.27,1.57 0.72,2.11 0.45,0.53 0.95,0.92 1.49,1.17 0.25,0.12 0.5,0.2 0.74,0.26 0.24,0.05 0.46,0.08 0.66,0.08 1.03,0 1.87,-0.29 2.51,-0.89 0.63,-0.59 1.04,-1.25 1.21,-1.97 0.02,-0.12 0.05,-0.24 0.06,-0.36 0.01,-0.12 0.02,-0.24 0.02,-0.36 0,-0.05 0,-0.1 0,-0.15 0,-0.04 0,-0.09 -0.01,-0.15 v -0.01 z m -5.5,-2.22 h 2.21 c 0.53,0 0.93,0.1 1.19,0.3 0.26,0.19 0.39,0.51 0.39,0.95 0,0.43 -0.09,0.75 -0.29,0.96 -0.19,0.21 -0.54,0.36 -1.03,0.45 l 1.32,2.2 h -0.88 l -1.23,-2.21 h -0.97 v 2.21 h -0.7 v -4.88 z m 2.13,0.63 h -1.41 v 1.32 h 1.5 c 0.3,0 0.53,-0.04 0.67,-0.16 0.14,-0.12 0.21,-0.26 0.21,-0.43 0,-0.18 -0.07,-0.34 -0.22,-0.48 -0.15,-0.14 -0.4,-0.21 -0.75,-0.21 v -0.01 z"
         id="path13" />
    </g>
    <g
       id="g29"
       style="fill:#000000">
      <path
         style="fill:#000000"
         d="m 59.99,14.99 v 53 h 6.99 v -53 z"
         id="path17" />
      <path
         style="fill:#000000"
         d="m 91.01,14.99 v 53 H 98 v -53 z"
         id="path19" />
      <path
         style="fill:#000000"
         d="m 142.51,12.26 -24.9,55.7 h 7.05 l 17.86,-40.71 17.89,40.71 h 7.04 z"
         id="path21" />
      <path
         style="fill:#000000"
         d="m 186.01,14.99 v 53 h 6.96 v -53 z"
         id="path23" />
      <path
         style="fill:#000000"
         d="m 218.02,14.99 v 52.96 h 6.93 V 45.72 l 2.54,-2.68 19.72,24.92 h 8.76 L 232.12,38.51 255.55,15 h -8.49 L 224.93,37.66 V 15 H 218 v 0 z"
         id="path25" />
      <path
         style="fill:#000000"
         d="m 306.03,14.99 v 31.59 c 0,5.11 -1.03,8.88 -3.11,11.72 -2.07,2.84 -5.02,4.53 -9.36,4.53 -4.54,0 -7.77,-1.83 -9.69,-4.94 -1.92,-3.12 -2.88,-6.54 -2.88,-10.74 V 14.99 H 274 v 33.78 c 0,3.24 0.66,6.4 2.01,9.47 1.34,3.08 3.44,5.64 6.31,7.66 2.85,2.01 6.98,3.05 11.23,3.1 2.81,0 5.39,-0.49 7.74,-1.47 2.35,-0.99 4.59,-2.4 6.31,-4.24 1.7,-1.83 3.05,-4.01 3.97,-6.55 0.91,-2.52 1.37,-5.29 1.37,-8.3 V 15.01 h -6.93 v 0 z"
         id="path27" />
    </g>
    <g
       id="g38">
      <radialGradient
         id="gradient1"
         gradientUnits="userSpaceOnUse"
         cx="0"
         cy="0"
         r="200"
         gradientTransform="matrix(0.1418,-0.1263,-0.1894,-0.2127,293.9384,58.1026)">
        <stop
           offset="0"
           stop-color="#ffa600"
           id="stop31" />
        <stop
           offset="1"
           stop-color="#ffee9c"
           id="stop33" />
      </radialGradient>
      <path
         style="fill:url(#gradient1)"
         d="m 297.49,42.34 c -1.5,7.86 0.4,13.77 4.47,18.18 0.07,-1.2 0.55,-2.06 0.94,-2.77 0.43,7.58 6.16,7.8 8.53,8.68 0.09,-0.89 -0.74,-1.37 -0.07,-3.48 0.77,1.65 1.48,2.58 2.39,3.97 1.38,0.35 2.87,1.25 4.36,1.44 1.84,0.23 4.28,0.45 6.31,0.62 -0.02,-0.93 0.25,-1.31 0.59,-1.89 0.24,0.72 0.56,1.38 0.97,1.99 2.1,-0.18 3.93,0.48 4.92,1.09 -1.1,-4.49 -4.31,-9.07 -7.22,-12.02 -1.7,-0.5 -2.94,0.34 -5.25,1.32 0.46,-1.31 1.42,-2.39 3.3,-3.01 -2.31,-1.9 -4.83,-3.57 -7.34,-5.14 -0.97,-0.61 -3.89,-1.75 -5.18,-2.69 -1.27,-0.02 -2.44,0.03 -3.52,0.15 0.73,-0.51 1.39,-1.1 2.2,-1.54 -3.31,-3.69 -5.86,-5.23 -9.81,-6.32 -3.58,-5.48 -5.21,-13.17 -4.33,-13.67 l -2.07,1.17 c 0,0 1.84,8.54 5.77,13.92 v 0 z"
         id="path36" />
    </g>
    <g
       id="g47">
      <radialGradient
         id="gradient2"
         gradientUnits="userSpaceOnUse"
         cx="0"
         cy="0"
         r="200"
         gradientTransform="matrix(0.3331,-0.035,0.0125,0.1194,141.466,40.6245)">
        <stop
           offset="0"
           stop-color="#ff7200"
           id="stop40" />
        <stop
           offset="1"
           stop-color="#ffaa00"
           id="stop42" />
      </radialGradient>
      <path
         style="fill:url(#gradient2)"
         d="M 163.3,54.5 C 159.1,45.8 153,41.46 145.9,40.12 c 0.79,1.21 0.95,2.4 1.08,3.37 -5.87,-7.03 -11.58,-3.12 -14.51,-2.27 0.55,0.93 1.7,0.79 2.57,3.32 -1.93,-1.04 -3.3,-1.43 -5.17,-2.12 -1.59,0.65 -3.69,0.85 -5.27,1.74 -1.95,1.09 -4.48,2.64 -6.56,3.94 0.69,0.89 0.69,1.45 0.78,2.26 -0.75,-0.52 -1.54,-0.93 -2.38,-1.23 -1.9,1.69 -4.16,2.36 -5.55,2.48 4.3,3.55 10.71,5.68 15.64,6.45 2.01,-0.73 2.6,-2.45 4.14,-5.06 0.49,1.61 0.33,3.34 -1.03,5.3 3.61,0.18 7.25,-0.01 10.81,-0.3 1.38,-0.11 5.03,-1.1 6.95,-1.12 1.25,-0.89 2.34,-1.79 3.29,-2.68 -0.34,1.02 -0.55,2.07 -1.01,3.08 5.86,1.19 9.44,0.84 14.05,-0.93 7.41,2.73 14.52,9 14.03,10.12 l 1.16,-2.63 c 0,0 -7.93,-6.95 -15.6,-9.32 v 0 z"
         id="path45" />
    </g>
    <g
       id="g56">
      <radialGradient
         id="gradient3"
         gradientUnits="userSpaceOnUse"
         cx="0"
         cy="0"
         r="200"
         gradientTransform="matrix(0.4154,-0.1687,0.0668,0.1404,71.8342,56.0243)">
        <stop
           offset="0"
           stop-color="#33a02c"
           id="stop49" />
        <stop
           offset="1"
           stop-color="#a9ff00"
           id="stop51" />
      </radialGradient>
      <path
         style="fill:url(#gradient3)"
         d="m 56.97,48.76 c 6.97,6.68 14.21,8.62 21.33,7.4 -1.17,-0.86 -1.72,-1.91 -2.19,-2.78 7.96,4.54 11.94,-1.11 14.39,-2.93 -0.84,-0.68 -1.87,-0.15 -3.57,-2.21 2.17,0.3 3.59,0.19 5.59,0.18 1.26,-1.16 3.16,-2.08 4.33,-3.47 1.44,-1.71 3.27,-4.04 4.77,-5.98 -0.96,-0.59 -1.16,-1.11 -1.52,-1.85 0.88,0.22 1.77,0.33 2.66,0.32 1.19,-2.25 3.07,-3.66 4.33,-4.26 -5.27,-1.83 -12.02,-1.58 -16.91,-0.58 -1.63,1.39 -1.58,3.2 -2.11,6.19 -1.02,-1.33 -1.48,-3.01 -0.88,-5.32 -3.44,1.08 -6.79,2.54 -10.02,4.06 -1.25,0.58 -4.33,2.78 -6.12,3.48 -0.85,1.27 -1.56,2.49 -2.15,3.66 -0.03,-1.08 -0.2,-2.14 -0.12,-3.24 -5.91,0.92 -9.14,2.5 -12.83,5.78 -7.9,0.02 -16.75,-3.36 -16.68,-4.58 l -0.16,2.86 c 0,0 9.86,3.74 17.88,3.29 v 0 z"
         id="path54" />
    </g>
  </g>
</svg>
