<?xml version="1.0" encoding="UTF-8" standalone="no"?>
<!-- Created using Krita: https://krita.org -->

<svg
   width="234.72pt"
   height="245.76pt"
   viewBox="0 0 234.72 245.76"
   version="1.1"
   id="svg381"
   sodipodi:docname="Haiku_haiku_coding.svg"
   inkscape:version="1.1 (c68e22c387, 2021-05-23)"
   xmlns:inkscape="http://www.inkscape.org/namespaces/inkscape"
   xmlns:sodipodi="http://sodipodi.sourceforge.net/DTD/sodipodi-0.dtd"
   xmlns="http://www.w3.org/2000/svg"
   xmlns:svg="http://www.w3.org/2000/svg">
  <sodipodi:namedview
     id="namedview383"
     pagecolor="#ffffff"
     bordercolor="#666666"
     borderopacity="1.0"
     inkscape:pageshadow="2"
     inkscape:pageopacity="0"
     inkscape:pagecheckerboard="0"
     inkscape:document-units="pt"
     showgrid="false"
     inkscape:zoom="1.2573242"
     inkscape:cx="220.30913"
     inkscape:cy="129.24272"
     inkscape:window-width="1920"
     inkscape:window-height="1009"
     inkscape:window-x="1912"
     inkscape:window-y="-8"
     inkscape:window-maximized="1"
     inkscape:current-layer="g21568" />
  <defs
     id="defs243">
    <linearGradient
       id="gradient0"
       gradientUnits="userSpaceOnUse"
       x1="9.7532527"
       y1="-52.369977"
       x2="46.410328"
       y2="-39.696296"
       spreadMethod="pad"
       gradientTransform="scale(1.213954,0.82375448)">
      <stop
         stop-color="#ffffff"
         offset="0"
         stop-opacity="1"
         id="stop2" />
      <stop
         stop-color="#d3d3d3"
         offset="1"
         stop-opacity="1"
         id="stop4" />
    </linearGradient>
    <linearGradient
       id="gradient1"
       gradientUnits="userSpaceOnUse"
       x1="12.048411"
       y1="-18.021297"
       x2="69.223098"
       y2="-4.6971174"
       spreadMethod="pad"
       gradientTransform="scale(0.72374688,1.3816985)">
      <stop
         stop-color="#474747"
         offset="0"
         stop-opacity="1"
         id="stop7" />
      <stop
         stop-color="#a5a0a0"
         offset="1"
         stop-opacity="1"
         id="stop9" />
    </linearGradient>
    <linearGradient
       id="gradient2"
       gradientUnits="userSpaceOnUse"
       x1="20.023493"
       y1="67.64316"
       x2="-15.850739"
       y2="41.147234"
       spreadMethod="pad"
       gradientTransform="scale(1.0472699,0.95486371)">
      <stop
         stop-color="#7d7d7d"
         offset="0"
         stop-opacity="1"
         id="stop12" />
      <stop
         stop-color="#d4d4d4"
         offset="1"
         stop-opacity="1"
         id="stop14" />
    </linearGradient>
    <linearGradient
       id="gradient3"
       gradientUnits="userSpaceOnUse"
       x1="37.029656"
       y1="-93.933805"
       x2="54.878632"
       y2="-42.321693"
       spreadMethod="pad"
       gradientTransform="scale(1.197219,0.83526907)">
      <stop
         stop-color="#596756"
         offset="0"
         stop-opacity="1"
         id="stop17" />
      <stop
         stop-color="#ebb2b2"
         offset="1"
         stop-opacity="1"
         id="stop19" />
    </linearGradient>
    <radialGradient
       id="gradient4"
       gradientUnits="userSpaceOnUse"
       cx="5.1494999"
       cy="5.5887997"
       fx="5.1494999"
       fy="5.5887997"
       r="64.000004"
       spreadMethod="pad">
      <stop
         stop-color="#ffb11b"
         offset="0"
         stop-opacity="1"
         id="stop22" />
      <stop
         stop-color="#fff9c7"
         offset="1"
         stop-opacity="1"
         id="stop24" />
    </radialGradient>
    <linearGradient
       id="gradient5"
       gradientUnits="userSpaceOnUse"
       x1="56.649838"
       y1="117.04403"
       x2="5.3905543"
       y2="97.372835"
       spreadMethod="pad">
      <stop
         stop-color="#000000"
         offset="0"
         stop-opacity="1"
         id="stop27" />
      <stop
         stop-color="#000000"
         offset="1"
         stop-opacity="0"
         id="stop29" />
    </linearGradient>
    <linearGradient
       id="gradient6"
       gradientUnits="userSpaceOnUse"
       x1="-5.0113372"
       y1="-72.757813"
       x2="52.752031"
       y2="-57.659265"
       spreadMethod="pad"
       gradientTransform="scale(1.0040321,0.99598408)">
      <stop
         stop-color="#000000"
         offset="0"
         stop-opacity="1"
         id="stop32" />
      <stop
         stop-color="#000000"
         offset="1"
         stop-opacity="0"
         id="stop34" />
    </linearGradient>
    <radialGradient
       id="gradient7"
       gradientUnits="userSpaceOnUse"
       cx="6.9999997"
       cy="6.9999997"
       fx="6.9999997"
       fy="6.9999997"
       r="64.000004"
       spreadMethod="pad">
      <stop
         stop-color="#ffffff"
         offset="0.253699988126755"
         stop-opacity="1"
         id="stop37" />
      <stop
         stop-color="#890b0b"
         offset="1"
         stop-opacity="1"
         id="stop39" />
    </radialGradient>
    <radialGradient
       id="gradient8"
       gradientUnits="userSpaceOnUse"
       cx="6.9999997"
       cy="6.9999997"
       fx="6.9999997"
       fy="6.9999997"
       r="64.000004"
       spreadMethod="pad">
      <stop
         stop-color="#ffecc7"
         offset="0"
         stop-opacity="1"
         id="stop42" />
      <stop
         stop-color="#ffa800"
         offset="1"
         stop-opacity="1"
         id="stop44" />
    </radialGradient>
    <radialGradient
       id="gradient9"
       gradientUnits="userSpaceOnUse"
       cx="6.9999997"
       cy="6.9999997"
       fx="6.9999997"
       fy="6.9999997"
       r="64.000004"
       spreadMethod="pad">
      <stop
         stop-color="#ffecc7"
         offset="0"
         stop-opacity="1"
         id="stop47" />
      <stop
         stop-color="#ffa800"
         offset="1"
         stop-opacity="1"
         id="stop49" />
    </radialGradient>
    <linearGradient
       id="gradient10"
       gradientUnits="userSpaceOnUse"
       x1="15.14795"
       y1="-14.154525"
       x2="31.321721"
       y2="4.4335237"
       spreadMethod="pad"
       gradientTransform="scale(1.1697953,0.85485042)">
      <stop
         stop-color="#747474"
         offset="0"
         stop-opacity="1"
         id="stop52" />
      <stop
         stop-color="#3e3d3d"
         offset="1"
         stop-opacity="1"
         id="stop54" />
    </linearGradient>
    <linearGradient
       id="gradient11"
       gradientUnits="userSpaceOnUse"
       x1="5.8610386"
       y1="-8.1443415"
       x2="34.757326"
       y2="-6.6975678"
       spreadMethod="pad"
       gradientTransform="scale(1.2472191,0.80178373)">
      <stop
         stop-color="#b0b0b0"
         offset="0"
         stop-opacity="1"
         id="stop57" />
      <stop
         stop-color="#838383"
         offset="1"
         stop-opacity="1"
         id="stop59" />
    </linearGradient>
    <linearGradient
       id="gradient12"
       gradientUnits="userSpaceOnUse"
       x1="18.942858"
       y1="-8.8409166"
       x2="26.412922"
       y2="-4.5734289"
       spreadMethod="pad"
       gradientTransform="scale(0.78446456,1.2747548)">
      <stop
         stop-color="#5a5a5a"
         offset="0"
         stop-opacity="1"
         id="stop62" />
      <stop
         stop-color="#dcdcdc"
         offset="0.223399996757507"
         stop-opacity="1"
         id="stop64" />
      <stop
         stop-color="#7e7e7e"
         offset="1"
         stop-opacity="1"
         id="stop66" />
    </linearGradient>
    <linearGradient
       id="gradient13"
       gradientUnits="userSpaceOnUse"
       x1="18.942858"
       y1="-8.8409166"
       x2="26.412922"
       y2="-4.5734289"
       spreadMethod="pad"
       gradientTransform="scale(0.78446456,1.2747548)">
      <stop
         stop-color="#5a5a5a"
         offset="0"
         stop-opacity="1"
         id="stop69" />
      <stop
         stop-color="#dcdcdc"
         offset="0.223399996757507"
         stop-opacity="1"
         id="stop71" />
      <stop
         stop-color="#7e7e7e"
         offset="1"
         stop-opacity="1"
         id="stop73" />
    </linearGradient>
    <linearGradient
       id="gradient14"
       gradientUnits="userSpaceOnUse"
       x1="18.942858"
       y1="-8.8409166"
       x2="26.412922"
       y2="-4.5734289"
       spreadMethod="pad"
       gradientTransform="scale(0.78446456,1.2747548)">
      <stop
         stop-color="#5a5a5a"
         offset="0"
         stop-opacity="1"
         id="stop76" />
      <stop
         stop-color="#dcdcdc"
         offset="0.223399996757507"
         stop-opacity="1"
         id="stop78" />
      <stop
         stop-color="#7e7e7e"
         offset="1"
         stop-opacity="1"
         id="stop80" />
    </linearGradient>
    <linearGradient
       id="gradient15"
       gradientUnits="userSpaceOnUse"
       x1="18.942858"
       y1="-8.8409166"
       x2="26.412922"
       y2="-4.5734289"
       spreadMethod="pad"
       gradientTransform="scale(0.78446456,1.2747548)">
      <stop
         stop-color="#5a5a5a"
         offset="0"
         stop-opacity="1"
         id="stop83" />
      <stop
         stop-color="#dcdcdc"
         offset="0.223399996757507"
         stop-opacity="1"
         id="stop85" />
      <stop
         stop-color="#7e7e7e"
         offset="1"
         stop-opacity="1"
         id="stop87" />
    </linearGradient>
    <linearGradient
       id="gradient16"
       gradientUnits="userSpaceOnUse"
       x1="29.754742"
       y1="-13.703616"
       x2="42.204193"
       y2="21.709076"
       spreadMethod="pad"
       gradientTransform="scale(1.2747549,0.78446455)">
      <stop
         stop-color="#a3d444"
         offset="0.00389999989420176"
         stop-opacity="1"
         id="stop90" />
      <stop
         stop-color="#70a804"
         offset="1"
         stop-opacity="1"
         id="stop92" />
    </linearGradient>
    <linearGradient
       id="gradient17"
       gradientUnits="userSpaceOnUse"
       x1="31.849602"
       y1="-19.98444"
       x2="40.450887"
       y2="20.25632"
       spreadMethod="pad"
       gradientTransform="scale(1.2441909,0.80373516)">
      <stop
         stop-color="#fff2ac"
         offset="0.00389999989420176"
         stop-opacity="1"
         id="stop95" />
      <stop
         stop-color="#ffd805"
         offset="1"
         stop-opacity="1"
         id="stop97" />
    </linearGradient>
    <linearGradient
       id="gradient18"
       gradientUnits="userSpaceOnUse"
       x1="14.760574"
       y1="-4.9035508"
       x2="16.457956"
       y2="6.3457699"
       spreadMethod="pad"
       gradientTransform="scale(1.2018504,0.83205031)">
      <stop
         stop-color="#717171"
         offset="0"
         stop-opacity="1"
         id="stop100" />
      <stop
         stop-color="#010101"
         offset="1"
         stop-opacity="1"
         id="stop102" />
    </linearGradient>
    <linearGradient
       id="gradient19"
       gradientUnits="userSpaceOnUse"
       x1="14.760574"
       y1="-4.9035508"
       x2="16.457956"
       y2="6.3457699"
       spreadMethod="pad"
       gradientTransform="scale(1.2018504,0.83205031)">
      <stop
         stop-color="#717171"
         offset="0"
         stop-opacity="1"
         id="stop105" />
      <stop
         stop-color="#010101"
         offset="1"
         stop-opacity="1"
         id="stop107" />
    </linearGradient>
    <linearGradient
       id="gradient20"
       gradientUnits="userSpaceOnUse"
       x1="-19.437316"
       y1="37.274265"
       x2="12.429594"
       y2="-6.775443"
       spreadMethod="pad"
       gradientTransform="scale(0.93325653,1.0715167)">
      <stop
         stop-color="#0c0c0c"
         offset="0"
         stop-opacity="1"
         id="stop110" />
      <stop
         stop-color="#797979"
         offset="0.368600010871887"
         stop-opacity="1"
         id="stop112" />
      <stop
         stop-color="#c6c6c6"
         offset="0.647000014781952"
         stop-opacity="1"
         id="stop114" />
      <stop
         stop-color="#a2a2a2"
         offset="0.7882000207901"
         stop-opacity="1"
         id="stop116" />
      <stop
         stop-color="#e8e8e8"
         offset="1"
         stop-opacity="1"
         id="stop118" />
    </linearGradient>
    <linearGradient
       id="gradient21"
       gradientUnits="userSpaceOnUse"
       x1="16.965621"
       y1="-4.7244438"
       x2="25.946492"
       y2="1.6254107"
       spreadMethod="pad"
       gradientTransform="scale(0.63245558,1.5811387)">
      <stop
         stop-color="#d3d3d3"
         offset="0"
         stop-opacity="1"
         id="stop121" />
      <stop
         stop-color="#a9a9a9"
         offset="1"
         stop-opacity="1"
         id="stop123" />
    </linearGradient>
    <linearGradient
       id="gradient22"
       gradientUnits="userSpaceOnUse"
       x1="92.371884"
       y1="0.47958268"
       x2="92.517847"
       y2="37.474629"
       spreadMethod="pad"
       gradientTransform="scale(0.95916631,1.0425721)">
      <stop
         stop-color="#face79"
         offset="0"
         stop-opacity="1"
         id="stop126" />
      <stop
         stop-color="#bc4105"
         offset="1"
         stop-opacity="1"
         id="stop128" />
    </linearGradient>
    <linearGradient
       id="gradient23"
       gradientUnits="userSpaceOnUse"
       x1="103.0001"
       y1="1.4229421"
       x2="103.17719"
       y2="37.555517"
       spreadMethod="pad"
       gradientTransform="scale(0.84698956,1.1806521)">
      <stop
         stop-color="#ffffff"
         offset="0"
         stop-opacity="1"
         id="stop131" />
      <stop
         stop-color="#8e8e8e"
         offset="1"
         stop-opacity="1"
         id="stop133" />
    </linearGradient>
    <linearGradient
       id="gradient24"
       gradientUnits="userSpaceOnUse"
       x1="70.46841"
       y1="-33.315986"
       x2="96.602991"
       y2="1.716224"
       spreadMethod="pad"
       gradientTransform="scale(0.88465174,1.1303883)">
      <stop
         stop-color="#9a9a9a"
         offset="0"
         stop-opacity="1"
         id="stop136" />
      <stop
         stop-color="#505050"
         offset="1"
         stop-opacity="1"
         id="stop138" />
    </linearGradient>
    <linearGradient
       id="gradient25"
       gradientUnits="userSpaceOnUse"
       x1="90.836782"
       y1="-5.0933472"
       x2="100.41755"
       y2="34.165905"
       spreadMethod="pad"
       gradientTransform="scale(0.94146887,1.06217)">
      <stop
         stop-color="#ffe2ac"
         offset="0"
         stop-opacity="1"
         id="stop141" />
      <stop
         stop-color="#f49806"
         offset="1"
         stop-opacity="1"
         id="stop143" />
    </linearGradient>
    <linearGradient
       id="gradient26"
       gradientUnits="userSpaceOnUse"
       x1="20.247333"
       y1="-34.488434"
       x2="56.00002"
       y2="-12.241327"
       spreadMethod="pad"
       gradientTransform="scale(0.98482107,1.0154129)">
      <stop
         stop-color="#f7f9ff"
         offset="0"
         stop-opacity="1"
         id="stop146" />
      <stop
         stop-color="#989db0"
         offset="1"
         stop-opacity="1"
         id="stop148" />
    </linearGradient>
    <radialGradient
       id="gradient27"
       gradientTransform="scale(1.2780922,0.78241617)"
       gradientUnits="userSpaceOnUse"
       cx="-0.13739267"
       cy="19.061967"
       fx="-0.13739267"
       fy="19.061967"
       r="50.074634"
       spreadMethod="pad">
      <stop
         stop-color="#000000"
         offset="0"
         stop-opacity="0.196002136263066"
         id="stop151" />
      <stop
         stop-color="#000000"
         offset="1"
         stop-opacity="0.352895399404898"
         id="stop153" />
    </radialGradient>
    <radialGradient
       id="gradient28"
       gradientTransform="scale(1.2909944,0.77459668)"
       gradientUnits="userSpaceOnUse"
       cx="8.5205637"
       cy="5.4221763"
       fx="8.5205637"
       fy="5.4221763"
       r="49.574191"
       spreadMethod="pad">
      <stop
         stop-color="#ffffff"
         offset="0"
         stop-opacity="0.121507591363394"
         id="stop156" />
      <stop
         stop-color="#ffffff"
         offset="0.655600011348724"
         stop-opacity="0.0431067368581674"
         id="stop158" />
      <stop
         stop-color="#ffffff"
         offset="1"
         stop-opacity="0"
         id="stop160" />
    </radialGradient>
    <linearGradient
       id="gradient29"
       gradientUnits="userSpaceOnUse"
       x1="4.9479695"
       y1="9.3407209"
       x2="4.9479695"
       y2="-0.39191921"
       spreadMethod="pad"
       gradientTransform="scale(1.6329931,0.61237247)">
      <stop
         stop-color="#ff0000"
         offset="0"
         stop-opacity="1"
         id="stop163" />
      <stop
         stop-color="#ff6666"
         offset="1"
         stop-opacity="1"
         id="stop165" />
    </linearGradient>
    <linearGradient
       id="gradient30"
       gradientUnits="userSpaceOnUse"
       x1="24.707189"
       y1="-29.357138"
       x2="35.44412"
       y2="-10.900231"
       spreadMethod="pad"
       gradientTransform="scale(1.2247448,0.81649661)">
      <stop
         stop-color="#b20404"
         offset="0"
         stop-opacity="1"
         id="stop168" />
      <stop
         stop-color="#8b0303"
         offset="1"
         stop-opacity="1"
         id="stop170" />
    </linearGradient>
    <linearGradient
       id="gradient31"
       gradientUnits="userSpaceOnUse"
       x1="-0.17963008"
       y1="-0.33068133"
       x2="10.124558"
       y2="-0.53276425"
       spreadMethod="pad"
       gradientTransform="scale(0.61237247,1.6329931)">
      <stop
         stop-color="#f70606"
         offset="0"
         stop-opacity="1"
         id="stop173" />
      <stop
         stop-color="#980404"
         offset="1"
         stop-opacity="1"
         id="stop175" />
    </linearGradient>
    <linearGradient
       id="gradient32"
       gradientUnits="userSpaceOnUse"
       x1="22.363843"
       y1="-26.919896"
       x2="38.469241"
       y2="-14.615291"
       spreadMethod="pad"
       gradientTransform="scale(0.81649661,1.2247448)">
      <stop
         stop-color="#b20404"
         offset="0"
         stop-opacity="1"
         id="stop178" />
      <stop
         stop-color="#8b0303"
         offset="1"
         stop-opacity="1"
         id="stop180" />
    </linearGradient>
    <linearGradient
       id="gradient33"
       gradientUnits="userSpaceOnUse"
       x1="27.200001"
       y1="-3.9400005"
       x2="38.890001"
       y2="10.36"
       spreadMethod="pad">
      <stop
         stop-color="#ff0000"
         offset="0"
         stop-opacity="1"
         id="stop183" />
      <stop
         stop-color="#ff0000"
         offset="0.400000005960464"
         stop-opacity="1"
         id="stop185" />
      <stop
         stop-color="#610202"
         offset="1"
         stop-opacity="1"
         id="stop187" />
    </linearGradient>
    <linearGradient
       id="gradient34"
       gradientUnits="userSpaceOnUse"
       x1="2.5188425"
       y1="2.4011025"
       x2="8.4761059"
       y2="8.3538363"
       spreadMethod="pad"
       gradientTransform="scale(1.0004595,0.99954076)">
      <stop
         stop-color="#969696"
         offset="0"
         stop-opacity="1"
         id="stop190" />
      <stop
         stop-color="#585858"
         offset="1"
         stop-opacity="1"
         id="stop192" />
    </linearGradient>
    <linearGradient
       id="gradient35"
       gradientUnits="userSpaceOnUse"
       x1="9.6600001"
       y1="-0.24000037"
       x2="12.29"
       y2="1.8799997"
       spreadMethod="pad">
      <stop
         stop-color="#ff6666"
         offset="0"
         stop-opacity="1"
         id="stop195" />
      <stop
         stop-color="#c20000"
         offset="1"
         stop-opacity="1"
         id="stop197" />
    </linearGradient>
    <linearGradient
       id="gradient36"
       gradientUnits="userSpaceOnUse"
       x1="-71.51923"
       y1="-24.636521"
       x2="-39.835668"
       y2="-65.298842"
       spreadMethod="pad"
       gradientTransform="scale(1.0488088,0.95346259)">
      <stop
         stop-color="#ffacac"
         offset="0"
         stop-opacity="1"
         id="stop200" />
      <stop
         stop-color="#fff1f1"
         offset="0.655600011348724"
         stop-opacity="1"
         id="stop202" />
      <stop
         stop-color="#b4b4b4"
         offset="1"
         stop-opacity="1"
         id="stop204" />
    </linearGradient>
    <linearGradient
       id="gradient37"
       gradientUnits="userSpaceOnUse"
       x1="9.7532527"
       y1="-52.369977"
       x2="46.410328"
       y2="-39.696296"
       spreadMethod="pad"
       gradientTransform="scale(1.213954,0.82375448)">
      <stop
         stop-color="#ffffff"
         offset="0"
         stop-opacity="1"
         id="stop207" />
      <stop
         stop-color="#d3d3d3"
         offset="1"
         stop-opacity="1"
         id="stop209" />
    </linearGradient>
    <linearGradient
       id="gradient38"
       gradientUnits="userSpaceOnUse"
       x1="12.048411"
       y1="-18.021297"
       x2="69.223098"
       y2="-4.6971174"
       spreadMethod="pad"
       gradientTransform="scale(0.72374688,1.3816985)">
      <stop
         stop-color="#474747"
         offset="0"
         stop-opacity="1"
         id="stop212" />
      <stop
         stop-color="#a5a0a0"
         offset="1"
         stop-opacity="1"
         id="stop214" />
    </linearGradient>
    <linearGradient
       id="gradient39"
       gradientUnits="userSpaceOnUse"
       x1="20.023493"
       y1="67.64316"
       x2="-15.850739"
       y2="41.147234"
       spreadMethod="pad"
       gradientTransform="scale(1.0472699,0.95486371)">
      <stop
         stop-color="#7d7d7d"
         offset="0"
         stop-opacity="1"
         id="stop217" />
      <stop
         stop-color="#d4d4d4"
         offset="1"
         stop-opacity="1"
         id="stop219" />
    </linearGradient>
    <linearGradient
       id="gradient40"
       gradientUnits="userSpaceOnUse"
       x1="37.029656"
       y1="-93.933805"
       x2="54.878632"
       y2="-42.321693"
       spreadMethod="pad"
       gradientTransform="scale(1.197219,0.83526907)">
      <stop
         stop-color="#596756"
         offset="0"
         stop-opacity="1"
         id="stop222" />
      <stop
         stop-color="#ebb2b2"
         offset="1"
         stop-opacity="1"
         id="stop224" />
    </linearGradient>
    <linearGradient
       id="gradient41"
       gradientUnits="userSpaceOnUse"
       x1="-12.670001"
       y1="-0.63000055"
       x2="-8.5400013"
       y2="-8.020001"
       spreadMethod="pad">
      <stop
         stop-color="#505050"
         offset="1"
         stop-opacity="1"
         id="stop227" />
    </linearGradient>
    <radialGradient
       id="gradient42"
       gradientUnits="userSpaceOnUse"
       cx="11"
       cy="11"
       fx="11"
       fy="11"
       r="64.000004"
       spreadMethod="pad">
      <stop
         stop-color="#dcf4ff"
         offset="0"
         stop-opacity="1"
         id="stop230" />
      <stop
         stop-color="#6094aa"
         offset="1"
         stop-opacity="1"
         id="stop232" />
    </radialGradient>
    <clipPath
       id="clipPath241"
       clipPathUnits="userSpaceOnUse">
      <defs
         id="defs235" />
      <g
         id="clippath0"
         transform="translate(0, 1.4210854715202e-14)"
         fill="none">
        <g
           id="clippath01"
           fill="none">
          <g
             id="clipPath22172"
             transform="translate(5.55111512312578e-17, 8.88178419700125e-16)"
             fill="none">
            <path
               id="shape0"
               fill="#000000"
               stroke="#000000"
               stroke-opacity="0"
               stroke-width="0"
               stroke-linecap="square"
               stroke-linejoin="bevel"
               d="M0 0L2880 0L2880 572.9L0 572.9Z" />
          </g>
        </g>
      </g>
    </clipPath>
    <radialGradient
       id="gradient1-9"
       gradientUnits="userSpaceOnUse"
       cx="0"
       cy="0"
       r="200"
       gradientTransform="matrix(0.1418,-0.1263,-0.1894,-0.2127,293.9384,58.1026)">
      <stop
         offset="0"
         stop-color="#ffa600"
         id="stop3155" />
      <stop
         offset="1"
         stop-color="#ffee9c"
         id="stop3157" />
    </radialGradient>
    <radialGradient
       id="gradient2-9"
       gradientUnits="userSpaceOnUse"
       cx="0"
       cy="0"
       r="200"
       gradientTransform="matrix(0.3331,-0.035,0.0125,0.1194,141.466,40.6245)">
      <stop
         offset="0"
         stop-color="#ff7200"
         id="stop3164" />
      <stop
         offset="1"
         stop-color="#ffaa00"
         id="stop3166" />
    </radialGradient>
    <radialGradient
       id="gradient3-2"
       gradientUnits="userSpaceOnUse"
       cx="0"
       cy="0"
       r="200"
       gradientTransform="matrix(0.4154,-0.1687,0.0668,0.1404,71.8342,56.0243)">
      <stop
         offset="0"
         stop-color="#33a02c"
         id="stop3173" />
      <stop
         offset="1"
         stop-color="#a9ff00"
         id="stop3175" />
    </radialGradient>
  </defs>
  <text
     xml:space="preserve"
     style="font-size:14px;line-height:2.65;font-family:'Open Sans Condensed';-inkscape-font-specification:'Open Sans Condensed, ';fill:#000000;stroke-width:0.75"
     x="117.759"
     y="85.300186"
     id="text10731"><tspan
       sodipodi:role="line"
       style="font-style:normal;font-variant:normal;font-weight:normal;font-stretch:normal;font-size:14px;font-family:'Noto Sans Display';-inkscape-font-specification:'Noto Sans Display';text-align:center;text-anchor:middle;fill:#000000;stroke-width:0.75"
       x="117.759"
       y="85.300186"
       id="tspan13157">Coded with passion,</tspan><tspan
       sodipodi:role="line"
       style="font-style:normal;font-variant:normal;font-weight:normal;font-stretch:normal;font-size:14px;font-family:'Noto Sans Display';-inkscape-font-specification:'Noto Sans Display';text-align:center;text-anchor:middle;fill:#000000;stroke-width:0.75"
       x="117.759"
       y="122.73962"
       id="tspan26659">the old spirit still persists.</tspan><tspan
       sodipodi:role="line"
       style="font-style:normal;font-variant:normal;font-weight:normal;font-stretch:normal;font-size:14px;font-family:'Noto Sans Display';-inkscape-font-specification:'Noto Sans Display';text-align:center;text-anchor:middle;fill:#000000;stroke-width:0.75"
       x="117.759"
       y="160.17905"
       id="tspan26661">Twenty years have passed.</tspan><tspan
       sodipodi:role="line"
       style="font-style:normal;font-variant:normal;font-weight:normal;font-stretch:normal;font-size:14px;font-family:'Noto Sans Display';-inkscape-font-specification:'Noto Sans Display';text-align:center;text-anchor:middle;fill:#000000;stroke-width:0.75"
       x="117.759"
       y="197.27905"
       id="tspan24553" /></text>
  <g
     id="g21568"
     transform="matrix(1.0430292,0,0,1.0430292,-48.759921,-35.574739)">
    <g
       id="g21047"
       style="color-interpolation:linearRGB;fill:#000000"
       transform="matrix(0.51374798,0,0,0.51374798,62.928777,44.14316)">
      <g
         id="g3139"
         style="fill:#000000">
        <path
           style="fill:#000000"
           d="m 327,19.68 c 0,-1.14 0.42,-2.15 1.27,-3.02 0.84,-0.87 1.95,-1.3 3.33,-1.3 1.15,0 2.16,0.41 3.03,1.24 0.87,0.82 1.3,1.86 1.3,3.1 0,1.17 -0.4,2.22 -1.22,3.14 -0.81,0.91 -1.88,1.37 -3.21,1.37 -0.03,0 -0.05,0 -0.08,0 -0.02,0 -0.05,0 -0.08,0 -1.22,-0.03 -2.2,-0.43 -2.93,-1.18 -0.73,-0.75 -1.18,-1.57 -1.35,-2.47 -0.01,-0.11 -0.02,-0.22 -0.03,-0.34 -0.01,-0.11 -0.01,-0.23 -0.01,-0.34 0,-0.03 0,-0.05 0,-0.08 0,-0.02 0,-0.05 0,-0.08 v -0.01 z m 8.16,-0.09 c 0,-0.01 0,-0.03 0,-0.05 0,-0.02 0,-0.04 0,-0.07 0,-0.12 0,-0.24 -0.02,-0.37 -0.01,-0.12 -0.04,-0.25 -0.07,-0.38 -0.17,-0.66 -0.55,-1.26 -1.15,-1.81 -0.59,-0.55 -1.36,-0.82 -2.3,-0.82 -0.01,0 -0.02,0 -0.03,0 -0.01,0 -0.02,0 -0.03,0 -0.01,0 -0.02,0 -0.03,0 -0.01,0 -0.02,0 -0.03,0 -1.05,0.03 -1.87,0.34 -2.44,0.91 -0.57,0.57 -0.95,1.19 -1.14,1.86 -0.04,0.18 -0.07,0.35 -0.1,0.52 -0.02,0.17 -0.03,0.34 -0.03,0.5 0.03,0.87 0.27,1.57 0.72,2.11 0.45,0.53 0.95,0.92 1.49,1.17 0.25,0.12 0.5,0.2 0.74,0.26 0.24,0.05 0.46,0.08 0.66,0.08 1.03,0 1.87,-0.29 2.51,-0.89 0.63,-0.59 1.04,-1.25 1.21,-1.97 0.02,-0.12 0.05,-0.24 0.06,-0.36 0.01,-0.12 0.02,-0.24 0.02,-0.36 0,-0.05 0,-0.1 0,-0.15 0,-0.04 0,-0.09 -0.01,-0.15 v -0.01 z m -5.5,-2.22 h 2.21 c 0.53,0 0.93,0.1 1.19,0.3 0.26,0.19 0.39,0.51 0.39,0.95 0,0.43 -0.09,0.75 -0.29,0.96 -0.19,0.21 -0.54,0.36 -1.03,0.45 l 1.32,2.2 h -0.88 l -1.23,-2.21 h -0.97 v 2.21 h -0.7 v -4.88 z m 2.13,0.63 h -1.41 v 1.32 h 1.5 c 0.3,0 0.53,-0.04 0.67,-0.16 0.14,-0.12 0.21,-0.26 0.21,-0.43 0,-0.18 -0.07,-0.34 -0.22,-0.48 -0.15,-0.14 -0.4,-0.21 -0.75,-0.21 v -0.01 z"
           id="path3137" />
      </g>
      <g
         id="g3153"
         style="fill:#000000">
        <path
           style="fill:#000000"
           d="m 59.99,14.99 v 53 h 6.99 v -53 z"
           id="path3141" />
        <path
           style="fill:#000000"
           d="m 91.01,14.99 v 53 H 98 v -53 z"
           id="path3143" />
        <path
           style="fill:#000000"
           d="m 142.51,12.26 -24.9,55.7 h 7.05 l 17.86,-40.71 17.89,40.71 h 7.04 z"
           id="path3145" />
        <path
           style="fill:#000000"
           d="m 186.01,14.99 v 53 h 6.96 v -53 z"
           id="path3147" />
        <path
           style="fill:#000000"
           d="m 218.02,14.99 v 52.96 h 6.93 V 45.72 l 2.54,-2.68 19.72,24.92 h 8.76 L 232.12,38.51 255.55,15 h -8.49 L 224.93,37.66 V 15 H 218 v 0 z"
           id="path3149" />
        <path
           style="fill:#000000"
           d="m 306.03,14.99 v 31.59 c 0,5.11 -1.03,8.88 -3.11,11.72 -2.07,2.84 -5.02,4.53 -9.36,4.53 -4.54,0 -7.77,-1.83 -9.69,-4.94 -1.92,-3.12 -2.88,-6.54 -2.88,-10.74 V 14.99 H 274 v 33.78 c 0,3.24 0.66,6.4 2.01,9.47 1.34,3.08 3.44,5.64 6.31,7.66 2.85,2.01 6.98,3.05 11.23,3.1 2.81,0 5.39,-0.49 7.74,-1.47 2.35,-0.99 4.59,-2.4 6.31,-4.24 1.7,-1.83 3.05,-4.01 3.97,-6.55 0.91,-2.52 1.37,-5.29 1.37,-8.3 V 15.01 h -6.93 v 0 z"
           id="path3151" />
      </g>
    </g>
    <g
       id="g3162"
       style="color-interpolation:linearRGB"
       transform="matrix(0.51374798,0,0,0.51374798,62.928777,44.14316)">
      <radialGradient
         id="radialGradient21307"
         gradientUnits="userSpaceOnUse"
         cx="0"
         cy="0"
         r="200"
         gradientTransform="matrix(0.1418,-0.1263,-0.1894,-0.2127,293.9384,58.1026)">
        <stop
           offset="0"
           stop-color="#ffa600"
           id="stop21303" />
        <stop
           offset="1"
           stop-color="#ffee9c"
           id="stop21305" />
      </radialGradient>
      <path
         style="fill:url(#gradient1-9)"
         d="m 297.49,42.34 c -1.5,7.86 0.4,13.77 4.47,18.18 0.07,-1.2 0.55,-2.06 0.94,-2.77 0.43,7.58 6.16,7.8 8.53,8.68 0.09,-0.89 -0.74,-1.37 -0.07,-3.48 0.77,1.65 1.48,2.58 2.39,3.97 1.38,0.35 2.87,1.25 4.36,1.44 1.84,0.23 4.28,0.45 6.31,0.62 -0.02,-0.93 0.25,-1.31 0.59,-1.89 0.24,0.72 0.56,1.38 0.97,1.99 2.1,-0.18 3.93,0.48 4.92,1.09 -1.1,-4.49 -4.31,-9.07 -7.22,-12.02 -1.7,-0.5 -2.94,0.34 -5.25,1.32 0.46,-1.31 1.42,-2.39 3.3,-3.01 -2.31,-1.9 -4.83,-3.57 -7.34,-5.14 -0.97,-0.61 -3.89,-1.75 -5.18,-2.69 -1.27,-0.02 -2.44,0.03 -3.52,0.15 0.73,-0.51 1.39,-1.1 2.2,-1.54 -3.31,-3.69 -5.86,-5.23 -9.81,-6.32 -3.58,-5.48 -5.21,-13.17 -4.33,-13.67 l -2.07,1.17 c 0,0 1.84,8.54 5.77,13.92 v 0 z"
         id="path3160" />
    </g>
    <g
       id="g3171"
       style="color-interpolation:linearRGB"
       transform="matrix(0.51374798,0,0,0.51374798,62.928777,44.14316)">
      <radialGradient
         id="radialGradient21315"
         gradientUnits="userSpaceOnUse"
         cx="0"
         cy="0"
         r="200"
         gradientTransform="matrix(0.3331,-0.035,0.0125,0.1194,141.466,40.6245)">
        <stop
           offset="0"
           stop-color="#ff7200"
           id="stop21311" />
        <stop
           offset="1"
           stop-color="#ffaa00"
           id="stop21313" />
      </radialGradient>
      <path
         style="fill:url(#gradient2-9)"
         d="M 163.3,54.5 C 159.1,45.8 153,41.46 145.9,40.12 c 0.79,1.21 0.95,2.4 1.08,3.37 -5.87,-7.03 -11.58,-3.12 -14.51,-2.27 0.55,0.93 1.7,0.79 2.57,3.32 -1.93,-1.04 -3.3,-1.43 -5.17,-2.12 -1.59,0.65 -3.69,0.85 -5.27,1.74 -1.95,1.09 -4.48,2.64 -6.56,3.94 0.69,0.89 0.69,1.45 0.78,2.26 -0.75,-0.52 -1.54,-0.93 -2.38,-1.23 -1.9,1.69 -4.16,2.36 -5.55,2.48 4.3,3.55 10.71,5.68 15.64,6.45 2.01,-0.73 2.6,-2.45 4.14,-5.06 0.49,1.61 0.33,3.34 -1.03,5.3 3.61,0.18 7.25,-0.01 10.81,-0.3 1.38,-0.11 5.03,-1.1 6.95,-1.12 1.25,-0.89 2.34,-1.79 3.29,-2.68 -0.34,1.02 -0.55,2.07 -1.01,3.08 5.86,1.19 9.44,0.84 14.05,-0.93 7.41,2.73 14.52,9 14.03,10.12 l 1.16,-2.63 c 0,0 -7.93,-6.95 -15.6,-9.32 v 0 z"
         id="path3169" />
    </g>
    <g
       id="g3180"
       style="color-interpolation:linearRGB"
       transform="matrix(0.51374798,0,0,0.51374798,62.928777,44.14316)">
      <radialGradient
         id="radialGradient21323"
         gradientUnits="userSpaceOnUse"
         cx="0"
         cy="0"
         r="200"
         gradientTransform="matrix(0.4154,-0.1687,0.0668,0.1404,71.8342,56.0243)">
        <stop
           offset="0"
           stop-color="#33a02c"
           id="stop21319" />
        <stop
           offset="1"
           stop-color="#a9ff00"
           id="stop21321" />
      </radialGradient>
      <path
         style="fill:url(#gradient3-2)"
         d="m 56.97,48.76 c 6.97,6.68 14.21,8.62 21.33,7.4 -1.17,-0.86 -1.72,-1.91 -2.19,-2.78 7.96,4.54 11.94,-1.11 14.39,-2.93 -0.84,-0.68 -1.87,-0.15 -3.57,-2.21 2.17,0.3 3.59,0.19 5.59,0.18 1.26,-1.16 3.16,-2.08 4.33,-3.47 1.44,-1.71 3.27,-4.04 4.77,-5.98 -0.96,-0.59 -1.16,-1.11 -1.52,-1.85 0.88,0.22 1.77,0.33 2.66,0.32 1.19,-2.25 3.07,-3.66 4.33,-4.26 -5.27,-1.83 -12.02,-1.58 -16.91,-0.58 -1.63,1.39 -1.58,3.2 -2.11,6.19 -1.02,-1.33 -1.48,-3.01 -0.88,-5.32 -3.44,1.08 -6.79,2.54 -10.02,4.06 -1.25,0.58 -4.33,2.78 -6.12,3.48 -0.85,1.27 -1.56,2.49 -2.15,3.66 -0.03,-1.08 -0.2,-2.14 -0.12,-3.24 -5.91,0.92 -9.14,2.5 -12.83,5.78 -7.9,0.02 -16.75,-3.36 -16.68,-4.58 l -0.16,2.86 c 0,0 9.86,3.74 17.88,3.29 v 0 z"
         id="path3178" />
    </g>
  </g>
  <g
     style="color-interpolation:linearRGB"
     id="g23136"
     transform="matrix(0.19762227,0,0,0.19762227,67.843765,194.70287)">
    <g
       id="g23123">
      <radialGradient
         id="gradient0-3"
         gradientUnits="userSpaceOnUse"
         cx="0"
         cy="0"
         r="200"
         gradientTransform="matrix(3.0531,-1.2534,0.4911,1.0434,279.2078,214.5061)">
        <stop
           offset="0"
           stop-color="#00aaff"
           id="stop23116" />
        <stop
           offset="1"
           stop-color="#00337f"
           id="stop23118" />
      </radialGradient>
      <path
         style="fill:url(#gradient0-3)"
         d="m 131.99,126.58 c 51.28,49.67 104.45,64.1 156.83,54.99 -8.62,-6.41 -12.71,-14.25 -16.1,-20.66 58.51,33.74 87.76,-8.31 105.82,-21.81 -6.21,-5.09 -13.78,-1.12 -26.28,-16.47 16.01,2.25 26.41,1.43 41.12,1.34 9.29,-8.67 23.23,-15.51 31.83,-25.8 10.62,-12.71 24.07,-30.03 35.1,-44.46 -7.1,-4.39 -8.53,-8.29 -11.22,-13.75 6.52,1.69 13.04,2.49 19.56,2.39 C 477.4,25.63 491.23,15.1 500.53,10.64 461.79,-2.96 412.17,-1.14 376.23,6.32 364.25,16.68 364.6,30.14 360.72,52.31 353.18,42.38 349.81,29.93 354.24,12.74 328.9,20.81 304.33,31.68 280.57,42.9 c -9.25,4.36 -31.85,20.72 -45.03,25.87 -6.31,9.5 -11.53,18.56 -15.83,27.25 -0.27,-8.03 -1.51,-15.91 -0.88,-24.1 -43.49,6.9 -67.21,18.61 -94.36,42.98 C 66.39,115.11 1.3,89.9 1.83,80.83 l -1.24,21.31 c 0,0 72.47,27.81 131.43,24.44 v 0 z"
         id="path23121" />
    </g>
  </g>
  <text
     xml:space="preserve"
     style="font-size:36px;line-height:1.25;font-family:'Open Sans Condensed';-inkscape-font-specification:'Open Sans Condensed, ';stroke-width:0.75"
     x="117.51146"
     y="121.09048"
     id="text26133"><tspan
       sodipodi:role="line"
       id="tspan26131"
       style="stroke-width:0.75"></tspan></text>
</svg>
