<?xml version="1.0" encoding="utf-8"?>
<!-- Generator: Adobe Illustrator 24.3.0, SVG Export Plug-In . SVG Version: 6.00 Build 0)  -->
<svg version="1.1" id="Layer_1" xmlns="http://www.w3.org/2000/svg" xmlns:xlink="http://www.w3.org/1999/xlink" x="0px" y="0px"
	 viewBox="0 0 1920 1080" style="enable-background:new 0 0 1920 1080;" xml:space="preserve">
<style type="text/css">
	.st0{fill:#09BC8A;}
	.st1{fill:#F4C967;}
	.st2{opacity:0.1;}
	.st3{fill:#FFFFFF;}
</style>
<g>
	<g>
		<rect class="st0" width="1920" height="1080"/>
	</g>
</g>
<g>
	<path class="st1" d="M1040.8,563.99c-0.19-4.33-0.68-8.6-1.45-12.76c-0.7-3.89-1.66-7.7-2.82-11.42
		c-5.74-18.22-16.78-34.08-31.31-45.78c-16.36-13.16-37.16-21.03-59.8-21.03c-12.1,0-23.68,2.25-34.33,6.36
		c-29.41,11.32-51.79,36.78-58.83,68.05c-0.54,2.38-0.99,4.81-1.34,7.26c-0.66,4.51-1,9.13-1,13.83c0,30.63,14.42,57.9,36.85,75.37
		C902.94,656.49,923.3,664,945.42,664c21.37,0,41.11-7.02,57.02-18.87c1.95-1.46,3.85-2.99,5.69-4.6
		c13.76-11.99,24.05-27.85,29.17-45.89v-0.01c0.82-2.89,1.51-5.82,2.05-8.82c0.42-2.21,0.75-4.46,0.99-6.73
		c0.17-1.48,0.29-2.97,0.39-4.48c0.14-2.01,0.2-4.05,0.2-6.11C1040.92,566.99,1040.88,565.48,1040.8,563.99z M1030.82,573.97
		c-0.08,1.35-0.2,2.69-0.35,4.02c-0.22,2.03-0.51,4.04-0.88,6.03c-0.48,2.68-1.1,5.31-1.83,7.9v0.01
		c-4.59,16.17-13.82,30.39-26.15,41.13c-1.65,1.44-3.35,2.81-5.1,4.12c-14.26,10.62-31.95,16.91-51.1,16.91
		c-19.82,0-38.06-6.73-52.56-18.04c-20.1-15.66-33.02-40.09-33.02-67.54c0-4.21,0.3-8.35,0.89-12.4c0.32-2.2,0.72-4.37,1.2-6.51
		c6.31-28.02,26.37-50.83,52.72-60.98c9.55-3.69,19.92-5.7,30.76-5.7c20.29,0,38.93,7.05,53.59,18.85
		c13.03,10.49,22.92,24.7,28.06,41.02c1.04,3.33,1.9,6.74,2.53,10.23c0.69,3.73,1.13,7.55,1.3,11.44c0.07,1.34,0.1,2.69,0.1,4.04
		C1031,570.34,1030.94,572.17,1030.82,573.97z"/>
	<g>
		<g>
			<path class="st1" d="M860.25,496.5c-1.41,50.54,16.49,85.41,46.28,108.74c-0.78-7.56,1.36-13.42,3.08-18.26
				c10.37,46.82,46.26,42.4,61.95,45.53c-0.31-5.68-6.01-7.8-3.97-21.65c6.5,9.47,11.9,14.57,18.96,22.33
				c8.93,0.77,19.15,4.93,28.67,4.6c11.67-0.41,27.16-1.52,39.97-2.53c-1.1-5.82,0.25-8.38,1.81-12.38
				c2.24,4.19,4.94,8.02,8.11,11.4c12.89-3.31,24.98-0.99,31.74,1.82c-11.42-26.87-36.11-52.16-57.16-67.59
				c-11.14-1.42-17.98,5.14-31.42,13.57c1.58-8.67,6.45-16.34,17.56-22.13c-16.28-9.54-33.71-17.41-50.94-24.61
				c-6.66-2.79-25.98-7-35.02-11.52c-7.91,1.17-15.14,2.7-21.73,4.54c4.05-3.91,7.56-8.3,12.14-11.85
				c-24.35-19.7-41.85-26.66-67.52-29.46c-27.84-30.53-45.83-76.76-40.86-80.78l-11.67,9.41c0,0,20.15,51.38,50.06,80.88l-0.04-0.04
				L860.25,496.5z"/>
		</g>
	</g>
	<path class="st1" d="M1097.23,637.42c-1.06,8.91-0.92,17.96-1.63,26.92c-1.18,14.96,2.18,28.85,9.82,41.6
		c6.53,10.89,5.18,21.36-0.73,31.68c-5.3,9.26-15.22,10.11-22.46,2.24c-8.37-9.09-7.06-19.39-1.87-28.82
		c10.39-18.86,12.96-39.03,11.97-59.93c-0.3-6.24-1.63-12.58-3.5-18.55C1086.47,625.01,1097.93,631.56,1097.23,637.42z
		 M1097.56,697.79c6.81,12.96,4.44,26.92,3.64,40.72c6.78-7.39,8.99-19.5,5.27-26.05C1103.64,707.48,1100.54,702.67,1097.56,697.79z
		 M1080.39,715.57c6.77-6.34,12.06-19.03,11.21-24.59C1087.93,699.06,1084.16,707.32,1080.39,715.57z"/>
	<path class="st1" d="M1091.25,788.75c-4.04-2.4-5.84-8.03-3.51-11.61c3.9-5.97,7.74-6.81,9.46-2.66c1.74,4.2,5.89,8.05,3.91,11.61
		C1099.19,789.56,1094.67,790.78,1091.25,788.75z"/>
</g>
<g>
	<g class="st2">
		<rect x="1281.33" class="st3" width="638.67" height="1080"/>
	</g>
	<g class="st2">
		<rect class="st3" width="638.67" height="1080"/>
	</g>
</g>
</svg>
