<?xml version="1.0" encoding="UTF-8"?>
<svg width="2560px" height="1440px" viewBox="0 0 2560 1440" version="1.1" xmlns="http://www.w3.org/2000/svg" xmlns:xlink="http://www.w3.org/1999/xlink">
    <title>Wallpapers/Haiku/HaikuSlide5120</title>
    <defs>
        <radialGradient cx="0%" cy="0%" fx="0%" fy="0%" r="608.276253%" gradientTransform="translate(0.000000,0.000000),scale(0.083333,1.000000),rotate(9.462322),scale(1.000000,1.387427),translate(-0.000000,-0.000000)" id="radialGradient-1">
            <stop stop-color="#FFFFFF" offset="0%"></stop>
            <stop stop-color="#C9C9C9" offset="100%"></stop>
        </radialGradient>
        <radialGradient cx="0%" cy="0%" fx="0%" fy="0%" r="608.276253%" gradientTransform="translate(0.000000,0.000000),scale(0.083333,1.000000),rotate(9.462322),scale(1.000000,1.387427),translate(-0.000000,-0.000000)" id="radialGradient-2">
            <stop stop-color="#3F6694" offset="0%"></stop>
            <stop stop-color="#3F6694" offset="100%"></stop>
        </radialGradient>
        <radialGradient cx="0%" cy="0%" fx="0%" fy="0%" r="608.276253%" gradientTransform="translate(0.000000,0.000000),scale(0.083333,1.000000),rotate(9.462322),scale(1.000000,1.387427),translate(-0.000000,-0.000000)" id="radialGradient-3">
            <stop stop-color="#CECECE" offset="0%"></stop>
            <stop stop-color="#E7E7E7" offset="100%"></stop>
        </radialGradient>
        <radialGradient cx="0%" cy="0%" fx="0%" fy="0%" r="608.276253%" gradientTransform="translate(0.000000,0.000000),scale(0.083333,1.000000),rotate(9.462322),scale(1.000000,1.387427),translate(-0.000000,-0.000000)" id="radialGradient-4">
            <stop stop-color="#447834" offset="0%"></stop>
            <stop stop-color="#447834" offset="100%"></stop>
        </radialGradient>
        <radialGradient cx="0%" cy="0%" fx="0%" fy="0%" r="608.276253%" gradientTransform="translate(0.000000,0.000000),scale(0.083333,1.000000),rotate(9.462322),scale(1.000000,1.387427),translate(-0.000000,-0.000000)" id="radialGradient-5">
            <stop stop-color="#F5F5F5" offset="0%"></stop>
            <stop stop-color="#CECECE" offset="100%"></stop>
        </radialGradient>
        <radialGradient cx="0%" cy="0%" fx="0%" fy="0%" r="608.276253%" gradientTransform="translate(0.000000,0.000000),scale(0.083333,1.000000),rotate(9.462322),scale(1.000000,1.387427),translate(-0.000000,-0.000000)" id="radialGradient-6">
            <stop stop-color="#EE7D31" offset="0%"></stop>
            <stop stop-color="#A7581F" offset="100%"></stop>
        </radialGradient>
        <radialGradient cx="0%" cy="0%" fx="0%" fy="0%" r="608.276253%" gradientTransform="translate(0.000000,0.000000),scale(0.083333,1.000000),rotate(9.462322),scale(1.000000,1.387427),translate(-0.000000,-0.000000)" id="radialGradient-7">
            <stop stop-color="#7A2D2D" offset="0%"></stop>
            <stop stop-color="#AF4B4B" offset="100%"></stop>
        </radialGradient>
        <radialGradient cx="0%" cy="0%" fx="0%" fy="0%" r="608.276253%" gradientTransform="translate(0.000000,0.000000),scale(0.083333,1.000000),rotate(9.462322),scale(1.000000,1.387427),translate(-0.000000,-0.000000)" id="radialGradient-8">
            <stop stop-color="#8E8E8E" offset="0%"></stop>
            <stop stop-color="#F7F7F7" offset="100%"></stop>
        </radialGradient>
        <radialGradient cx="0%" cy="0%" fx="0%" fy="0%" r="608.276253%" gradientTransform="translate(0.000000,0.000000),scale(0.083333,1.000000),rotate(9.462322),scale(1.000000,1.387427),translate(-0.000000,-0.000000)" id="radialGradient-9">
            <stop stop-color="#FCE98E" offset="0%"></stop>
            <stop stop-color="#AE9430" offset="100%"></stop>
        </radialGradient>
        <radialGradient cx="5.70583737%" cy="71.8988934%" fx="5.70583737%" fy="71.8988934%" r="96.8264847%" gradientTransform="translate(0.057058,0.718989),scale(1.000000,0.913920),rotate(-41.702435),translate(-0.057058,-0.718989)" id="radialGradient-10">
            <stop stop-color="#FFA600" offset="0%"></stop>
            <stop stop-color="#FFEE9C" offset="100%"></stop>
        </radialGradient>
        <radialGradient cx="44.969492%" cy="4.64251314%" fx="44.969492%" fy="4.64251314%" r="247.068309%" gradientTransform="translate(0.449695,0.046425),scale(0.398574,1.000000),rotate(-6.007663),translate(-0.449695,-0.046425)" id="radialGradient-11">
            <stop stop-color="#FF7200" offset="0%"></stop>
            <stop stop-color="#FFAA00" offset="100%"></stop>
        </radialGradient>
        <radialGradient cx="48.1272339%" cy="98.0532255%" fx="48.1272339%" fy="98.0532255%" r="363.132925%" gradientTransform="translate(0.481272,0.980532),scale(0.363165,1.000000),rotate(-22.099272),translate(-0.481272,-0.980532)" id="radialGradient-12">
            <stop stop-color="#33A02C" offset="0%"></stop>
            <stop stop-color="#A9FF00" offset="100%"></stop>
        </radialGradient>
    </defs>
    <g id="Wallpapers/Haiku/HaikuSlide" stroke="none" stroke-width="1" fill="none" fill-rule="evenodd">
        <g id="Group-2" fill="#2C4767">
            <rect id="bg" x="0" y="0" width="2560" height="1440"></rect>
        </g>
        <g id="Group-3" transform="translate(500.000000, 464.000000)">
            <g id="Group" transform="translate(224.000000, 332.000000)">
                <path d="M30,0 L690,0 C706.568542,-3.04359188e-15 720,13.4314575 720,30 C720,46.5685425 706.568542,60 690,60 L30,60 C13.4314575,60 2.02906125e-15,46.5685425 0,30 C-2.02906125e-15,13.4314575 13.4314575,3.04359188e-15 30,0 Z" id="Rectangle" fill="url(#radialGradient-1)"></path>
                <path d="M30,0 L690,0 C706.568542,-3.04359188e-15 720,13.4314575 720,30 C720,46.5685425 706.568542,60 690,60 L30,60 C13.4314575,60 2.02906125e-15,46.5685425 0,30 C-2.02906125e-15,13.4314575 13.4314575,3.04359188e-15 30,0 Z" id="Rectangle" fill="url(#radialGradient-2)" opacity="0.658362979" style="mix-blend-mode: normal;"></path>
            </g>
            <g id="Group" transform="translate(844.000000, 132.000000)">
                <path d="M30,0 L690,0 C706.568542,-3.04359188e-15 720,13.4314575 720,30 C720,46.5685425 706.568542,60 690,60 L30,60 C13.4314575,60 2.02906125e-15,46.5685425 0,30 C-2.02906125e-15,13.4314575 13.4314575,3.04359188e-15 30,0 Z" id="Rectangle" fill="url(#radialGradient-3)"></path>
                <path d="M30,0 L690,0 C706.568542,-3.04359188e-15 720,13.4314575 720,30 C720,46.5685425 706.568542,60 690,60 L30,60 C13.4314575,60 2.02906125e-15,46.5685425 0,30 C-2.02906125e-15,13.4314575 13.4314575,3.04359188e-15 30,0 Z" id="Rectangle" fill="url(#radialGradient-4)" opacity="0.658362979" style="mix-blend-mode: normal;"></path>
            </g>
            <g id="Group" transform="translate(584.000000, 0.000000)">
                <path d="M30,0 L690,0 C706.568542,-3.04359188e-15 720,13.4314575 720,30 C720,46.5685425 706.568542,60 690,60 L30,60 C13.4314575,60 2.02906125e-15,46.5685425 0,30 C-2.02906125e-15,13.4314575 13.4314575,3.04359188e-15 30,0 Z" id="Rectangle" fill="url(#radialGradient-5)"></path>
                <path d="M30,0 L690,0 C706.568542,-3.04359188e-15 720,13.4314575 720,30 C720,46.5685425 706.568542,60 690,60 L30,60 C13.4314575,60 2.02906125e-15,46.5685425 0,30 C-2.02906125e-15,13.4314575 13.4314575,3.04359188e-15 30,0 Z" id="Rectangle" fill="url(#radialGradient-6)" opacity="0.658362979" style="mix-blend-mode: normal;"></path>
            </g>
            <g id="Group" transform="translate(0.000000, 100.000000)">
                <path d="M30,0 L690,0 C706.568542,-3.04359188e-15 720,13.4314575 720,30 C720,46.5685425 706.568542,60 690,60 L30,60 C13.4314575,60 2.02906125e-15,46.5685425 0,30 C-2.02906125e-15,13.4314575 13.4314575,3.04359188e-15 30,0 Z" id="Rectangle" fill="url(#radialGradient-5)"></path>
                <path d="M30,0 L690,0 C706.568542,-3.04359188e-15 720,13.4314575 720,30 C720,46.5685425 706.568542,60 690,60 L30,60 C13.4314575,60 2.02906125e-15,46.5685425 0,30 C-2.02906125e-15,13.4314575 13.4314575,3.04359188e-15 30,0 Z" id="Rectangle" fill="url(#radialGradient-7)" opacity="0.658362979" style="mix-blend-mode: normal;"></path>
            </g>
            <g id="Group" transform="translate(756.000000, 232.000000)">
                <path d="M30,0 L690,0 C706.568542,-3.04359188e-15 720,13.4314575 720,30 C720,46.5685425 706.568542,60 690,60 L30,60 C13.4314575,60 2.02906125e-15,46.5685425 0,30 C-2.02906125e-15,13.4314575 13.4314575,3.04359188e-15 30,0 Z" id="Rectangle" fill="url(#radialGradient-8)"></path>
                <path d="M30,0 L690,0 C706.568542,-3.04359188e-15 720,13.4314575 720,30 C720,46.5685425 706.568542,60 690,60 L30,60 C13.4314575,60 2.02906125e-15,46.5685425 0,30 C-2.02906125e-15,13.4314575 13.4314575,3.04359188e-15 30,0 Z" id="Rectangle" fill="url(#radialGradient-9)" opacity="0.658362979" style="mix-blend-mode: normal;"></path>
            </g>
        </g>
        <g id="Logos" transform="translate(984.000000, 600.000000)" fill-rule="nonzero">
            <g id="HAIKU-logo---white">
                <polygon id="Path" fill="#FFFFFF" points="40.52 5.02 40.52 111.94 54.47 111.94 54.47 5.02 40.52 5.02 40.52 5.02"></polygon>
                <path d="M103.51,5.02 C103.51,40.55 103.51,76.4 103.51,111.94 L117.46,111.94 L117.46,5.02 L103.51,5.02 L103.51,5.02 Z" id="Path" fill="#FFFFFF"></path>
                <polygon id="Path" fill="#FFFFFF" points="206.02 0.18 155.6 111.94 169.69 111.94 206.01 30.36 241.28 111.94 255.36 111.94 206 0.18 206 0.18"></polygon>
                <polygon id="Path" fill="#FFFFFF" points="293.51 5.02 293.51 111.94 307.47 111.94 307.47 5.02 293.51 5.02"></polygon>
                <polygon id="Path" fill="#FFFFFF" points="357.51 5.02 357.51 111.94 371.44 111.94 371.44 67.44 375.92 62.08 415.4 111.96 432.92 111.96 385.19 53.03 432.19 5.03 415.21 5.03 371.42 51.33 371.42 5.03 357.5 5.03 357.5 5.03"></polygon>
                <path d="M533.51,5.02 L533.51,69.3 C533.51,79.53 531.38,87.49 527.23,93.18 C523.1,98.86 516.69,101.06 508.02,101.06 C498.94,101.06 492.63,97.58 488.81,91.35 C484.98,85.12 483.49,78.83 483.49,70.44 L483.49,5.03 L469.57,5.03 L469.57,73.67 C469.57,80.15 471.14,86.66 473.84,92.82 C476.53,98.98 480.82,103.91 486.56,107.94 C492.27,111.96 499.52,113.88 508.02,113.97 C513.63,113.97 518.79,113.14 523.49,111.19 C528.19,109.22 532.24,106.39 535.68,102.72 C539.09,99.05 541.71,94.69 543.56,89.62 C545.38,84.58 546.48,79.04 546.48,73.01 L546.48,5.04 L533.51,5.04 L533.51,5.04 L533.51,5.02 Z" id="Path" fill="#FFFFFF"></path>
                <path d="M516.97,60.69 C513.97,76.41 517.77,88.23 525.92,97.05 C526.06,94.64 527.02,92.92 527.81,91.5 C528.66,106.66 540.14,107.1 544.88,108.86 C545.07,107.08 543.4,106.13 544.74,101.89 C546.27,105.19 547.7,107.06 549.52,109.83 C552.28,110.52 555.27,112.34 558.25,112.71 C561.92,113.17 566.82,113.61 570.88,113.95 C570.84,112.09 571.38,111.34 572.07,110.16 C572.54,111.6 573.19,112.93 574.01,114.15 C578.21,113.79 581.87,115.11 583.86,116.33 C581.66,107.35 575.23,98.18 569.42,92.28 C566.01,91.27 563.53,92.96 558.91,94.91 C559.83,92.28 561.75,90.14 565.51,88.89 C560.9,85.08 555.85,81.75 550.82,78.61 C548.87,77.4 543.04,75.11 540.46,73.24 C537.92,73.2 535.57,73.3 533.43,73.54 C534.89,72.53 536.21,71.34 537.82,70.46 C531.19,63.08 526.1,60.01 518.19,57.83 C511.04,46.88 507.77,31.48 509.53,30.48 L505.4,32.83 C505.4,32.83 509.08,49.91 516.95,60.66 L516.96,60.68 L516.97,60.69 Z" id="Path" fill="url(#radialGradient-10)"></path>
                <path d="M248.6,85 C240.2,67.6 228,58.92 213.79,56.24 C215.38,58.67 215.69,61.03 215.95,62.97 C204.22,48.91 192.79,56.74 186.93,58.42 C188.03,60.29 190.33,60.01 192.08,65.07 C188.21,62.99 185.48,62.2 181.73,60.84 C178.55,62.13 174.35,62.53 171.19,64.31 C167.3,66.5 162.24,69.58 158.07,72.19 C159.45,73.96 159.45,75.08 159.62,76.71 C158.12,75.67 156.54,74.85 154.87,74.26 C151.07,77.63 146.55,78.98 143.76,79.23 C152.35,86.33 165.17,90.58 175.03,92.12 C179.05,90.66 180.22,87.23 183.3,82.01 C184.27,85.23 183.96,88.69 181.25,92.6 C188.47,92.97 195.75,92.58 202.86,92.01 C205.63,91.79 212.91,89.81 216.77,89.77 C219.27,87.99 221.44,86.2 223.35,84.42 C222.67,86.46 222.24,88.56 221.33,90.57 C233.05,92.95 240.21,92.26 249.42,88.7 C264.24,94.16 278.47,106.71 277.47,108.95 L279.79,103.7 C279.79,103.7 263.94,89.8 248.59,85.05 L248.59,85.01 L248.6,85 Z" id="Path" fill="url(#radialGradient-11)"></path>
                <path d="M35.72,73.52 C49.67,86.89 64.14,90.77 78.39,88.32 C76.05,86.6 74.94,84.49 74.01,82.76 C89.93,91.84 97.89,80.54 102.8,76.9 C101.11,75.53 99.05,76.6 95.65,72.47 C100,73.06 102.83,72.84 106.84,72.83 C109.35,70.5 113.15,68.67 115.5,65.89 C118.38,62.48 122.04,57.81 125.04,53.92 C123.11,52.74 122.73,51.7 122,50.23 C123.76,50.67 125.54,50.89 127.31,50.86 C129.68,46.36 133.44,43.53 135.97,42.34 C125.43,38.68 111.93,39.18 102.16,41.18 C98.9,43.97 99,47.59 97.94,53.56 C95.89,50.89 94.97,47.54 96.18,42.91 C89.3,45.07 82.6,47.99 76.14,51.02 C73.64,52.19 67.49,56.58 63.89,57.98 C62.19,60.52 60.77,62.96 59.6,65.3 C59.53,63.15 59.19,61.03 59.36,58.82 C47.53,60.66 41.07,63.83 33.69,70.38 C17.9,70.43 0.19,63.66 0.33,61.22 L0,66.94 C0,66.94 19.72,74.42 35.75,73.52 L35.73,73.52 L35.72,73.52 Z" id="Path" fill="url(#radialGradient-12)"></path>
                <path d="M575.72,13.54 C575.72,11.3 576.54,9.33 578.2,7.63 C579.85,5.93 582.02,5.08 584.7,5.08 C586.95,5.08 588.93,5.88 590.63,7.5 C592.33,9.11 593.18,11.13 593.18,13.55 C593.18,15.85 592.39,17.89 590.8,19.68 C589.21,21.46 587.12,22.36 584.53,22.36 C584.48,22.36 584.42,22.36 584.37,22.36 C584.32,22.36 584.27,22.36 584.21,22.36 C581.83,22.29 579.91,21.52 578.48,20.06 C577.05,18.6 576.17,16.99 575.85,15.23 C575.83,15.02 575.8,14.79 575.78,14.56 C575.76,14.34 575.75,14.11 575.75,13.89 C575.75,13.84 575.75,13.78 575.75,13.73 C575.75,13.68 575.75,13.63 575.75,13.57 L575.75,13.55 L575.72,13.54 Z M591.64,13.36 C591.64,13.34 591.64,13.3 591.64,13.26 C591.64,13.22 591.64,13.17 591.64,13.11 C591.64,12.88 591.63,12.64 591.6,12.39 C591.58,12.15 591.52,11.9 591.45,11.65 C591.12,10.36 590.37,9.18 589.2,8.1 C588.04,7.03 586.54,6.49 584.71,6.49 C584.69,6.49 584.66,6.49 584.64,6.49 C584.62,6.49 584.6,6.49 584.57,6.49 C584.55,6.49 584.52,6.49 584.5,6.49 C584.48,6.49 584.46,6.49 584.43,6.49 C582.37,6.56 580.77,7.15 579.65,8.27 C578.53,9.38 577.79,10.6 577.42,11.92 C577.34,12.27 577.27,12.61 577.23,12.95 C577.19,13.28 577.17,13.61 577.17,13.93 C577.22,15.63 577.7,17 578.58,18.05 C579.46,19.09 580.43,19.86 581.49,20.34 C581.98,20.57 582.47,20.74 582.95,20.85 C583.42,20.95 583.86,21.01 584.25,21.01 C586.27,21.01 587.9,20.43 589.15,19.27 C590.39,18.11 591.18,16.82 591.52,15.42 C591.57,15.19 591.62,14.95 591.65,14.71 C591.67,14.47 591.69,14.23 591.69,14 C591.69,13.9 591.69,13.8 591.69,13.71 C591.69,13.62 591.69,13.52 591.67,13.42 L591.67,13.4 L591.64,13.36 Z M580.91,9.03 L585.24,9.03 C586.28,9.04 587.06,9.24 587.58,9.62 C588.1,10 588.36,10.62 588.36,11.48 C588.36,12.33 588.17,12.96 587.78,13.37 C587.4,13.78 586.73,14.07 585.77,14.24 L588.36,18.55 L586.63,18.55 L584.22,14.22 L582.31,14.22 L582.31,18.55 L580.93,18.55 L580.93,9.01 L580.91,9.03 Z M585.07,10.26 L582.3,10.26 L582.3,12.85 L585.24,12.85 C585.84,12.86 586.28,12.76 586.55,12.53 C586.82,12.3 586.96,12.01 586.96,11.68 C586.96,11.33 586.82,11.01 586.53,10.73 C586.24,10.45 585.75,10.31 585.06,10.31 L585.06,10.29 L585.07,10.26 Z" id="Shape" fill="#FFFFFF"></path>
            </g>
        </g>
    </g>
</svg>